<svg width="375" height="271" viewBox="0 0 375 271" fill="none" xmlns="http://www.w3.org/2000/svg">
<g clip-path="url(#clip0_42_186)">
<path opacity="0.1" d="M217.881 47.793C193.841 46.9551 170.926 39.1714 149.077 30.657C127.229 22.1427 105.574 12.7074 82.0965 8.19577C67.0016 5.29072 49.7385 4.88215 37.5784 12.9983C25.874 20.8062 22.0933 34.2858 20.0597 46.7923C18.5302 56.2034 17.6429 66.1062 21.824 74.9183C24.7346 81.0331 29.8997 86.1749 33.4732 92.0334C45.9026 112.417 37.1157 137.555 23.6436 157.475C17.3253 166.824 9.99535 175.719 5.12024 185.66C0.245134 195.6 -2.01288 206.989 2.25456 217.127C6.48403 227.168 16.5588 234.723 27.476 240.031C49.6487 250.803 75.7748 253.885 101.252 255.651C157.647 259.518 214.346 257.842 270.889 256.167C291.816 255.543 312.835 254.917 333.42 251.665C344.852 249.861 356.656 247.001 364.956 240.097C375.49 231.33 378.104 216.49 371.043 205.496C359.201 187.062 326.46 182.481 318.18 162.696C313.626 151.807 318.304 139.674 324.927 129.574C339.127 107.909 362.936 88.8999 364.19 64.1326C365.053 47.1213 353.607 30.0892 335.909 22.0389C317.362 13.5938 291.64 14.6603 277.957 28.6176C263.867 42.9974 239.105 48.5305 217.881 47.793Z" fill="#429B9C"/>
<path d="M83.6398 251.046C83.6398 251.046 64.6504 236.649 61.0631 218.335C59.6084 210.644 55.7063 203.633 49.9422 198.353C47.1848 195.87 44.2066 193.644 41.0448 191.705" stroke="#535461" stroke-width="2" stroke-miterlimit="10"/>
<path d="M38.7212 180.168C40.3854 182.426 41.1381 191.993 41.1381 191.993C41.1381 191.993 32.2407 188.478 30.573 186.224C29.7723 185.14 29.4335 183.782 29.6313 182.448C29.8292 181.114 30.5473 179.913 31.6278 179.11C32.7083 178.307 34.0627 177.968 35.393 178.166C36.7233 178.364 37.9205 179.085 38.7212 180.168Z" fill="#429B9C"/>
<path d="M54.6793 187.675C54.8519 190.476 50.3048 198.918 50.3048 198.918C50.3048 198.918 44.7357 191.113 44.5596 188.312C44.4927 186.976 44.9531 185.668 45.8411 184.671C46.7292 183.674 47.9733 183.067 49.304 182.984C50.6347 182.9 51.9447 183.345 52.9502 184.223C53.9557 185.101 54.5757 186.341 54.6758 187.675H54.6793Z" fill="#429B9C"/>
<path d="M70.147 209.253C68.8903 211.76 60.711 216.746 60.711 216.746C60.711 216.746 59.8375 207.189 61.0943 204.683C61.7129 203.504 62.7683 202.616 64.0334 202.209C65.2985 201.803 66.6721 201.911 67.8586 202.51C69.0451 203.109 69.9497 204.151 70.3777 205.412C70.8057 206.673 70.7228 208.053 70.147 209.253Z" fill="#429B9C"/>
<path d="M78.1882 228.214C77.3699 230.897 70.1505 237.196 70.1505 237.196C70.1505 237.196 67.675 227.926 68.4932 225.24C68.8865 223.95 69.7744 222.87 70.9616 222.238C72.1488 221.605 73.538 221.471 74.8236 221.865C76.1093 222.26 77.186 223.15 77.817 224.341C78.448 225.531 78.5815 226.925 78.1882 228.214Z" fill="#429B9C"/>
<path d="M42.0737 205.704C44.8358 206.078 53.5675 202.124 53.5675 202.124C53.5675 202.124 46.1996 196.002 43.4237 195.628C42.0913 195.449 40.7424 195.807 39.6738 196.625C38.6051 197.443 37.9041 198.653 37.7251 199.989C37.5461 201.325 37.9037 202.678 38.7192 203.75C39.5347 204.822 40.7413 205.525 42.0737 205.704Z" fill="#429B9C"/>
<path d="M51.7583 227.764C54.5204 227.289 61.6569 220.901 61.6569 220.901C61.6569 220.901 52.7975 217.272 50.0389 217.747C49.3784 217.855 48.7459 218.094 48.1779 218.449C47.6099 218.804 47.1176 219.268 46.7295 219.815C46.3414 220.362 46.0651 220.98 45.9166 221.635C45.7681 222.289 45.7503 222.967 45.8643 223.628C45.9783 224.29 46.2218 224.922 46.5807 225.488C46.9396 226.055 47.4069 226.545 47.9555 226.929C48.5041 227.314 49.1232 227.585 49.7771 227.728C50.431 227.872 51.1067 227.884 51.7652 227.764H51.7583Z" fill="#429B9C"/>
<path d="M64.1014 247.912C66.9015 247.912 75.0152 242.826 75.0152 242.826C75.0152 242.826 66.8981 237.746 64.098 237.746C62.7538 237.746 61.4646 238.282 60.5141 239.235C59.5635 240.188 59.0295 241.481 59.0295 242.829C59.0295 244.177 59.5635 245.47 60.5141 246.423C61.4646 247.377 62.7538 247.912 64.098 247.912H64.1014Z" fill="#429B9C"/>
<path d="M268.114 126.523C268.114 126.523 279.818 105.731 297.461 99.7409C304.869 97.2735 311.28 92.4637 315.732 86.0329C317.82 82.9584 319.622 79.698 321.115 76.2928" stroke="#535461" stroke-width="2" stroke-miterlimit="10"/>
<path d="M332.191 72.4841C330.182 74.437 320.828 76.4591 320.828 76.4591C320.828 76.4591 323.124 67.1449 325.134 65.1886C326.104 64.2779 327.391 63.7856 328.72 63.8176C330.048 63.8497 331.311 64.4035 332.236 65.3599C333.161 66.3163 333.675 67.5987 333.666 68.9312C333.658 70.2636 333.128 71.5395 332.191 72.4841Z" fill="#429B9C"/>
<path d="M326.902 89.3223C324.139 89.8694 315.208 86.4692 315.208 86.4692C315.208 86.4692 322.182 79.8904 324.927 79.3538C325.586 79.2071 326.267 79.1939 326.932 79.315C327.596 79.4362 328.229 79.6891 328.795 80.0591C329.36 80.4291 329.846 80.9086 330.224 81.4695C330.602 82.0304 330.864 82.6614 330.996 83.3255C331.128 83.9895 331.126 84.6732 330.99 85.3365C330.854 85.9997 330.588 86.6291 330.207 87.1877C329.825 87.7464 329.337 88.2229 328.769 88.5895C328.201 88.956 327.566 89.2052 326.902 89.3223Z" fill="#429B9C"/>
<path d="M307.65 107.563C305.005 106.645 298.994 99.1801 298.994 99.1801C298.994 99.1801 308.316 97.0403 310.968 97.9578C311.605 98.1698 312.193 98.5065 312.7 98.9485C313.206 99.3905 313.62 99.9289 313.917 100.533C314.214 101.136 314.388 101.793 314.43 102.465C314.472 103.137 314.381 103.81 314.161 104.446C313.941 105.082 313.598 105.668 313.15 106.17C312.703 106.672 312.161 107.08 311.555 107.37C310.949 107.659 310.292 107.826 309.622 107.859C308.951 107.892 308.281 107.792 307.65 107.563Z" fill="#429B9C"/>
<path d="M289.958 118.075C287.196 117.618 280.029 111.264 280.029 111.264C280.029 111.264 288.864 107.573 291.622 108.03C292.95 108.249 294.137 108.988 294.921 110.085C295.706 111.181 296.024 112.545 295.805 113.877C295.587 115.208 294.85 116.398 293.757 117.185C292.663 117.972 291.303 118.29 289.976 118.071L289.958 118.075Z" fill="#429B9C"/>
<path d="M307.408 79.1875C307.405 81.9956 312.483 90.1429 312.483 90.1429C312.483 90.1429 317.555 82.006 317.555 79.2013C317.573 78.5229 317.455 77.8478 317.208 77.2158C316.962 76.5838 316.591 76.0078 316.119 75.5217C315.647 75.0356 315.082 74.6492 314.459 74.3854C313.835 74.1216 313.165 73.9857 312.489 73.9857C311.812 73.9857 311.142 74.1216 310.518 74.3854C309.895 74.6492 309.33 75.0356 308.858 75.5217C308.386 76.0078 308.015 76.5838 307.769 77.2158C307.522 77.8478 307.404 78.5229 307.422 79.2013L307.408 79.1875Z" fill="#429B9C"/>
<path d="M286.889 91.7426C287.725 94.4226 294.989 100.672 294.989 100.672C294.989 100.672 297.406 91.386 296.563 88.706C296.126 87.4643 295.226 86.4411 294.052 85.8518C292.878 85.2625 291.522 85.1531 290.269 85.5467C289.016 85.9403 287.964 86.806 287.335 87.9617C286.706 89.1174 286.548 90.4728 286.896 91.7426H286.889Z" fill="#429B9C"/>
<path d="M268.635 106.69C269.008 109.46 275.112 116.86 275.112 116.86C275.112 116.86 279.052 108.117 278.679 105.336C278.605 104.663 278.397 104.011 278.068 103.419C277.739 102.827 277.296 102.307 276.763 101.889C276.231 101.471 275.621 101.165 274.969 100.987C274.316 100.81 273.635 100.765 272.966 100.855C272.296 100.945 271.651 101.169 271.068 101.513C270.486 101.857 269.978 102.314 269.575 102.858C269.171 103.402 268.88 104.021 268.719 104.679C268.558 105.337 268.529 106.021 268.635 106.69Z" fill="#429B9C"/>
<path opacity="0.25" d="M332.191 72.4841C330.182 74.437 320.828 76.4591 320.828 76.4591C320.828 76.4591 323.124 67.1449 325.134 65.1886C326.104 64.2779 327.391 63.7856 328.72 63.8176C330.048 63.8497 331.311 64.4035 332.236 65.3599C333.161 66.3163 333.675 67.5987 333.666 68.9312C333.658 70.2636 333.128 71.5395 332.191 72.4841Z" fill="black"/>
<path opacity="0.25" d="M326.902 89.3223C324.139 89.8694 315.208 86.4692 315.208 86.4692C315.208 86.4692 322.182 79.8904 324.927 79.3538C325.586 79.2071 326.267 79.1939 326.932 79.315C327.596 79.4362 328.229 79.6891 328.795 80.0591C329.36 80.4291 329.846 80.9086 330.224 81.4695C330.602 82.0304 330.864 82.6614 330.996 83.3255C331.128 83.9895 331.126 84.6732 330.99 85.3365C330.854 85.9997 330.588 86.6291 330.207 87.1877C329.825 87.7464 329.337 88.2229 328.769 88.5895C328.201 88.956 327.566 89.2052 326.902 89.3223Z" fill="black"/>
<path opacity="0.25" d="M307.65 107.563C305.005 106.645 298.994 99.1801 298.994 99.1801C298.994 99.1801 308.316 97.0403 310.968 97.9578C311.605 98.1698 312.193 98.5065 312.7 98.9485C313.206 99.3905 313.62 99.9289 313.917 100.533C314.214 101.136 314.388 101.793 314.43 102.465C314.472 103.137 314.381 103.81 314.161 104.446C313.941 105.082 313.598 105.668 313.15 106.17C312.703 106.672 312.161 107.08 311.555 107.37C310.949 107.659 310.292 107.826 309.622 107.859C308.951 107.892 308.281 107.792 307.65 107.563Z" fill="black"/>
<path opacity="0.25" d="M289.958 118.075C287.196 117.618 280.029 111.264 280.029 111.264C280.029 111.264 288.864 107.573 291.622 108.03C292.95 108.249 294.137 108.988 294.921 110.085C295.706 111.181 296.024 112.545 295.805 113.877C295.587 115.208 294.85 116.398 293.757 117.185C292.663 117.972 291.303 118.29 289.976 118.071L289.958 118.075Z" fill="black"/>
<path opacity="0.25" d="M307.408 79.1875C307.405 81.9956 312.483 90.1429 312.483 90.1429C312.483 90.1429 317.555 82.006 317.555 79.2013C317.573 78.5229 317.455 77.8478 317.208 77.2158C316.962 76.5838 316.591 76.0078 316.119 75.5217C315.647 75.0356 315.082 74.6492 314.459 74.3854C313.835 74.1216 313.165 73.9857 312.489 73.9857C311.812 73.9857 311.142 74.1216 310.518 74.3854C309.895 74.6492 309.33 75.0356 308.858 75.5217C308.386 76.0078 308.015 76.5838 307.769 77.2158C307.522 77.8478 307.404 78.5229 307.422 79.2013L307.408 79.1875Z" fill="black"/>
<path opacity="0.25" d="M286.889 91.7426C287.725 94.4226 294.989 100.672 294.989 100.672C294.989 100.672 297.406 91.386 296.563 88.706C296.126 87.4643 295.226 86.4411 294.052 85.8518C292.878 85.2625 291.522 85.1531 290.269 85.5467C289.016 85.9403 287.964 86.806 287.335 87.9617C286.706 89.1174 286.548 90.4728 286.896 91.7426H286.889Z" fill="black"/>
<path opacity="0.25" d="M268.635 106.69C269.008 109.46 275.112 116.86 275.112 116.86C275.112 116.86 279.052 108.117 278.679 105.336C278.605 104.663 278.397 104.011 278.068 103.419C277.739 102.827 277.296 102.307 276.763 101.889C276.231 101.471 275.621 101.165 274.969 100.987C274.316 100.81 273.635 100.765 272.966 100.855C272.296 100.945 271.651 101.169 271.068 101.513C270.486 101.857 269.978 102.314 269.575 102.858C269.171 103.402 268.88 104.021 268.719 104.679C268.558 105.337 268.529 106.021 268.635 106.69Z" fill="black"/>
<path d="M268.787 126.111C268.787 126.111 271.086 102.345 284.779 89.7066C290.555 84.4395 294.473 77.437 295.945 69.7487C296.615 66.0938 296.949 62.3849 296.943 58.6687" stroke="#535461" stroke-width="2" stroke-miterlimit="10"/>
<path d="M305.526 50.6496C304.49 53.2534 296.743 58.9042 296.743 58.9042C296.743 58.9042 295.079 49.455 296.125 46.8512C296.628 45.6009 297.607 44.6025 298.844 44.0755C300.082 43.5486 301.478 43.5363 302.724 44.0414C303.971 44.5465 304.967 45.5275 305.492 46.7687C306.018 48.01 306.03 49.4097 305.526 50.66V50.6496Z" fill="#429B9C"/>
<path d="M307.498 68.2114C305.209 69.8249 295.655 70.3547 295.655 70.3547C295.655 70.3547 299.377 61.5114 301.666 59.8979C302.209 59.4905 302.828 59.1964 303.486 59.0331C304.145 58.8698 304.829 58.8407 305.498 58.9473C306.168 59.054 306.81 59.2944 307.385 59.6542C307.96 60.014 308.458 60.4859 308.848 61.042C309.238 61.5981 309.513 62.2271 309.657 62.8917C309.8 63.5564 309.809 64.2431 309.684 64.9113C309.558 65.5795 309.299 66.2155 308.924 66.7818C308.548 67.348 308.063 67.833 307.498 68.2079V68.2114Z" fill="#429B9C"/>
<path d="M297.257 92.719C294.468 92.9544 285.953 88.564 285.953 88.564C285.953 88.564 293.618 82.8162 296.408 82.5808C297.748 82.4678 299.077 82.8932 300.104 83.7633C301.131 84.6334 301.771 85.877 301.884 87.2205C301.996 88.564 301.572 89.8973 300.705 90.9272C299.837 91.9571 298.597 92.5991 297.257 92.712V92.719Z" fill="#429B9C"/>
<path d="M285.342 109.509C282.632 110.201 273.503 107.338 273.503 107.338C273.503 107.338 280.087 100.375 282.798 99.6683C284.099 99.3299 285.481 99.5237 286.639 100.207C287.798 100.891 288.639 102.008 288.976 103.313C289.314 104.617 289.12 106.003 288.439 107.165C287.757 108.327 286.643 109.17 285.342 109.509Z" fill="#429B9C"/>
<path d="M285.584 66.8679C286.716 69.4336 294.637 74.8317 294.637 74.8317C294.637 74.8317 295.983 65.3305 294.851 62.7648C294.286 61.5644 293.276 60.633 292.036 60.1695C290.796 59.706 289.425 59.7472 288.215 60.2843C287.005 60.8215 286.052 61.8119 285.56 63.0441C285.069 64.2762 285.077 65.6523 285.584 66.8783V66.8679Z" fill="#429B9C"/>
<path d="M271.898 86.6803C273.745 88.789 282.908 91.5521 282.908 91.5521C282.908 91.5521 281.361 82.0821 279.514 79.9734C279.078 79.4612 278.545 79.0409 277.946 78.7371C277.346 78.4332 276.693 78.2519 276.023 78.2035C275.353 78.1552 274.68 78.2408 274.044 78.4555C273.407 78.6701 272.819 79.0095 272.315 79.4539C271.81 79.8982 271.399 80.4388 271.104 81.044C270.81 81.6493 270.638 82.3072 270.599 82.9796C270.56 83.6519 270.655 84.3254 270.878 84.9607C271.101 85.596 271.447 86.1805 271.898 86.6803Z" fill="#429B9C"/>
<path d="M261.233 107.774C262.697 110.163 271.262 114.439 271.262 114.439C271.262 114.439 271.335 104.845 269.881 102.452C269.158 101.347 268.034 100.569 266.747 100.281C265.461 99.9939 264.113 100.22 262.991 100.913C261.868 101.605 261.058 102.708 260.733 103.989C260.408 105.27 260.594 106.628 261.25 107.774H261.233Z" fill="#429B9C"/>
<path d="M251.178 33.0357C251.752 30.9271 252.442 28.808 252.925 26.6716C252.345 28.808 251.651 30.934 251.178 33.0357Z" fill="url(#paint0_linear_42_186)"/>
<path d="M248.61 53.3469C248.561 53.2638 248.527 53.1807 248.489 53.1045C248.489 53.0699 248.454 53.0422 248.441 53.0075C248.365 53.0431 248.288 53.0744 248.209 53.101C248.057 53.1599 247.902 53.2153 247.743 53.2603C247.584 53.3053 247.519 53.3295 247.398 53.3572C247.298 53.3919 247.195 53.4185 247.091 53.4369L247.118 53.4992C247.246 53.4715 247.37 53.4473 247.498 53.4126L247.533 53.842C247.678 53.842 247.812 53.8212 247.943 53.8212C248.006 53.8178 248.068 53.8178 248.13 53.8212C248.399 53.8212 248.634 53.8212 248.82 53.8212C248.748 53.6654 248.672 53.5027 248.61 53.3469ZM318.698 165.231C317.075 163.039 313.837 139.515 313.837 139.515C313.837 139.515 307.467 122.787 309.203 116.112C310.94 109.436 304.459 92.3555 304.459 92.3555C304.459 92.3555 300.178 90.4892 299.947 87.7192C299.947 87.7192 282.466 82.1792 281.648 78.0241C280.985 74.617 270.144 72.1725 266.249 71.4004C265.062 66.5944 263.867 62.1105 262.987 59.6625C262.748 58.9007 262.524 58.2428 262.317 57.7235C260.829 53.9147 256.23 53.5685 252.894 53.8732C252.75 53.224 252.481 52.6091 252.104 52.0623C252.049 51.8743 251.939 51.7068 251.79 51.581C251.718 51.5198 251.642 51.4642 251.562 51.4148C251.501 51.3026 251.422 51.2018 251.327 51.117C251.232 51.0314 251.128 50.9571 251.016 50.8954C250.936 50.8519 250.853 50.8137 250.768 50.7811C250.568 50.7047 250.361 50.6479 250.15 50.6115C249.904 50.5608 249.655 50.5284 249.404 50.5145C250.013 50.2472 250.557 49.8488 250.996 49.3477C251.294 48.9958 251.516 48.5854 251.648 48.1427C251.757 47.7745 251.806 47.391 251.793 47.007C251.704 47.1652 251.6 47.3148 251.482 47.4537C251.627 45.9198 250.819 44.3617 250.357 42.8347C249.796 40.8468 249.692 38.7573 250.053 36.7234C250.516 33.6556 251.662 30.5532 252.439 27.43C252.441 27.4127 252.441 27.3953 252.439 27.3781C252.846 25.827 253.098 24.2391 253.191 22.6379C253.326 19.4074 252.501 16.1838 251.175 13.2406C249.998 10.6334 248.261 8.06766 245.603 7.00813C243.628 6.20829 241.415 6.33641 239.288 6.20483C234.516 5.90706 229.966 4.22428 225.429 2.69385C220.892 1.16342 216.224 -0.228506 211.449 0.0381072C206.674 0.30472 201.761 2.61421 199.582 6.85232C198.892 8.175 198.495 9.64656 197.67 10.8896C196.123 13.2337 193.354 14.4075 191.044 16.0245C188.734 17.6415 186.701 19.9371 185.865 22.676C185.409 24.1516 185.345 25.721 185.679 27.2292C185.754 27.5698 185.851 27.9052 185.969 28.2333C186.296 29.1482 186.808 29.986 187.471 30.6951C187.971 31.2192 188.546 31.6661 189.176 32.0213C189.968 32.4616 190.816 32.7924 191.697 33.0046C191.666 33.1085 191.635 33.2193 191.6 33.3266C191.545 33.5032 191.496 33.6729 191.445 33.8633C191.331 34.2892 191.224 34.722 191.134 35.1583C191.13 35.1894 191.13 35.2207 191.134 35.2518C190.71 37.2213 190.497 39.2305 190.499 41.2454C190.498 42.1983 190.546 43.1506 190.644 44.0985C192.025 58.1494 203.591 69.2328 217.881 69.953C218.372 69.9773 218.865 69.9911 219.366 69.9911C219.594 69.9911 219.818 69.9911 220.057 69.9911C220.281 70.2889 220.502 70.5936 220.713 70.8914C220.923 71.1892 221.117 71.4939 221.3 71.7916L220.799 71.2723L220.298 70.8117C220.163 70.9986 220.011 71.1735 219.846 71.3346C219.52 71.2194 219.186 71.1246 218.848 71.0507C217.415 70.7321 215.233 70.6144 212.361 71.4835C209.719 72.2764 206.491 73.9072 202.714 77.0062L184.308 88.0862L174.351 94.1594L170.763 102.954C170.763 102.954 168.067 113.404 165.067 125.377C164.949 125.412 164.835 125.447 164.721 125.488C164.478 125.46 164.234 125.447 163.989 125.447C162.249 125.443 160.574 126.115 159.317 127.323C158.061 128.531 157.32 130.181 157.25 131.925C151.284 139.196 150.945 146.468 152.347 149.805C152.474 150.118 152.634 150.416 152.824 150.695C153.742 152.025 155.458 155.453 157.198 159.106C157.153 159.407 157.126 159.66 157.112 159.85C157.109 159.912 157.109 159.975 157.112 160.037C157.112 160.037 158.148 175.726 154.695 180.223C153.939 181.203 154.053 182.491 154.695 183.918C157.008 189.049 166.154 195.902 166.154 195.902C166.154 195.902 177.123 195.843 183.234 195.175C183.217 195.791 183.203 196.404 183.189 197.003C183.051 203.055 183.051 208.128 183.051 208.128L182.823 214.475C182.823 214.475 180.752 227.85 179.716 231.538C179.064 233.851 179.816 255.266 180.472 271.01H288.546C289.817 261.696 288.025 233.397 288.025 233.397C288.025 233.397 286.323 226.081 286.261 219.703C286.257 219.696 286.256 219.688 286.256 219.68C286.256 219.673 286.257 219.665 286.261 219.658C286.261 219.101 286.261 218.557 286.281 218.024L287.065 217.996L288.474 217.947H288.602C288.602 217.947 288.636 217.816 288.715 217.601C288.902 217.066 289.156 216.558 289.472 216.088C290.072 215.198 291.011 214.326 292.424 214.267C293.204 214.236 294.412 213.602 295.776 212.667C295.785 212.669 295.795 212.669 295.804 212.667C299.474 210.178 304.325 205.583 305.502 204.828C307.121 203.789 314.876 196.864 314.876 196.864C314.876 196.864 316.033 195.396 317.265 193.627L317.31 193.565C318.843 191.349 320.473 188.7 320.072 187.865C319.382 186.369 320.535 182.793 320.535 182.793C324.136 176.183 320.321 167.423 318.698 165.231ZM251.935 58.7311C251.968 58.8344 251.989 58.9413 251.997 59.0496C251.91 58.9353 251.824 58.8142 251.738 58.7034L251.655 58.5926L251.596 58.5095L251.728 58.3294C251.728 58.3294 251.728 58.3294 251.728 58.3536C251.819 58.4659 251.889 58.5938 251.935 58.7311ZM250.775 55.6633C250.398 55.7395 250.101 55.8087 249.908 55.8606C249.663 55.4244 249.428 54.9881 249.217 54.5449C249.771 54.8669 250.292 55.2414 250.775 55.6633ZM250.125 56.2104C250.124 56.2035 250.124 56.1965 250.125 56.1896L250.153 56.2104C250.295 56.3038 250.433 56.3939 250.561 56.4874C250.674 56.5705 250.778 56.6501 250.882 56.7332C250.813 56.8544 250.737 56.979 250.661 57.0794C250.54 56.889 250.426 56.7055 250.315 56.5151C250.246 56.4389 250.184 56.335 250.125 56.2104ZM248.054 51.9376C248.721 51.8716 249.393 51.8716 250.06 51.9376C250.153 51.9376 250.236 51.9549 250.319 51.9688C250.506 51.9978 250.69 52.0454 250.868 52.1107C251.276 52.6832 251.527 53.353 251.596 54.0532L251.41 54.0809L251.227 54.1155C250.882 54.1744 250.536 54.2333 250.267 54.2887L249.922 54.3614C249.463 54.4618 249.197 54.538 249.186 54.5414C249.141 54.4479 249.097 54.3614 249.048 54.2713C248.972 54.1225 248.893 53.9701 248.824 53.8212C248.755 53.6723 248.665 53.5027 248.593 53.3469C248.544 53.2638 248.51 53.1807 248.472 53.1045C248.472 53.0699 248.437 53.0422 248.423 53.0075C248.403 52.9708 248.386 52.9326 248.372 52.8933C248.161 52.4639 247.968 52.0346 247.781 51.6121C247.76 51.5706 247.743 51.5256 247.726 51.484L247.988 51.4667V51.5567L248.054 51.9376ZM165.678 266.731C165.65 261.575 165.277 255.997 164.241 250.762C163.799 248.535 163.344 246.309 162.881 244.121C162.764 243.574 162.65 243.033 162.536 242.493L161.472 242.635H161.376C158.476 228.92 155.444 216.836 155.444 216.836C155.444 216.836 149.423 193.779 150.12 191.941C150.21 191.702 150.096 191.058 149.841 190.112C148.384 184.87 142.3 170.425 140.173 165.487C140.173 165.466 140.156 165.442 140.149 165.425C139.804 164.597 139.555 164.04 139.479 163.877L139.98 156.509L140.007 156.066L140.073 155.124L140.045 155.1L140.073 154.663C140.073 154.663 134.818 150.342 125.917 147.222C125.572 147.098 125.206 146.977 124.844 146.859C125.289 143.878 125.879 140.512 126.649 137.233C126.722 136.904 126.801 136.586 126.884 136.264C126.957 135.941 127.039 135.63 127.122 135.315C127.253 134.802 127.395 134.297 127.54 133.798C128.02 133.646 128.493 133.476 128.959 133.296L129.139 133.227C134.881 130.986 139.619 126.735 142.475 121.26C145.332 115.785 146.113 109.458 144.675 103.449C143.855 100.042 142.341 96.841 140.228 94.0486C140.07 93.8339 139.9 93.6193 139.731 93.4081C139.562 93.1968 139.358 92.9614 139.168 92.7467C140.166 90.4718 141.344 88.3078 141.44 86.0952C141.458 85.815 141.458 85.5341 141.44 85.2539V85.2192C141.313 83.7961 140.684 82.3557 139.22 80.8426C137.083 78.6232 134.041 77.4978 131 76.9577C127.958 76.4175 124.857 76.4037 121.798 76.0401C116.726 75.4307 111.786 73.8622 106.714 73.3809C100.467 72.8008 94.1769 73.8753 88.4736 76.4972C84.6998 78.2284 80.8778 81.2547 80.6499 85.4062C80.4635 88.8376 82.8458 92.1269 82.245 95.5167C81.6477 98.8477 78.2641 101.469 78.5611 104.838C78.675 106.154 79.3483 107.331 80.1907 108.38C80.4807 108.726 80.788 109.072 81.1057 109.419C82.3348 110.724 83.6882 111.977 84.3753 113.622C84.4029 113.691 84.4305 113.761 84.4547 113.83C85.0382 115.454 84.7758 117.507 83.3326 118.439C83.3406 118.445 83.3466 118.453 83.3499 118.463C83.3706 118.49 83.3913 118.511 83.4086 118.539C83.4107 118.533 83.4107 118.527 83.4086 118.522C83.9203 119.13 84.61 119.561 85.38 119.754L85.6735 119.844C85.4352 120.104 85.2108 120.374 84.9829 120.658L84.8345 120.855C84.454 121.368 84.108 121.906 83.7987 122.465C83.6226 122.777 83.4534 123.089 83.3119 123.4C82.8386 124.35 82.496 125.36 82.2934 126.402C81.9239 128.694 82.4453 131.084 81.8859 133.327C81.1954 136.097 79.0099 138.223 77.7773 140.796C75.4433 145.643 76.7657 151.332 77.2353 156.685C77.874 163.957 76.8382 171.259 75.8059 178.482C75.2581 182.323 74.7102 186.167 74.1624 190.015C72.7814 199.674 71.4003 209.332 70.0193 218.99C69.5152 222.528 68.9179 226.261 66.5667 228.993H66.5908C66.5908 228.993 66.5908 229.014 66.5667 229.021C67.2725 229.33 68.0231 229.524 68.7901 229.595C71.8595 229.904 75.1119 228.415 77.874 226.787C80.0614 225.52 82.133 224.061 84.0646 222.428C83.7814 223.467 83.4776 224.599 83.1531 225.818C83.1541 225.829 83.1541 225.841 83.1531 225.852C79.255 240.741 72.9851 268.036 72.9851 268.036C72.9851 268.036 72.4154 269.224 71.6765 270.993H169.041C167.901 269.608 166.841 268.282 166.013 267.212L165.678 266.731ZM93.5869 129.061C93.6111 129.02 93.6283 128.982 93.6525 128.944C93.6525 129.055 93.6525 129.162 93.6525 129.266C93.6525 129.37 93.6525 129.463 93.6525 129.56C93.6525 129.657 93.6525 129.647 93.6525 129.695C93.6525 129.837 93.6214 129.979 93.5973 130.121C93.5973 130.121 93.5973 130.138 93.5973 130.152L93.9425 130.28L94.343 130.446C96.7092 131.384 99.1053 132.232 101.531 132.991C101.78 133.071 102.032 133.147 102.284 133.22L102.336 133.649C102.398 134.089 102.457 134.536 102.512 134.982C102.512 134.982 102.512 135.003 102.512 135.017C102.667 136.253 102.819 137.486 102.954 138.691C102.954 138.691 96.6148 136.267 96.6943 139.948C96.6906 140.013 96.6906 140.079 96.6943 140.145C96.6872 140.233 96.6872 140.321 96.6943 140.408C96.753 143.275 97.6472 144.975 97.8267 145.848C97.816 145.884 97.7971 145.917 97.7715 145.945C97.6183 146.279 97.5655 146.651 97.6196 147.015C97.6135 147.634 97.6621 148.253 97.7646 148.864C97.5781 148.978 97.3951 149.092 97.2122 149.21C97.074 149.296 96.9428 149.393 96.8082 149.49C95.9612 146.544 94.8531 143.679 93.4971 140.931C92.5476 138.971 91.4808 136.928 91.4911 134.778C91.4911 134.64 91.4912 134.498 91.5084 134.356C91.5469 133.732 91.6653 133.117 91.8606 132.524C91.94 132.299 92.0263 132.077 92.123 131.859C92.3486 131.341 92.601 130.835 92.8791 130.343C93.0586 130.017 93.2485 129.695 93.4315 129.37C93.4902 129.273 93.5455 129.172 93.6007 129.075L93.5869 129.061ZM248.61 53.3469C248.561 53.2638 248.527 53.1807 248.489 53.1045C248.489 53.0699 248.454 53.0422 248.441 53.0075C248.365 53.0431 248.288 53.0744 248.209 53.101C248.057 53.1599 247.902 53.2153 247.743 53.2603C247.584 53.3053 247.519 53.3295 247.398 53.3572L247.091 53.4369L247.118 53.4992C247.246 53.4715 247.37 53.4473 247.498 53.4126L247.533 53.842C247.678 53.842 247.812 53.8212 247.943 53.8212H248.13C248.399 53.8212 248.634 53.8212 248.82 53.8212C248.748 53.6654 248.672 53.5027 248.61 53.3469Z" fill="url(#paint1_linear_42_186)"/>
<path d="M173.17 104.204L171.098 105.122C171.098 105.122 157.595 157.731 157.595 161.983C157.595 166.235 186.228 189.894 186.228 189.894L190.695 159.653C190.695 159.653 184.28 90.3022 173.17 104.204Z" fill="#E8F5FF"/>
<path d="M235.977 87.4699L224.013 81.2096C223.343 78.3449 222.154 75.628 220.505 73.1939C218.755 70.6594 216.428 68.1698 213.528 66.8714C206.198 63.5751 244.532 46.2729 244.532 46.2729C245.136 48.3514 245.847 50.3971 246.662 52.4016C248.637 57.2906 251.914 63.6132 256.136 65.4137C263.314 68.478 235.977 87.4699 235.977 87.4699Z" fill="#FFC1C7"/>
<path opacity="0.1" d="M246.662 52.4016C245.024 58.1788 241.618 63.2939 236.925 67.0248C232.231 70.7556 226.488 72.9136 220.505 73.1939C218.755 70.6594 216.428 68.1698 213.528 66.8714C206.198 63.5751 244.532 46.2729 244.532 46.2729C245.136 48.3514 245.847 50.3971 246.662 52.4016Z" fill="black"/>
<path d="M247.74 43.6657C247.741 49.3316 246.067 54.8707 242.929 59.5824C239.791 64.2941 235.33 67.9667 230.111 70.1358C224.892 72.3048 219.148 72.8729 213.607 71.7681C208.065 70.6633 202.975 67.9353 198.98 63.9291C194.985 59.9229 192.264 54.8185 191.161 49.2614C190.059 43.7044 190.625 37.9443 192.787 32.7097C194.949 27.4751 198.611 23.0012 203.309 19.8537C208.007 16.7062 213.53 15.0266 219.18 15.0273C222.935 15.0099 226.656 15.7387 230.129 17.1717C233.601 18.6047 236.757 20.7135 239.412 23.3762C242.068 26.039 244.171 29.2029 245.6 32.6854C247.029 36.1679 247.757 39.8998 247.74 43.6657Z" fill="#FFC1C7"/>
<path d="M251.862 83.7927L244.073 102.019L237.202 114.117H215.209L208.794 97.5769L211.394 80.4237H228.191L239.036 79.8108L242.699 78.5851L245.06 79.9285L251.862 83.7927Z" fill="#575A89"/>
<path opacity="0.1" d="M249.179 59.4963C249.179 59.4963 254.037 60.535 249.687 64.1118C245.337 67.6885 230.328 79.0629 230.328 79.0629C230.328 79.0629 235.6 83.7719 234.509 89.2877L251.976 79.5234L255.083 63.9006C255.083 63.9006 255.432 59.2054 249.179 59.4963Z" fill="black"/>
<path opacity="0.1" d="M233.763 79.0629L222.653 80.9015C222.653 80.9015 224.945 89.4019 223.799 91.8153C223.765 91.8903 223.736 91.9678 223.713 92.0473L219.18 104.336L222.577 113.986L234.337 97.9024L230.328 91.8153C230.328 91.8153 234.564 86.1852 237.085 84.2324C239.605 82.2795 233.763 79.0629 233.763 79.0629Z" fill="black"/>
<path d="M233.763 78.5885L222.653 80.4236C222.653 80.4236 224.945 88.9241 223.799 91.3375C223.765 91.4125 223.736 91.49 223.713 91.5694L219.18 103.858L222.577 113.508L234.337 97.4141L230.328 91.3271C230.328 91.3271 234.564 85.697 237.085 83.7442C239.605 81.7913 233.763 78.5885 233.763 78.5885Z" fill="#DCE6F2"/>
<path d="M249.646 58.5786C249.646 58.5786 254.503 59.6174 250.15 63.1942C245.796 66.7709 230.328 79.0628 230.328 79.0628C230.328 79.0628 236.056 82.8543 234.968 88.3666L252.435 78.6058L255.543 62.983C255.543 62.983 255.888 58.2878 249.646 58.5786Z" fill="#575A89"/>
<path opacity="0.1" d="M221.268 74.2777C221.268 74.2777 222.328 76.2652 227.007 79.8489C227.007 79.8489 219.218 84.0039 222.197 89.8451L210.282 86.7289L208.449 80.9846L221.268 74.2777Z" fill="black"/>
<path d="M220.809 73.8207C220.809 73.8207 221.869 75.8082 226.547 79.3919C226.547 79.3919 218.758 83.5261 221.738 89.3847L209.826 86.2684L207.993 80.5276L220.809 73.8207Z" fill="#575A89"/>
<path opacity="0.1" d="M251.862 83.7926L244.073 102.019L237.216 114.117H215.209L208.794 97.5769L211.39 80.4236H216.062C215.986 84.4263 217.443 89.1283 217.35 90.8769C217.191 93.7508 221.624 109.256 221.624 109.256C221.624 109.256 230.901 94.2078 234.564 92.8679C236.867 92.0265 241.746 85.0253 245.057 79.9285L251.862 83.7926Z" fill="black"/>
<path d="M282.546 179.708L281.755 180.705C281.755 180.705 287.483 209.537 285.898 216.085C285.629 217.265 285.475 218.469 285.439 219.679V219.731C285.159 226.393 287.165 235.038 287.165 235.038C287.165 235.038 288.767 260.523 287.856 271.004H180.61C179.982 255.505 179.305 235.426 179.92 233.2C180.956 229.526 183.027 216.199 183.027 216.199L183.255 209.883C183.255 209.883 183.255 203.779 183.441 196.979C183.521 193.921 183.638 190.711 183.807 187.865C184.025 184.285 184.329 181.269 184.747 179.787C185.004 178.664 185.152 177.518 185.188 176.366C185.188 176.259 185.188 176.148 185.209 176.037C185.209 175.691 185.244 175.317 185.257 174.933C185.257 174.825 185.257 174.718 185.257 174.587C185.323 172.357 185.299 169.711 185.226 166.969C185.226 166.82 185.226 166.668 185.226 166.515C185.168 164.459 185.081 162.36 184.985 160.366C184.684 154.134 184.294 148.864 184.294 148.864L171.122 105.098L174.672 96.3304L184.522 90.278L202.735 79.2499C211.618 71.9267 217.467 72.8062 219.697 73.6095C219.914 73.6836 220.126 73.7703 220.333 73.8692C220.402 73.9038 220.457 73.9315 220.509 73.9626C220.58 73.9963 220.648 74.0357 220.712 74.0804C220.102 74.375 219.571 74.8134 219.166 75.358C218.709 75.9779 218.384 76.6849 218.209 77.4355C218.093 77.9008 218.011 78.3742 217.964 78.8517C217.919 79.3538 217.902 79.8732 217.902 80.396C217.927 81.5426 218.025 82.6864 218.196 83.8204C218.196 83.8412 218.196 83.8689 218.196 83.8966C218.309 84.7068 218.451 85.4997 218.589 86.2442C218.588 86.2568 218.588 86.2696 218.589 86.2823C218.748 87.1513 218.907 87.9546 219.014 88.6471C219.035 88.7718 219.052 88.8861 219.069 88.9934C219.145 89.451 219.181 89.9145 219.176 90.3784C219.215 91.4986 219.365 92.6122 219.625 93.7024C219.715 94.1595 219.818 94.6477 219.932 95.1567C220.088 95.8492 220.257 96.604 220.44 97.3727C220.54 97.7951 220.647 98.2314 220.757 98.6642C220.799 98.8373 220.844 99.0104 220.885 99.187L220.954 99.4606C221.69 102.393 222.487 105.312 222.977 107.078C223.267 108.117 223.45 108.757 223.45 108.757C223.45 108.757 228.65 100.326 232.8 95.5271C232.862 95.4579 232.918 95.3921 232.976 95.3298C233.387 94.8554 233.791 94.4226 234.178 94.0417C235.024 93.1969 235.783 92.5944 236.394 92.3728C236.525 92.3249 236.651 92.2658 236.771 92.1962C238.469 91.2302 241.211 87.7226 243.776 84.0489C244.028 83.7027 244.273 83.3253 244.522 82.9686C245.091 82.1446 245.644 81.317 246.165 80.5241C246.566 79.9182 246.949 79.3295 247.312 78.7686C249.038 76.0748 250.253 74.0665 250.253 74.0665L252.649 73.9592L253.067 73.9384H253.347L264.226 73.4329C264.226 73.4329 264.695 73.5125 265.469 73.6683C265.51 73.6683 265.552 73.6683 265.597 73.696C269.457 74.4647 280.181 76.8989 280.837 80.2748C281.638 84.409 298.935 89.9248 298.935 89.9248C299.163 92.6948 303.399 94.5196 303.399 94.5196C303.399 94.5196 309.814 111.52 308.098 118.182C306.403 124.761 312.511 141.035 312.673 141.492L311.503 142.974L282.546 179.708Z" fill="#E8F5FF"/>
<path opacity="0.1" d="M249.176 58.2879C249.176 58.2879 259.765 55.2755 262.172 61.4769C264.578 67.6782 269.961 92.7225 269.961 92.7225C269.961 92.7225 255.985 95.3644 252.321 92.7225C250.173 91.1546 247.513 90.4572 244.874 90.7697L236.971 96.1677L234.637 95.4752C234.637 95.4752 247.28 76.6253 250.029 70.2197C252.777 63.8141 253.706 60.9506 249.176 58.2879Z" fill="black"/>
<path d="M248.717 56.9029C248.717 56.9029 259.313 53.8905 261.73 60.0919C264.147 66.2932 269.519 91.3375 269.519 91.3375C269.519 91.3375 255.546 93.9794 251.879 91.3375C249.732 89.7695 247.073 89.0721 244.435 89.3847L236.526 94.7827L234.192 94.0902C234.192 94.0902 246.835 75.2403 249.583 68.8347C252.332 62.429 253.247 59.5725 248.717 56.9029Z" fill="#E8F5FF"/>
<path opacity="0.1" d="M177.638 156.813C177.638 156.813 185.541 158.766 187.032 163.247C188.524 167.727 181.19 167.842 181.19 167.842C181.19 167.842 176.723 159.916 177.638 156.813Z" fill="black"/>
<path opacity="0.1" d="M207.075 189.894C207.075 189.894 187.719 229.64 192.187 233.432C196.655 237.223 207.075 189.894 207.075 189.894Z" fill="black"/>
<path opacity="0.1" d="M233.763 160.605C233.763 160.605 249.228 199.212 246.134 205.174C243.041 211.137 252.777 205.174 252.777 205.174L233.763 160.605Z" fill="black"/>
<path d="M255.297 198.741C255.297 198.741 203.066 201.269 218.303 217.58C233.539 233.892 264.806 218.273 264.806 218.273L255.297 198.741Z" fill="#FFC1C7"/>
<path opacity="0.1" d="M247.74 43.6657C247.744 47.4226 247.009 51.1434 245.575 54.6142C245.095 54.6696 244.615 54.7042 244.152 54.725C243.462 53.2049 243.831 51.4494 243.845 49.777C243.859 48.1046 243.244 46.1379 241.639 45.6878C238.438 44.7841 236.229 50.7846 233.073 49.7009C230.656 48.8768 231.288 45.1996 229.896 43.0771C228.795 41.3978 226.589 40.9234 224.873 39.8708C221.223 37.6236 221.334 34.0295 219.639 30.6294C217.864 27.0664 214.114 28.1191 210.859 30.2208C208.387 31.8205 206.253 33.9638 203.608 35.238C201.319 36.346 198.747 36.7476 196.209 36.8065C194.647 36.8672 193.084 36.7016 191.569 36.3148C193.351 29.5954 197.509 23.7555 203.268 19.8841C209.027 16.0126 215.994 14.374 222.869 15.2738C229.744 16.1735 236.058 19.5502 240.633 24.7742C245.208 29.9981 247.733 36.7127 247.736 43.6657H247.74Z" fill="black"/>
<path d="M210.869 29.3032C208.394 30.9028 206.263 33.0427 203.619 34.3238C201.33 35.4283 198.757 35.83 196.22 35.8889C193.112 35.9581 189.767 35.411 187.643 33.1604C185.693 31.0829 185.226 27.887 186.052 25.162C186.877 22.437 188.855 20.176 191.179 18.5382C193.502 16.9005 196.199 15.7682 197.739 13.4241C198.554 12.1845 198.947 10.7234 199.624 9.40414C201.789 5.18335 206.657 2.89809 211.363 2.61417C216.069 2.33024 220.733 3.73602 225.215 5.25952C229.696 6.78302 234.212 8.45888 238.942 8.77397C241.049 8.90554 243.237 8.77396 245.192 9.5738C247.819 10.6437 249.542 13.2025 250.716 15.8063C252.031 18.7425 252.85 21.9488 252.711 25.1551C252.421 32.0005 247.912 38.7177 249.894 45.2757C250.419 47.0243 251.403 48.8179 250.878 50.5664C250.112 53.1183 246.828 53.7 244.173 53.8212C243.483 52.3011 243.852 50.5422 243.866 48.8733C243.88 47.2043 243.265 45.2342 241.663 44.784C238.459 43.8872 236.249 49.8774 233.101 48.7971C230.701 47.9695 231.322 44.2958 229.928 42.1733C228.826 40.4905 226.617 40.0196 224.904 38.967C221.255 36.7199 221.365 33.1258 219.67 29.7256C217.881 26.1454 214.128 27.198 210.869 29.3032Z" fill="#99607E"/>
<path d="M160.223 161.062L157.588 161.983C157.588 161.983 158.624 177.606 155.171 182.086C151.719 186.567 166.51 197.706 166.51 197.706C166.51 197.706 186.784 197.591 187.357 195.974C187.93 194.357 186.321 167.028 186.321 167.028C186.321 167.028 175.438 162.776 176.353 156C176.353 156 173.032 171.965 168.108 171.276C163.185 170.587 157.595 166.463 160.223 161.062Z" fill="#E8F5FF"/>
<path opacity="0.1" d="M169.009 176.11C172.848 176.11 175.96 173.256 175.96 169.736C175.96 166.215 172.848 163.361 169.009 163.361C165.171 163.361 162.059 166.215 162.059 169.736C162.059 173.256 165.171 176.11 169.009 176.11Z" fill="black"/>
<path d="M176.609 161.523C176.609 161.523 175.228 119.252 163.206 128.67C151.184 138.088 151.066 149.352 153.355 152.679C155.644 156.007 162.985 172.665 162.985 172.665C164.133 173.332 165.422 173.717 166.748 173.788C168.073 173.86 169.396 173.615 170.608 173.074C171.821 172.534 172.889 171.713 173.724 170.679C174.56 169.645 175.139 168.427 175.414 167.125L176.609 161.523Z" fill="#FFC1C7"/>
<path opacity="0.1" d="M251.603 54.4513C251.547 54.2656 251.439 54.0998 251.292 53.9735C250.699 53.4299 249.421 53.2395 247.495 53.4057L247.574 54.3198C250.143 54.0982 250.65 54.6106 250.716 54.6972V54.7837L250.795 54.898C251.116 55.3297 251.342 55.8237 251.461 56.3484C251.58 56.8731 251.589 57.4169 251.486 57.945C250.923 60.767 247.467 63.0141 247.432 63.0384L247.349 63.0868L247.298 63.1665C245.806 65.3859 237.371 71.6496 235.165 73.2701L234.972 73.0485C233.984 73.9072 225.304 81.5281 224.835 84.447C224.531 86.2787 222.473 86.9885 221.728 87.1859C220.94 86.5869 218.385 84.5474 217.056 82.2622C215.81 80.112 220.826 75.9154 221.268 74.2777L220.578 73.5678C220.505 73.831 214.063 79.8696 215.855 82.9547C217.291 85.4304 219.915 87.5494 220.833 88.2489C220.54 90.9219 218.713 106.617 215.906 110.336C212.419 114.959 209.488 138.254 209.813 146.388C210.099 153.614 208.217 167.263 201.934 173.125C200.846 174.185 199.533 174.984 198.094 175.464C196.655 175.943 195.127 176.091 193.623 175.895H193.547H193.471C193.381 175.895 184.267 176.83 176.609 170.355C170.342 165.068 166.793 156.439 166.054 144.702H165.902L165.84 141.284C167.539 141.018 169.069 140.102 170.109 138.728C171.149 137.355 171.617 135.631 171.416 133.918C171.214 132.205 170.359 130.637 169.029 129.544C167.699 128.451 165.998 127.917 164.284 128.054C162.57 128.192 160.976 128.991 159.836 130.283C158.697 131.575 158.102 133.259 158.175 134.982C158.248 136.705 158.984 138.332 160.229 139.523C161.473 140.713 163.129 141.373 164.849 141.364H164.925L164.987 144.76L164.683 144.781C165.443 156.9 169.172 165.864 175.732 171.401C180.718 175.544 187.087 177.635 193.551 177.249C194.009 177.299 194.47 177.325 194.932 177.325C197.895 177.341 200.745 176.191 202.873 174.122C209.491 167.942 211.504 153.791 211.19 146.319C210.845 137.7 213.921 115.243 217.008 111.153C220.032 107.14 221.866 91.5036 222.187 88.4739C223.281 88.1658 225.757 87.1928 226.178 84.6652C226.482 82.837 232.279 77.2035 235.845 74.0838L235.738 73.9591C237.658 72.5533 243.628 68.1213 246.586 65.2751C247.505 64.3922 248.416 63.5093 249.369 62.6679C250.516 61.6499 251.973 60.0329 252.356 58.1216C252.486 57.4907 252.487 56.8396 252.358 56.2085C252.228 55.5773 251.971 54.9793 251.603 54.4513Z" fill="black"/>
<path d="M220.716 88.0307C220.571 87.9303 217.132 85.4615 215.409 82.4907C213.621 79.4056 220.063 73.3705 220.132 73.1073L220.823 73.8171C220.384 75.4514 215.368 79.6514 216.614 81.7982C218.185 84.5093 221.493 86.8812 221.527 86.9054L220.716 88.0307Z" fill="#353146"/>
<path d="M234.716 73.9419L234.178 73.1974C234.288 73.1178 245.133 65.251 246.842 62.706L246.897 62.6298L246.977 62.5779C247.011 62.5537 250.467 60.31 251.03 57.4846C251.134 56.957 251.126 56.4135 251.007 55.8893C250.888 55.365 250.661 54.8716 250.339 54.441L250.26 54.3233V54.2402C250.191 54.1502 249.683 53.6412 247.115 53.8628L247.035 52.9452C248.965 52.779 250.239 52.9695 250.833 53.5131C250.981 53.6406 251.09 53.8075 251.147 53.9944C251.521 54.5208 251.783 55.1184 251.917 55.7502C252.051 56.382 252.055 57.0347 251.928 57.6681C251.544 59.5828 250.091 61.1998 248.941 62.2143C247.992 63.0557 247.077 63.9456 246.162 64.8216C242.692 68.156 235.096 73.6683 234.716 73.9419Z" fill="#E8F5FF"/>
<path d="M165.394 140.079L164.48 140.095L164.582 145.673L165.496 145.656L165.394 140.079Z" fill="#E8F5FF"/>
<path d="M164.404 140.924C168.093 140.924 171.085 137.924 171.085 134.224C171.085 130.524 168.093 127.524 164.404 127.524C160.714 127.524 157.723 130.524 157.723 134.224C157.723 137.924 160.714 140.924 164.404 140.924Z" fill="#429B9C"/>
<path d="M164.404 139.788C167.468 139.788 169.952 137.297 169.952 134.224C169.952 131.151 167.468 128.66 164.404 128.66C161.339 128.66 158.855 131.151 158.855 134.224C158.855 137.297 161.339 139.788 164.404 139.788Z" fill="#E8F5FF"/>
<path d="M194.497 176.879C194.035 176.879 193.574 176.855 193.116 176.806C186.652 177.188 180.285 175.098 175.297 170.958C168.737 165.418 165.015 156.464 164.248 144.335L165.629 144.248C166.368 155.986 169.918 164.618 176.187 169.902C183.845 176.359 192.957 175.442 193.047 175.442H193.123H193.199C194.703 175.636 196.231 175.488 197.671 175.009C199.11 174.529 200.423 173.73 201.512 172.672C207.793 166.81 209.674 153.16 209.388 145.934C209.043 137.794 211.974 114.498 215.465 109.879C218.52 105.831 220.416 87.5875 220.436 87.404L220.488 86.8847L220.999 86.7946C221.03 86.7946 224.013 86.2268 224.386 83.99C224.87 81.0746 233.536 73.4536 234.52 72.5914L235.421 73.6302C231.84 76.7464 226.043 82.3834 225.753 84.2151C225.332 86.7496 222.857 87.7191 221.766 88.0238C221.42 91.057 219.601 106.69 216.587 110.703C213.5 114.792 210.424 137.25 210.769 145.868C211.066 153.341 209.074 167.495 202.455 173.672C200.324 175.746 197.466 176.897 194.497 176.879Z" fill="#353146"/>
<g opacity="0.1">
<path d="M250.681 35.4803C251.248 33.382 251.931 31.2699 252.408 29.1439C251.838 31.2803 251.151 33.382 250.681 35.4803Z" fill="black"/>
<path d="M244.905 51.9688C244.215 50.4487 244.584 48.6898 244.598 47.0208C244.612 45.3519 243.997 43.3991 242.395 42.9316C239.191 42.0348 236.981 48.0284 233.832 46.9447C231.416 46.1171 232.054 42.4434 230.66 40.3209C229.558 38.6381 227.352 38.1672 225.639 37.1146C221.987 34.8674 222.097 31.2734 220.405 27.8732C218.627 24.3068 214.881 25.3594 211.622 27.4646C209.146 29.0643 207.016 31.2076 204.371 32.4852C202.082 33.5898 199.51 33.9914 196.972 34.0503C193.882 34.123 190.519 33.5725 188.396 31.3218C186.759 29.5906 186.169 27.0526 186.507 24.6738C186.449 24.8366 186.397 24.9993 186.345 25.162C185.516 27.887 186 31.0899 187.937 33.1604C190.06 35.4111 193.423 35.9581 196.513 35.8889C199.054 35.83 201.623 35.4284 203.915 34.3238C206.567 33.0427 208.697 30.9029 211.166 29.3032C214.425 27.198 218.175 26.1454 219.949 29.7118C221.641 33.112 221.534 36.706 225.184 38.9532C226.91 39.992 229.102 40.4767 230.207 42.1595C231.588 44.2889 230.977 47.9557 233.38 48.7833C236.526 49.8636 238.735 43.8734 241.939 44.7702C243.541 45.2203 244.159 47.194 244.142 48.8594C244.125 50.5249 243.766 52.2873 244.449 53.8074C247.104 53.6862 250.388 53.1149 251.158 50.5526C251.264 50.1849 251.313 49.803 251.303 49.4204C250.181 51.3628 247.294 51.8614 244.905 51.9688Z" fill="black"/>
</g>
<path opacity="0.1" d="M307.304 137.285L311.313 141.537C311.313 141.537 314.52 164.968 316.122 167.159C317.724 169.351 321.509 178.07 317.956 184.617C317.956 184.617 316.809 188.18 317.497 189.673C318.184 191.165 312.345 198.634 312.345 198.634C312.345 198.634 304.67 205.524 303.065 206.559C301.459 207.595 292.986 215.863 290.124 215.977C287.262 216.092 286.326 219.654 286.326 219.654L270.175 220.229C270.175 220.229 261.253 219.762 259.313 221.026C259.313 221.026 260.349 207.356 250.381 198.395L263.094 193.8C263.094 193.8 267.907 191.722 269.395 189.551C270.331 188.22 271.659 187.217 273.192 186.681C273.192 186.681 276.742 184.153 276.856 182.775C276.97 181.397 281.196 179.708 281.196 179.708L278.803 159.227L280.063 125.225C280.063 125.225 284.072 96.7355 292.548 98.3455C301.024 99.9556 307.304 137.285 307.304 137.285Z" fill="black"/>
<path d="M308.685 137.285L312.694 141.537C312.694 141.537 315.901 164.968 317.503 167.159C319.105 169.351 322.889 178.07 319.337 184.617C319.337 184.617 318.194 188.18 318.881 189.673C319.568 191.165 313.726 198.634 313.726 198.634C313.726 198.634 306.051 205.524 304.446 206.559C302.84 207.595 294.367 215.863 291.505 215.977C288.643 216.092 287.707 219.654 287.707 219.654L271.556 220.229C271.556 220.229 262.627 219.762 260.694 221.026C260.694 221.026 261.73 207.356 251.762 198.395L264.475 193.8C264.475 193.8 269.287 191.722 270.776 189.551C271.712 188.22 273.04 187.217 274.573 186.681C274.573 186.681 278.123 184.153 278.237 182.775C278.351 181.397 282.577 179.708 282.577 179.708L280.184 159.227L281.444 125.225C281.444 125.225 285.453 96.7355 293.929 98.3455C302.405 99.9556 308.685 137.285 308.685 137.285Z" fill="#E8F5FF"/>
<path opacity="0.1" d="M293.784 171.633C293.784 171.633 305.582 168.517 308.675 172.325C311.769 176.134 293.784 171.633 293.784 171.633Z" fill="black"/>
<path opacity="0.1" d="M291.036 176.858C295.044 179.673 307.415 179.787 307.415 179.787L291.036 176.858Z" fill="black"/>
<path opacity="0.1" d="M297.105 190.93C297.451 191.044 305.609 199.776 309.034 197.134C312.459 194.492 297.105 190.93 297.105 190.93Z" fill="black"/>
<path opacity="0.1" d="M187.229 117.642C187.229 117.642 189.625 134.186 188.444 140.924C187.264 147.662 191.572 156.01 191.572 156.01L187.229 117.642Z" fill="black"/>
<path d="M134.183 124.37C131.421 126.541 129.404 131.679 127.944 137.326C125.396 147.177 124.564 158.6 124.564 158.6C124.564 158.6 102.571 153.545 104.173 151.249C105.181 149.805 103.827 138.926 102.698 131.039C102.025 126.378 101.424 122.76 101.424 122.76C101.424 122.76 141.744 118.393 134.183 124.37Z" fill="#FFCCD0"/>
<path opacity="0.1" d="M134.183 123.909C131.421 126.084 129.404 131.219 127.944 136.866C123.562 138.2 118.902 138.321 114.457 137.214C110.013 136.108 105.949 133.816 102.698 130.582C102.025 125.918 101.424 122.299 101.424 122.299C101.424 122.299 141.744 117.936 134.183 123.909Z" fill="black"/>
<path d="M146.005 111.534C146.007 117.557 143.885 123.386 140.013 127.99C136.142 132.594 130.772 135.676 124.852 136.691C118.933 137.706 112.847 136.588 107.67 133.535C102.494 130.482 98.561 125.691 96.5682 120.01C94.5754 114.329 94.651 108.124 96.7814 102.493C98.9119 96.8624 102.96 92.1691 108.209 89.2439C113.458 86.3186 119.57 85.35 125.463 86.5094C131.356 87.6688 136.65 90.8816 140.408 95.579C144.029 100.104 146.004 105.732 146.005 111.534Z" fill="#FFCCD0"/>
<path opacity="0.1" d="M166.057 271.003H158.807L158.196 258.161L157.557 244.868C157.557 244.868 159.204 244.623 161.828 244.256L162.888 244.114H162.974C163.547 246.811 164.114 249.581 164.659 252.347C165.567 257.259 166.04 262.241 166.071 267.236C166.071 267.583 166.071 267.929 166.071 268.254C166.092 269.179 166.071 270.103 166.057 271.003Z" fill="black"/>
<path d="M164.666 271.004H73.7377C74.1313 270.107 74.3937 269.563 74.3937 269.563C74.3937 269.563 81.6683 237.646 85.3661 224.142C85.3672 224.13 85.3672 224.119 85.3661 224.107C85.8281 222.273 86.3859 220.464 87.0372 218.688C87.0793 218.568 87.1336 218.452 87.1995 218.342C89.0293 215.358 91.3219 212.141 88.1144 207.546C84.9069 202.951 86.0428 182.734 86.0428 182.734C86.0428 182.734 89.9374 165.501 94.0598 156.311C94.6854 154.888 95.5734 153.596 96.6769 152.503C97.0357 152.151 97.4187 151.824 97.8232 151.526C98.1307 151.295 98.4511 151.081 98.783 150.886L98.8486 150.844C100.58 149.859 102.503 149.261 104.487 149.089C105.896 148.941 107.318 148.981 108.716 149.206C115.4 150.19 120.752 151.834 125.006 153.708C136.534 158.787 140.025 165.594 140.094 165.736L140.121 165.795C140.584 166.879 147.351 182.723 149.789 190.116C150.42 192.041 150.766 193.395 150.628 193.765C149.937 195.6 155.896 218.574 155.896 218.574C155.896 218.574 158.658 229.654 161.421 242.642C161.541 243.182 161.655 243.722 161.766 244.269C162.26 246.627 162.75 249.03 163.223 251.43C164.139 256.375 164.612 261.393 164.635 266.423C164.686 267.99 164.696 269.517 164.666 271.004Z" fill="#FF748E"/>
<path opacity="0.1" d="M103.945 141.187C103.945 141.187 97.6713 138.763 97.7473 142.441C97.8232 146.118 99.2768 147.877 98.8176 148.413C98.3584 148.95 99.0455 152.167 99.0455 152.167C99.0455 152.167 107.522 152.167 111.416 153.926C115.311 155.685 129.667 159.21 131.5 160.283C133.333 161.356 140.132 166.169 140.132 166.169L140.743 157.056C140.743 157.056 133.717 151.235 122.188 148.251C110.66 145.266 103.945 141.187 103.945 141.187Z" fill="black"/>
<path d="M103.945 140.727C103.945 140.727 97.6713 138.303 97.7473 141.98C97.8232 145.657 99.2768 147.416 98.8176 147.953C98.3584 148.49 99.0455 151.706 99.0455 151.706C99.0455 151.706 107.522 151.706 111.416 153.469C115.311 155.231 129.667 158.752 131.5 159.822C133.333 160.892 140.132 165.709 140.132 165.709L140.75 156.623C140.75 156.623 133.724 150.803 122.195 147.818C110.667 144.833 103.945 140.727 103.945 140.727Z" fill="#FF748E"/>
<path opacity="0.1" d="M122.882 162.658C122.882 162.658 134.87 175.674 134.259 179.278C133.648 182.883 122.882 162.658 122.882 162.658Z" fill="black"/>
<path opacity="0.1" d="M103.41 209.676C103.41 209.676 94.6226 217.795 92.0332 218.256C89.4437 218.716 94.0184 220.247 96.9946 219.024C99.9707 217.802 106.317 214.585 106.317 214.585L103.41 209.676Z" fill="black"/>
<path d="M168.236 271.003H147.745C144.879 268.51 142.169 266.201 140.442 264.813C137.68 262.59 135.688 259.318 134.418 256.686C134.131 256.087 133.882 255.526 133.672 255.017C133.295 254.14 132.963 253.245 132.677 252.334L147.852 243.297C148.69 244.012 149.478 244.785 150.21 245.609L150.393 245.821C151.235 246.818 151.978 247.95 152.043 248.878C152.119 249.958 155.116 254.138 158.179 258.151C161.286 262.233 164.469 266.135 164.68 266.398C164.68 266.398 165.205 267.115 166.061 268.216C166.665 269.013 167.411 269.968 168.236 271.003Z" fill="#FFCCD0"/>
<path opacity="0.1" d="M140.408 95.579C139.679 97.2271 139.027 98.9376 138.93 100.773C138.657 106.07 139.099 117.916 133.251 120.575C130.354 121.884 127.253 119.01 124.077 118.941C121.791 118.892 119.696 120.346 118.301 122.164C116.906 123.982 116.039 126.139 115.028 128.196C114.107 130.063 113.046 131.857 111.855 133.563C111.499 134.085 111.106 134.581 110.681 135.048C107.114 133.539 103.939 131.233 101.395 128.307C98.8522 125.38 97.0087 121.91 96.0053 118.161C95.0019 114.412 94.8651 110.482 95.6054 106.672C96.3457 102.862 97.9435 99.2712 100.277 96.174C102.611 93.0768 105.618 90.5546 109.071 88.7997C112.524 87.0448 116.33 86.1035 120.201 86.0475C124.071 85.9914 127.903 86.8221 131.405 88.4763C134.907 90.1305 137.986 92.5645 140.408 95.5928V95.579Z" fill="black"/>
<path d="M138.471 99.8379C138.195 105.136 138.64 116.981 132.788 119.637C129.891 120.945 126.791 118.075 123.614 118.006C121.329 117.954 119.236 119.411 117.838 121.226C116.44 123.04 115.58 125.201 114.565 127.261C113.644 129.128 112.583 130.922 111.392 132.628C110.681 133.639 109.894 134.653 108.799 135.221C106.893 136.218 104.583 135.658 102.54 135.017C99.8879 134.179 97.2754 133.235 94.7021 132.185C94.7611 131.795 94.7911 131.401 94.7918 131.007C94.7159 131.153 94.633 131.288 94.5502 131.433L94.3879 131.717C94.0944 132.237 93.8078 132.756 93.5454 133.289C93.4453 133.493 93.3486 133.705 93.2623 133.916C92.9151 134.702 92.6971 135.539 92.6167 136.395C92.4406 138.705 93.5765 140.896 94.5847 142.974C98.462 151.01 100.858 160.408 97.9406 168.839C96.677 172.506 94.488 175.764 92.8894 179.306C90.095 185.58 89.2725 192.558 90.5313 199.312C91.3289 203.509 92.9274 207.664 92.5338 211.919C91.8433 219.242 85.5457 224.692 79.2378 228.439C75.83 230.454 71.6592 232.248 68.0409 230.655C70.3472 227.954 70.9411 224.218 71.4383 220.693C72.7986 211.079 74.1624 201.46 75.5296 191.837C76.0752 188.007 76.6195 184.178 77.1627 180.348C78.1778 173.153 79.2067 165.878 78.5714 158.638C78.1088 153.302 76.8037 147.638 79.11 142.808C80.3288 140.249 82.5005 138.13 83.1772 135.374C83.7331 133.133 83.2152 130.751 83.5812 128.469C83.7815 127.431 84.1206 126.425 84.5893 125.478C85.1862 124.192 85.9654 123.001 86.9026 121.939C85.9773 121.669 85.1141 121.299 84.5893 120.523C86.074 119.553 86.2984 117.369 85.6251 115.727C84.9519 114.086 83.6053 112.836 82.3935 111.541C81.1816 110.246 80.0146 108.737 79.8627 106.971C79.5692 103.609 82.9183 101.005 83.5087 97.6877C84.106 94.3118 81.7444 91.0293 81.9343 87.6118C82.1552 83.481 85.9393 80.479 89.6751 78.7374C95.3125 76.1203 101.54 75.0451 107.725 75.6211C112.759 76.099 117.631 77.6606 122.651 78.2665C125.679 78.6127 128.748 78.6474 131.756 79.1806C134.763 79.7138 137.777 80.8391 139.893 83.0517C145.473 88.886 138.789 93.6885 138.471 99.8379Z" fill="#FFE0D0"/>
<path opacity="0.1" d="M133.803 256.689C132.042 255.924 128.838 256.381 123.338 254.702C117.838 253.023 116.778 245.433 116.778 245.433V245.409C116.713 245.235 116.202 244.107 112.742 240.153C108.92 235.786 100.658 213.734 100.658 213.734C100.658 213.734 93.3314 205.843 93.5627 202.934C93.794 200.026 92.261 192.287 92.413 183.631C92.5649 174.974 108.906 169.233 108.906 169.233C140.37 163.642 132.961 200.019 132.122 202.775C131.283 205.531 135.636 212.975 135.636 212.975C135.022 216.216 138.157 221.233 138.157 221.233C138.157 221.233 138.916 225.672 139.072 227.359C139.08 227.436 139.098 227.513 139.124 227.587C139.628 229.176 143.736 230.617 145.407 231.493C147.165 232.414 152.817 240.454 152.817 240.454C154.035 246.357 135.557 257.465 133.803 256.689Z" fill="black"/>
<path d="M134.718 255.304C132.961 254.536 129.753 254.996 124.256 253.314C118.76 251.631 117.697 244.048 117.697 244.048V244.024C117.634 243.847 117.12 242.722 113.66 238.768C109.838 234.401 101.576 212.345 101.576 212.345C101.576 212.345 94.2497 204.458 94.4776 201.549C94.7055 198.641 93.1794 190.902 93.3313 182.253C93.4833 173.603 109.814 167.866 109.814 167.866C141.278 162.274 133.869 198.651 133.03 201.407C132.191 204.163 136.544 211.608 136.544 211.608C135.93 214.849 139.065 219.866 139.065 219.866C139.065 219.866 139.824 224.305 139.983 225.991C139.989 226.069 140.005 226.146 140.032 226.219C140.536 227.809 144.644 229.249 146.319 230.125C148.073 231.043 153.728 239.086 153.728 239.086C154.954 244.979 136.475 256.087 134.718 255.304Z" fill="#FF748E"/>
<path opacity="0.1" d="M110.436 186.858C110.436 186.858 124.181 201.4 127.768 201.4C131.355 201.4 110.436 186.858 110.436 186.858Z" fill="black"/>
<path d="M134.718 255.304C132.961 254.536 129.753 254.996 124.257 253.314C118.76 251.631 117.697 244.048 117.697 244.048V244.024C121.339 241.6 130.564 234.754 134.2 232.251C136.758 230.496 138.847 227.916 140.07 226.206C140.574 227.795 144.682 229.235 146.357 230.111C148.111 231.029 153.766 239.072 153.766 239.072C154.954 244.979 136.475 256.087 134.718 255.304Z" fill="#FF748E"/>
<g opacity="0.1">
<path d="M84.61 120.561C84.6272 120.589 84.6514 120.613 84.6721 120.641C84.7757 120.509 84.8827 120.378 84.9932 120.253C84.8756 120.368 84.7472 120.471 84.61 120.561Z" fill="black"/>
<path d="M92.6201 136.433C92.7652 134.512 93.7906 132.818 94.7504 131.129C94.122 130.886 93.4936 130.64 92.8722 130.384C92.9314 129.996 92.9614 129.603 92.9619 129.21C91.9918 130.942 90.9353 132.645 90.7868 134.595C90.6107 136.908 91.7466 139.096 92.7548 141.173C96.6355 149.206 99.0282 158.604 96.1107 167.038C94.8436 170.702 92.6581 173.963 91.0595 177.505C88.2661 183.778 87.4448 190.756 88.7049 197.508C89.4955 201.708 91.0975 205.86 90.7039 210.115C90.0134 217.439 83.7193 222.889 77.4079 226.632C74.8288 228.162 71.8146 229.564 68.9317 229.464C68.6648 229.895 68.3671 230.305 68.0409 230.693C71.6627 232.296 75.83 230.492 79.2378 228.47C85.5526 224.731 91.8606 219.294 92.5511 211.957C92.9447 207.702 91.3427 203.55 90.5486 199.35C89.2881 192.598 90.107 185.622 92.8963 179.348C94.4846 175.809 96.6942 172.544 97.9475 168.88C100.865 160.446 98.4689 151.048 94.5916 143.015C93.5869 140.924 92.4441 138.746 92.6201 136.433Z" fill="black"/>
<path d="M139.887 83.0933C139.547 82.7439 139.182 82.4198 138.796 82.1238C142.98 87.5668 136.938 92.1927 136.638 98.0513C136.368 103.349 136.81 115.198 130.958 117.85C128.065 119.162 124.961 116.288 121.788 116.219C119.499 116.171 117.406 117.628 116.008 119.443C114.61 121.257 113.75 123.418 112.739 125.474C111.816 127.341 110.754 129.135 109.562 130.841C108.872 131.856 108.064 132.867 106.966 133.438C105.067 134.432 102.757 133.874 100.71 133.23C98.7186 132.603 96.746 131.91 94.7918 131.153C94.7878 131.514 94.7578 131.873 94.702 132.23C97.2777 133.282 99.8913 134.226 102.543 135.062C104.587 135.706 106.897 136.264 108.799 135.27C109.894 134.698 110.688 133.684 111.395 132.669C112.588 130.965 113.649 129.172 114.568 127.306C115.583 125.249 116.44 123.085 117.842 121.271C119.243 119.457 121.332 118.002 123.618 118.051C126.794 118.12 129.898 120.994 132.791 119.682C138.644 117.029 138.198 105.181 138.471 99.883C138.789 93.7232 145.473 88.9241 139.887 83.0933Z" fill="black"/>
</g>
<path opacity="0.1" d="M94.3913 131.721C94.0978 132.24 93.8113 132.759 93.5489 133.293C93.4488 133.497 93.3521 133.708 93.2658 133.919C91.4566 132.091 87.051 127.746 84.5928 126.399C85.1905 125.114 85.9696 123.922 86.906 122.86C86.906 122.86 92.7651 125.966 94.3913 131.721Z" fill="black"/>
<path d="M94.5536 131.437C93.1967 125.277 86.906 121.943 86.906 121.943C85.9688 123.004 85.1896 124.196 84.5928 125.481C87.1857 126.904 91.9641 131.676 93.5489 133.293L94.5536 131.437Z" fill="#FF748E"/>
</g>
<defs>
<linearGradient id="paint0_linear_42_186" x1="252.052" y1="33.0357" x2="252.052" y2="26.6716" gradientUnits="userSpaceOnUse">
<stop stop-color="#808080" stop-opacity="0.25"/>
<stop offset="0.54" stop-color="#808080" stop-opacity="0.12"/>
<stop offset="1" stop-color="#808080" stop-opacity="0.1"/>
</linearGradient>
<linearGradient id="paint1_linear_42_186" x1="194.324" y1="271.003" x2="194.324" y2="2.25844e-05" gradientUnits="userSpaceOnUse">
<stop stop-color="#808080" stop-opacity="0.25"/>
<stop offset="0.54" stop-color="#808080" stop-opacity="0.12"/>
<stop offset="1" stop-color="#808080" stop-opacity="0.1"/>
</linearGradient>
<clipPath id="clip0_42_186">
<rect width="375" height="271" fill="white"/>
</clipPath>
</defs>
</svg>
