<svg width="201" height="101" viewBox="0 0 201 101" fill="none" xmlns="http://www.w3.org/2000/svg">
<path d="M6 95.8132L19.0854 5.99998" stroke="#429B9C" stroke-width="4" stroke-linecap="round"/>
<path d="M19 6L29 66" stroke="#429B9C" stroke-width="4" stroke-linecap="round"/>
<path d="M39 36L29 65.9475" stroke="#429B9C" stroke-width="4" stroke-linecap="round"/>
<path d="M47 58L39 36.0001" stroke="#429B9C" stroke-width="4" stroke-linecap="round"/>
<path d="M195 58L47 58" stroke="#429B9C" stroke-width="4" stroke-linecap="round"/>
<path d="M58.9483 55.32C57.1776 55.32 55.6523 54.9893 54.3723 54.328C53.0923 53.6667 52.1003 52.728 51.3963 51.512C50.7136 50.296 50.3723 48.856 50.3723 47.192C50.3723 45.5707 50.7029 44.152 51.3643 42.936C52.0469 41.72 52.9749 40.7707 54.1483 40.088C55.3429 39.384 56.6976 39.032 58.2123 39.032C59.3216 39.032 60.3136 39.2133 61.1883 39.576C62.0843 39.9387 62.8416 40.4613 63.4603 41.144C64.1003 41.8267 64.5803 42.6587 64.9003 43.64C65.2416 44.6 65.4123 45.688 65.4123 46.904C65.4123 47.288 65.2736 47.5867 64.9963 47.8C64.7403 47.992 64.3669 48.088 63.8763 48.088H53.6043V45.784H62.5963L62.0843 46.264C62.0843 45.2827 61.9349 44.4613 61.6363 43.8C61.3589 43.1387 60.9429 42.6373 60.3883 42.296C59.8549 41.9333 59.1829 41.752 58.3723 41.752C57.4763 41.752 56.7083 41.9653 56.0683 42.392C55.4496 42.7973 54.9696 43.384 54.6283 44.152C54.3083 44.8987 54.1483 45.7947 54.1483 46.84V47.064C54.1483 48.8133 54.5536 50.1253 55.3643 51C56.1963 51.8533 57.4123 52.28 59.0123 52.28C59.5669 52.28 60.1856 52.216 60.8683 52.088C61.5723 51.9387 62.2336 51.6933 62.8523 51.352C63.3003 51.096 63.6949 50.9893 64.0363 51.032C64.3776 51.0533 64.6443 51.1707 64.8363 51.384C65.0496 51.5973 65.1776 51.864 65.2203 52.184C65.2629 52.4827 65.1989 52.792 65.0283 53.112C64.8789 53.432 64.6123 53.7093 64.2283 53.944C63.4816 54.4133 62.6176 54.7653 61.6363 55C60.6763 55.2133 59.7803 55.32 58.9483 55.32ZM74.596 55.32C73.2307 55.32 72.0253 54.9893 70.98 54.328C69.956 53.6667 69.156 52.728 68.58 51.512C68.004 50.2747 67.716 48.824 67.716 47.16C67.716 45.4747 68.004 44.0347 68.58 42.84C69.156 41.624 69.956 40.6853 70.98 40.024C72.0253 39.3627 73.2307 39.032 74.596 39.032C75.8973 39.032 77.028 39.352 77.988 39.992C78.9693 40.632 79.6307 41.4747 79.972 42.52H79.62V34.2C79.62 33.5387 79.7907 33.0373 80.132 32.696C80.4733 32.3547 80.964 32.184 81.604 32.184C82.244 32.184 82.7347 32.3547 83.076 32.696C83.4387 33.0373 83.62 33.5387 83.62 34.2V53.208C83.62 53.8693 83.4493 54.3813 83.108 54.744C82.7667 55.0853 82.276 55.256 81.636 55.256C80.996 55.256 80.5053 55.0853 80.164 54.744C79.8227 54.3813 79.652 53.8693 79.652 53.208V50.712L80.004 51.672C79.684 52.7813 79.0333 53.6667 78.052 54.328C77.0707 54.9893 75.9187 55.32 74.596 55.32ZM75.716 52.28C76.5053 52.28 77.1987 52.088 77.796 51.704C78.3933 51.32 78.852 50.7547 79.172 50.008C79.5133 49.24 79.684 48.2907 79.684 47.16C79.684 45.4533 79.3213 44.184 78.596 43.352C77.8707 42.4987 76.9107 42.072 75.716 42.072C74.9267 42.072 74.2333 42.264 73.636 42.648C73.0387 43.0107 72.5693 43.576 72.228 44.344C71.908 45.0907 71.748 46.0293 71.748 47.16C71.748 48.8453 72.1107 50.1253 72.836 51C73.5613 51.8533 74.5213 52.28 75.716 52.28ZM89.7515 55.224C89.1115 55.224 88.6208 55.032 88.2795 54.648C87.9382 54.264 87.7675 53.7307 87.7675 53.048V41.304C87.7675 40.6 87.9382 40.0667 88.2795 39.704C88.6208 39.32 89.1115 39.128 89.7515 39.128C90.3915 39.128 90.8822 39.32 91.2235 39.704C91.5862 40.0667 91.7675 40.6 91.7675 41.304V53.048C91.7675 53.7307 91.5968 54.264 91.2555 54.648C90.9142 55.032 90.4128 55.224 89.7515 55.224ZM89.7515 36.152C89.0048 36.152 88.4182 35.9707 87.9915 35.608C87.5862 35.224 87.3835 34.7013 87.3835 34.04C87.3835 33.3573 87.5862 32.8347 87.9915 32.472C88.4182 32.1093 89.0048 31.928 89.7515 31.928C90.5195 31.928 91.1062 32.1093 91.5115 32.472C91.9168 32.8347 92.1195 33.3573 92.1195 34.04C92.1195 34.7013 91.9168 35.224 91.5115 35.608C91.1062 35.9707 90.5195 36.152 89.7515 36.152Z" fill="#429B9C"/>
<g filter="url(#filter0_f_77_361)">
<circle cx="19" cy="6" r="2" fill="#EAEAEA"/>
</g>
<g filter="url(#filter1_f_77_361)">
<circle cx="19" cy="6" r="2" fill="#EAEAEA"/>
</g>
<g filter="url(#filter2_f_77_361)">
<circle cx="6" cy="95" r="2" fill="#EAEAEA"/>
</g>
<g filter="url(#filter3_f_77_361)">
<circle cx="6" cy="95" r="2" fill="#EAEAEA"/>
</g>
<g filter="url(#filter4_f_77_361)">
<circle cx="29" cy="66" r="2" fill="#EAEAEA"/>
</g>
<g filter="url(#filter5_f_77_361)">
<circle cx="29" cy="66" r="2" fill="#EAEAEA"/>
</g>
<g filter="url(#filter6_f_77_361)">
<circle cx="39" cy="37" r="2" fill="#EAEAEA"/>
</g>
<g filter="url(#filter7_f_77_361)">
<circle cx="39" cy="37" r="2" fill="#EAEAEA"/>
</g>
<g filter="url(#filter8_f_77_361)">
<circle cx="47" cy="57" r="2" fill="#EAEAEA"/>
</g>
<g filter="url(#filter9_f_77_361)">
<circle cx="47" cy="57" r="2" fill="#EAEAEA"/>
</g>
<g filter="url(#filter10_f_77_361)">
<circle cx="195" cy="58" r="2" fill="#EAEAEA"/>
</g>
<g filter="url(#filter11_f_77_361)">
<circle cx="195" cy="58" r="2" fill="#EAEAEA"/>
</g>
<mask id="path-19-outside-1_77_361" maskUnits="userSpaceOnUse" x="95" y="30" width="63" height="26" fill="black">
<rect fill="white" x="95" y="30" width="63" height="26"/>
<path d="M105.334 54.32C104.395 54.32 103.456 54.2453 102.518 54.096C101.579 53.968 100.694 53.7653 99.8618 53.488C99.0298 53.1893 98.2831 52.8267 97.6218 52.4C97.2378 52.144 96.9711 51.8347 96.8218 51.472C96.6724 51.1093 96.6191 50.7573 96.6618 50.416C96.7258 50.0533 96.8644 49.744 97.0778 49.488C97.3124 49.2107 97.6004 49.04 97.9418 48.976C98.2831 48.912 98.6564 49.008 99.0618 49.264C100 49.8187 100.992 50.224 102.038 50.48C103.083 50.736 104.182 50.864 105.334 50.864C107.019 50.864 108.246 50.5867 109.014 50.032C109.782 49.456 110.166 48.72 110.166 47.824C110.166 47.0773 109.888 46.4907 109.334 46.064C108.8 45.6373 107.872 45.2853 106.55 45.008L103.03 44.272C101.003 43.8453 99.4884 43.1307 98.4858 42.128C97.5044 41.104 97.0138 39.76 97.0138 38.096C97.0138 37.0507 97.2271 36.1013 97.6538 35.248C98.0804 34.3947 98.6778 33.6587 99.4458 33.04C100.235 32.4213 101.163 31.952 102.23 31.632C103.318 31.2907 104.512 31.12 105.814 31.12C107.094 31.12 108.31 31.28 109.462 31.6C110.614 31.92 111.648 32.3893 112.566 33.008C112.907 33.2427 113.131 33.5307 113.238 33.872C113.366 34.2133 113.398 34.5547 113.334 34.896C113.27 35.216 113.12 35.4933 112.886 35.728C112.651 35.9627 112.352 36.1013 111.99 36.144C111.648 36.1867 111.254 36.08 110.806 35.824C110.016 35.376 109.216 35.056 108.406 34.864C107.595 34.672 106.72 34.576 105.782 34.576C104.8 34.576 103.958 34.7147 103.254 34.992C102.55 35.2693 102.006 35.664 101.622 36.176C101.259 36.6667 101.078 37.2533 101.078 37.936C101.078 38.704 101.334 39.3227 101.846 39.792C102.358 40.24 103.232 40.592 104.47 40.848L107.958 41.584C110.07 42.032 111.638 42.736 112.662 43.696C113.707 44.656 114.23 45.936 114.23 47.536C114.23 48.56 114.016 49.488 113.59 50.32C113.184 51.152 112.587 51.8667 111.798 52.464C111.03 53.0613 110.102 53.52 109.014 53.84C107.926 54.16 106.699 54.32 105.334 54.32ZM122.705 54.32C120.935 54.32 119.601 53.8187 118.705 52.816C117.809 51.792 117.361 50.2987 117.361 48.336V33.2C117.361 32.5387 117.532 32.0373 117.873 31.696C118.215 31.3547 118.705 31.184 119.345 31.184C119.985 31.184 120.476 31.3547 120.817 31.696C121.18 32.0373 121.361 32.5387 121.361 33.2V48.144C121.361 49.1253 121.564 49.8507 121.969 50.32C122.396 50.7893 122.993 51.024 123.761 51.024C123.932 51.024 124.092 51.024 124.241 51.024C124.391 51.0027 124.54 50.9813 124.689 50.96C124.988 50.9173 125.191 51.0027 125.297 51.216C125.404 51.408 125.457 51.8133 125.457 52.432C125.457 52.9653 125.351 53.3813 125.137 53.68C124.924 53.9787 124.572 54.16 124.081 54.224C123.868 54.2453 123.644 54.2667 123.409 54.288C123.175 54.3093 122.94 54.32 122.705 54.32ZM134.56 54.32C132.938 54.32 131.53 53.9893 130.336 53.328C129.141 52.6667 128.213 51.728 127.552 50.512C126.89 49.2747 126.56 47.824 126.56 46.16C126.56 44.9013 126.741 43.7813 127.104 42.8C127.488 41.7973 128.032 40.944 128.736 40.24C129.44 39.5147 130.282 38.9707 131.264 38.608C132.245 38.224 133.344 38.032 134.56 38.032C136.181 38.032 137.589 38.3627 138.784 39.024C139.978 39.6853 140.906 40.624 141.568 41.84C142.229 43.056 142.56 44.496 142.56 46.16C142.56 47.4187 142.368 48.5493 141.984 49.552C141.621 50.5547 141.088 51.4187 140.384 52.144C139.68 52.848 138.837 53.392 137.856 53.776C136.874 54.1387 135.776 54.32 134.56 54.32ZM134.56 51.28C135.349 51.28 136.042 51.088 136.64 50.704C137.237 50.32 137.696 49.7547 138.016 49.008C138.357 48.24 138.528 47.2907 138.528 46.16C138.528 44.4533 138.165 43.184 137.44 42.352C136.714 41.4987 135.754 41.072 134.56 41.072C133.77 41.072 133.077 41.264 132.48 41.648C131.882 42.0107 131.413 42.576 131.072 43.344C130.752 44.0907 130.592 45.0293 130.592 46.16C130.592 47.8453 130.954 49.1253 131.68 50C132.405 50.8533 133.365 51.28 134.56 51.28ZM152.873 54.32C151.486 54.32 150.324 54.0853 149.385 53.616C148.468 53.1467 147.785 52.464 147.337 51.568C146.889 50.6507 146.665 49.52 146.665 48.176V41.36H145.001C144.489 41.36 144.094 41.232 143.817 40.976C143.54 40.6987 143.401 40.3253 143.401 39.856C143.401 39.3653 143.54 38.992 143.817 38.736C144.094 38.48 144.489 38.352 145.001 38.352H146.665V35.44C146.665 34.7787 146.836 34.2773 147.177 33.936C147.54 33.5947 148.041 33.424 148.681 33.424C149.321 33.424 149.812 33.5947 150.153 33.936C150.494 34.2773 150.665 34.7787 150.665 35.44V38.352H154.057C154.569 38.352 154.964 38.48 155.241 38.736C155.518 38.992 155.657 39.3653 155.657 39.856C155.657 40.3253 155.518 40.6987 155.241 40.976C154.964 41.232 154.569 41.36 154.057 41.36H150.665V47.952C150.665 48.976 150.889 49.744 151.337 50.256C151.785 50.768 152.51 51.024 153.513 51.024C153.876 51.024 154.196 50.992 154.473 50.928C154.75 50.864 154.996 50.8213 155.209 50.8C155.465 50.7787 155.678 50.864 155.849 51.056C156.02 51.2267 156.105 51.5893 156.105 52.144C156.105 52.5707 156.03 52.9547 155.881 53.296C155.753 53.616 155.508 53.84 155.145 53.968C154.868 54.0533 154.505 54.128 154.057 54.192C153.609 54.2773 153.214 54.32 152.873 54.32Z"/>
</mask>
<path d="M105.334 54.32C104.395 54.32 103.456 54.2453 102.518 54.096C101.579 53.968 100.694 53.7653 99.8618 53.488C99.0298 53.1893 98.2831 52.8267 97.6218 52.4C97.2378 52.144 96.9711 51.8347 96.8218 51.472C96.6724 51.1093 96.6191 50.7573 96.6618 50.416C96.7258 50.0533 96.8644 49.744 97.0778 49.488C97.3124 49.2107 97.6004 49.04 97.9418 48.976C98.2831 48.912 98.6564 49.008 99.0618 49.264C100 49.8187 100.992 50.224 102.038 50.48C103.083 50.736 104.182 50.864 105.334 50.864C107.019 50.864 108.246 50.5867 109.014 50.032C109.782 49.456 110.166 48.72 110.166 47.824C110.166 47.0773 109.888 46.4907 109.334 46.064C108.8 45.6373 107.872 45.2853 106.55 45.008L103.03 44.272C101.003 43.8453 99.4884 43.1307 98.4858 42.128C97.5044 41.104 97.0138 39.76 97.0138 38.096C97.0138 37.0507 97.2271 36.1013 97.6538 35.248C98.0804 34.3947 98.6778 33.6587 99.4458 33.04C100.235 32.4213 101.163 31.952 102.23 31.632C103.318 31.2907 104.512 31.12 105.814 31.12C107.094 31.12 108.31 31.28 109.462 31.6C110.614 31.92 111.648 32.3893 112.566 33.008C112.907 33.2427 113.131 33.5307 113.238 33.872C113.366 34.2133 113.398 34.5547 113.334 34.896C113.27 35.216 113.12 35.4933 112.886 35.728C112.651 35.9627 112.352 36.1013 111.99 36.144C111.648 36.1867 111.254 36.08 110.806 35.824C110.016 35.376 109.216 35.056 108.406 34.864C107.595 34.672 106.72 34.576 105.782 34.576C104.8 34.576 103.958 34.7147 103.254 34.992C102.55 35.2693 102.006 35.664 101.622 36.176C101.259 36.6667 101.078 37.2533 101.078 37.936C101.078 38.704 101.334 39.3227 101.846 39.792C102.358 40.24 103.232 40.592 104.47 40.848L107.958 41.584C110.07 42.032 111.638 42.736 112.662 43.696C113.707 44.656 114.23 45.936 114.23 47.536C114.23 48.56 114.016 49.488 113.59 50.32C113.184 51.152 112.587 51.8667 111.798 52.464C111.03 53.0613 110.102 53.52 109.014 53.84C107.926 54.16 106.699 54.32 105.334 54.32ZM122.705 54.32C120.935 54.32 119.601 53.8187 118.705 52.816C117.809 51.792 117.361 50.2987 117.361 48.336V33.2C117.361 32.5387 117.532 32.0373 117.873 31.696C118.215 31.3547 118.705 31.184 119.345 31.184C119.985 31.184 120.476 31.3547 120.817 31.696C121.18 32.0373 121.361 32.5387 121.361 33.2V48.144C121.361 49.1253 121.564 49.8507 121.969 50.32C122.396 50.7893 122.993 51.024 123.761 51.024C123.932 51.024 124.092 51.024 124.241 51.024C124.391 51.0027 124.54 50.9813 124.689 50.96C124.988 50.9173 125.191 51.0027 125.297 51.216C125.404 51.408 125.457 51.8133 125.457 52.432C125.457 52.9653 125.351 53.3813 125.137 53.68C124.924 53.9787 124.572 54.16 124.081 54.224C123.868 54.2453 123.644 54.2667 123.409 54.288C123.175 54.3093 122.94 54.32 122.705 54.32ZM134.56 54.32C132.938 54.32 131.53 53.9893 130.336 53.328C129.141 52.6667 128.213 51.728 127.552 50.512C126.89 49.2747 126.56 47.824 126.56 46.16C126.56 44.9013 126.741 43.7813 127.104 42.8C127.488 41.7973 128.032 40.944 128.736 40.24C129.44 39.5147 130.282 38.9707 131.264 38.608C132.245 38.224 133.344 38.032 134.56 38.032C136.181 38.032 137.589 38.3627 138.784 39.024C139.978 39.6853 140.906 40.624 141.568 41.84C142.229 43.056 142.56 44.496 142.56 46.16C142.56 47.4187 142.368 48.5493 141.984 49.552C141.621 50.5547 141.088 51.4187 140.384 52.144C139.68 52.848 138.837 53.392 137.856 53.776C136.874 54.1387 135.776 54.32 134.56 54.32ZM134.56 51.28C135.349 51.28 136.042 51.088 136.64 50.704C137.237 50.32 137.696 49.7547 138.016 49.008C138.357 48.24 138.528 47.2907 138.528 46.16C138.528 44.4533 138.165 43.184 137.44 42.352C136.714 41.4987 135.754 41.072 134.56 41.072C133.77 41.072 133.077 41.264 132.48 41.648C131.882 42.0107 131.413 42.576 131.072 43.344C130.752 44.0907 130.592 45.0293 130.592 46.16C130.592 47.8453 130.954 49.1253 131.68 50C132.405 50.8533 133.365 51.28 134.56 51.28ZM152.873 54.32C151.486 54.32 150.324 54.0853 149.385 53.616C148.468 53.1467 147.785 52.464 147.337 51.568C146.889 50.6507 146.665 49.52 146.665 48.176V41.36H145.001C144.489 41.36 144.094 41.232 143.817 40.976C143.54 40.6987 143.401 40.3253 143.401 39.856C143.401 39.3653 143.54 38.992 143.817 38.736C144.094 38.48 144.489 38.352 145.001 38.352H146.665V35.44C146.665 34.7787 146.836 34.2773 147.177 33.936C147.54 33.5947 148.041 33.424 148.681 33.424C149.321 33.424 149.812 33.5947 150.153 33.936C150.494 34.2773 150.665 34.7787 150.665 35.44V38.352H154.057C154.569 38.352 154.964 38.48 155.241 38.736C155.518 38.992 155.657 39.3653 155.657 39.856C155.657 40.3253 155.518 40.6987 155.241 40.976C154.964 41.232 154.569 41.36 154.057 41.36H150.665V47.952C150.665 48.976 150.889 49.744 151.337 50.256C151.785 50.768 152.51 51.024 153.513 51.024C153.876 51.024 154.196 50.992 154.473 50.928C154.75 50.864 154.996 50.8213 155.209 50.8C155.465 50.7787 155.678 50.864 155.849 51.056C156.02 51.2267 156.105 51.5893 156.105 52.144C156.105 52.5707 156.03 52.9547 155.881 53.296C155.753 53.616 155.508 53.84 155.145 53.968C154.868 54.0533 154.505 54.128 154.057 54.192C153.609 54.2773 153.214 54.32 152.873 54.32Z" fill="#F9F9F9"/>
<path d="M102.518 54.096L102.675 53.1084L102.664 53.1067L102.653 53.1052L102.518 54.096ZM99.8618 53.488L99.5239 54.4292L99.5347 54.4331L99.5455 54.4367L99.8618 53.488ZM97.6218 52.4L97.067 53.2321L97.0733 53.2362L97.0796 53.2403L97.6218 52.4ZM96.8218 51.472L95.8971 51.8527H95.8971L96.8218 51.472ZM96.6618 50.416L95.677 50.2422L95.6726 50.267L95.6695 50.292L96.6618 50.416ZM97.0778 49.488L96.3143 48.842L96.3095 48.8478L97.0778 49.488ZM97.9418 48.976L98.126 49.9589H98.126L97.9418 48.976ZM99.0618 49.264L98.5278 50.1095L98.5403 50.1174L98.553 50.1249L99.0618 49.264ZM109.014 50.032L109.599 50.8427L109.607 50.8374L109.614 50.832L109.014 50.032ZM109.334 46.064L108.709 46.8449L108.716 46.8508L108.724 46.8566L109.334 46.064ZM106.55 45.008L106.755 44.0293L106.754 44.0292L106.55 45.008ZM103.03 44.272L102.824 45.2505L102.825 45.2508L103.03 44.272ZM98.4858 42.128L97.7638 42.8199L97.7711 42.8276L97.7786 42.8351L98.4858 42.128ZM97.6538 35.248L98.5482 35.6952L97.6538 35.248ZM99.4458 33.04L98.8288 32.2529L98.8184 32.2612L99.4458 33.04ZM102.23 31.632L102.517 32.5899L102.529 32.5861L102.23 31.632ZM109.462 31.6L109.729 30.6365L109.462 31.6ZM112.566 33.008L113.132 32.1839L113.125 32.1789L112.566 33.008ZM113.238 33.872L112.283 34.1703L112.292 34.197L112.301 34.2231L113.238 33.872ZM113.334 34.896L114.314 35.0921L114.317 35.0803L113.334 34.896ZM111.99 36.144L111.873 35.1508L111.866 35.1517L111.99 36.144ZM110.806 35.824L111.302 34.9558L111.299 34.9543L110.806 35.824ZM108.406 34.864L108.175 35.8371H108.175L108.406 34.864ZM103.254 34.992L103.62 35.9224L103.254 34.992ZM101.622 36.176L100.822 35.576L100.818 35.5816L101.622 36.176ZM101.846 39.792L101.17 40.5292L101.179 40.537L101.187 40.5446L101.846 39.792ZM104.47 40.848L104.676 39.8695L104.672 39.8687L104.47 40.848ZM107.958 41.584L108.165 40.6058L108.164 40.6055L107.958 41.584ZM112.662 43.696L111.978 44.4256L111.985 44.4325L112.662 43.696ZM113.59 50.32L112.7 49.8637L112.695 49.8728L112.691 49.882L113.59 50.32ZM111.798 52.464L111.194 51.6665L111.184 51.6746L111.798 52.464ZM109.014 53.84L109.296 54.7994L109.014 53.84ZM105.334 53.32C104.448 53.32 103.562 53.2496 102.675 53.1084L102.361 55.0836C103.351 55.2411 104.342 55.32 105.334 55.32V53.32ZM102.653 53.1052C101.771 52.9849 100.947 52.7955 100.178 52.5393L99.5455 54.4367C100.441 54.7352 101.387 54.9511 102.383 55.0868L102.653 53.1052ZM100.2 52.5468C99.4307 52.2708 98.7539 51.9404 98.1639 51.5597L97.0796 53.2403C97.8123 53.713 98.6288 54.1079 99.5239 54.4292L100.2 52.5468ZM98.1765 51.5679C97.928 51.4023 97.8074 51.2394 97.7464 51.0912L95.8971 51.8527C96.1347 52.4299 96.5475 52.8857 97.067 53.2321L98.1765 51.5679ZM97.7464 51.0912C97.6535 50.8655 97.6356 50.6873 97.654 50.54L95.6695 50.292C95.6025 50.8274 95.6914 51.3532 95.8971 51.8527L97.7464 51.0912ZM97.6465 50.5898C97.6835 50.3803 97.7557 50.2365 97.846 50.1282L96.3095 48.8478C95.9731 49.2515 95.768 49.7264 95.677 50.2422L97.6465 50.5898ZM97.8411 50.1339C97.9347 50.0234 98.0218 49.9784 98.126 49.9589L97.7575 47.9931C97.1791 48.1016 96.6902 48.3979 96.3144 48.8421L97.8411 50.1339ZM98.126 49.9589C98.138 49.9566 98.254 49.9366 98.5278 50.1095L99.5957 48.4185C99.0589 48.0794 98.4282 47.8674 97.7575 47.9931L98.126 49.9589ZM98.553 50.1249C99.575 50.7288 100.658 51.1717 101.8 51.4513L102.276 49.5087C101.327 49.2763 100.426 48.9085 99.5705 48.4031L98.553 50.1249ZM101.8 51.4513C102.928 51.7277 104.107 51.864 105.334 51.864V49.864C104.256 49.864 103.238 49.7443 102.276 49.5087L101.8 51.4513ZM105.334 51.864C107.085 51.864 108.573 51.5841 109.599 50.8427L108.428 49.2213C107.919 49.5892 106.953 49.864 105.334 49.864V51.864ZM109.614 50.832C110.613 50.0828 111.166 49.06 111.166 47.824H109.166C109.166 48.38 108.951 48.8292 108.414 49.232L109.614 50.832ZM111.166 47.824C111.166 46.791 110.763 45.9016 109.943 45.2714L108.724 46.8566C109.014 47.0798 109.166 47.3637 109.166 47.824H111.166ZM109.958 45.2831C109.233 44.7027 108.109 44.3132 106.755 44.0293L106.345 45.9867C107.636 46.2575 108.368 46.572 108.709 46.8449L109.958 45.2831ZM106.754 44.0292L103.234 43.2932L102.825 45.2508L106.345 45.9868L106.754 44.0292ZM103.236 43.2934C101.316 42.8893 100.009 42.2369 99.1929 41.4209L97.7786 42.8351C98.968 44.0245 100.69 44.8013 102.824 45.2505L103.236 43.2934ZM99.2077 41.4361C98.4354 40.6301 98.0138 39.55 98.0138 38.096H96.0138C96.0138 39.97 96.5735 41.5779 97.7638 42.8199L99.2077 41.4361ZM98.0138 38.096C98.0138 37.1908 98.1974 36.3968 98.5482 35.6952L96.7593 34.8008C96.2568 35.8059 96.0138 36.9105 96.0138 38.096H98.0138ZM98.5482 35.6952C98.9085 34.9747 99.413 34.3505 100.073 33.8188L98.8184 32.2612C97.9425 32.9669 97.2524 33.8147 96.7593 34.8008L98.5482 35.6952ZM100.063 33.8271C100.743 33.2934 101.557 32.8779 102.517 32.5898L101.942 30.6742C100.769 31.0261 99.7267 31.5492 98.8289 32.2529L100.063 33.8271ZM102.529 32.5861C103.508 32.2791 104.6 32.12 105.814 32.12V30.12C104.425 30.12 103.128 30.3022 101.93 30.6779L102.529 32.5861ZM105.814 32.12C107.01 32.12 108.135 32.2694 109.194 32.5635L109.729 30.6365C108.484 30.2906 107.178 30.12 105.814 30.12V32.12ZM109.194 32.5635C110.251 32.857 111.185 33.2833 112.007 33.8371L113.125 32.1789C112.111 31.4954 110.977 30.983 109.729 30.6365L109.194 32.5635ZM111.999 33.832C112.187 33.9608 112.254 34.0756 112.283 34.1703L114.192 33.5737C114.008 32.9858 113.628 32.5245 113.132 32.184L111.999 33.832ZM112.301 34.2231C112.369 34.4025 112.38 34.5588 112.351 34.7117L114.317 35.0803C114.416 34.5505 114.363 34.0242 114.174 33.5209L112.301 34.2231ZM112.353 34.6999C112.329 34.8228 112.276 34.9233 112.179 35.0209L113.593 36.4351C113.965 36.0634 114.211 35.6092 114.314 35.0921L112.353 34.6999ZM112.179 35.0209C112.119 35.0804 112.036 35.1317 111.873 35.1508L112.107 37.1371C112.669 37.071 113.183 36.8449 113.593 36.4351L112.179 35.0209ZM111.866 35.1517C111.823 35.1571 111.651 35.1554 111.302 34.9558L110.31 36.6922C110.856 37.0046 111.474 37.2162 112.114 37.1363L111.866 35.1517ZM111.299 34.9543C110.435 34.4637 109.547 34.1066 108.636 33.8909L108.175 35.8371C108.886 36.0054 109.598 36.2883 110.312 36.6937L111.299 34.9543ZM108.636 33.8909C107.741 33.6789 106.788 33.576 105.782 33.576V35.576C106.652 35.576 107.449 35.6651 108.175 35.8371L108.636 33.8909ZM105.782 33.576C104.71 33.576 103.737 33.7269 102.887 34.0616L103.62 35.9224C104.179 35.7025 104.89 35.576 105.782 35.576V33.576ZM102.887 34.0616C102.043 34.3943 101.336 34.8907 100.822 35.576L102.422 36.776C102.676 36.4373 103.057 36.1444 103.62 35.9224L102.887 34.0616ZM100.818 35.5816C100.313 36.2646 100.078 37.066 100.078 37.936H102.078C102.078 37.4406 102.205 37.0687 102.426 36.7704L100.818 35.5816ZM100.078 37.936C100.078 38.9513 100.428 39.8492 101.17 40.5292L102.521 39.0548C102.239 38.7961 102.078 38.4567 102.078 37.936H100.078ZM101.187 40.5446C101.899 41.167 102.983 41.5616 104.267 41.8273L104.672 39.8687C103.482 39.6224 102.817 39.313 102.504 39.0394L101.187 40.5446ZM104.263 41.8265L107.751 42.5625L108.164 40.6055L104.676 39.8695L104.263 41.8265ZM107.75 42.5622C109.772 42.9911 111.14 43.6403 111.978 44.4255L113.346 42.9665C112.135 41.8317 110.367 41.0729 108.165 40.6058L107.75 42.5622ZM111.985 44.4325C112.797 45.178 113.23 46.1766 113.23 47.536H115.23C115.23 45.6954 114.617 44.134 113.338 42.9595L111.985 44.4325ZM113.23 47.536C113.23 48.4167 113.047 49.186 112.7 49.8637L114.48 50.7763C114.985 49.79 115.23 48.7033 115.23 47.536H113.23ZM112.691 49.882C112.359 50.5629 111.867 51.1574 111.194 51.6666L112.401 53.2614C113.307 52.5759 114.01 51.7411 114.489 50.758L112.691 49.882ZM111.184 51.6746C110.53 52.1834 109.719 52.5902 108.732 52.8806L109.296 54.7994C110.485 54.4498 111.53 53.9393 112.412 53.2534L111.184 51.6746ZM108.732 52.8806C107.752 53.1689 106.622 53.32 105.334 53.32V55.32C106.776 55.32 108.1 55.1511 109.296 54.7994L108.732 52.8806ZM118.705 52.816L117.953 53.4745L117.96 53.4823L118.705 52.816ZM117.873 31.696L118.58 32.4031V32.4031L117.873 31.696ZM120.817 31.696L120.11 32.4031L120.121 32.4138L120.132 32.4242L120.817 31.696ZM121.969 50.32L121.212 50.9736L121.221 50.9833L121.229 50.9927L121.969 50.32ZM124.241 51.024V52.024H124.312L124.383 52.0139L124.241 51.024ZM124.689 50.96L124.548 49.9701L124.689 50.96ZM125.297 51.216L124.403 51.6632L124.413 51.6826L124.423 51.7016L125.297 51.216ZM125.137 53.68L125.951 54.2612H125.951L125.137 53.68ZM124.081 54.224L124.181 55.219L124.196 55.2175L124.211 55.2156L124.081 54.224ZM123.409 54.288L123.319 53.2921L123.409 54.288ZM122.705 53.32C121.124 53.32 120.102 52.8781 119.451 52.1497L117.96 53.4823C119.101 54.7593 120.745 55.32 122.705 55.32V53.32ZM119.458 52.1575C118.779 51.382 118.361 50.1619 118.361 48.336H116.361C116.361 50.4354 116.839 52.202 117.953 53.4745L119.458 52.1575ZM118.361 48.336V33.2H116.361V48.336H118.361ZM118.361 33.2C118.361 32.7035 118.487 32.4962 118.58 32.4031L117.166 30.9889C116.577 31.5785 116.361 32.3738 116.361 33.2H118.361ZM118.58 32.4031C118.679 32.3043 118.881 32.184 119.345 32.184V30.184C118.529 30.184 117.75 30.405 117.166 30.9889L118.58 32.4031ZM119.345 32.184C119.809 32.184 120.011 32.3043 120.11 32.4031L121.524 30.9889C120.941 30.405 120.161 30.184 119.345 30.184V32.184ZM120.132 32.4242C120.234 32.5203 120.361 32.72 120.361 33.2H122.361C122.361 32.3574 122.126 31.5543 121.503 30.9678L120.132 32.4242ZM120.361 33.2V48.144H122.361V33.2H120.361ZM120.361 48.144C120.361 49.233 120.581 50.2428 121.212 50.9736L122.726 49.6664C122.547 49.4586 122.361 49.0177 122.361 48.144H120.361ZM121.229 50.9927C121.885 51.7138 122.776 52.024 123.761 52.024V50.024C123.211 50.024 122.907 49.8649 122.709 49.6473L121.229 50.9927ZM123.761 52.024C123.762 52.024 123.762 52.024 123.762 52.024C123.763 52.024 123.763 52.024 123.763 52.024C123.764 52.024 123.764 52.024 123.764 52.024C123.765 52.024 123.765 52.024 123.765 52.024C123.766 52.024 123.766 52.024 123.766 52.024C123.767 52.024 123.767 52.024 123.767 52.024C123.768 52.024 123.768 52.024 123.768 52.024C123.769 52.024 123.769 52.024 123.769 52.024C123.77 52.024 123.77 52.024 123.77 52.024C123.771 52.024 123.771 52.024 123.771 52.024C123.772 52.024 123.772 52.024 123.772 52.024C123.773 52.024 123.773 52.024 123.773 52.024C123.774 52.024 123.774 52.024 123.774 52.024C123.775 52.024 123.775 52.024 123.775 52.024C123.776 52.024 123.776 52.024 123.776 52.024C123.777 52.024 123.777 52.024 123.777 52.024C123.778 52.024 123.778 52.024 123.778 52.024C123.779 52.024 123.779 52.024 123.779 52.024C123.78 52.024 123.78 52.024 123.78 52.024C123.781 52.024 123.781 52.024 123.781 52.024C123.782 52.024 123.782 52.024 123.782 52.024C123.783 52.024 123.783 52.024 123.783 52.024C123.784 52.024 123.784 52.024 123.784 52.024C123.785 52.024 123.785 52.024 123.785 52.024C123.786 52.024 123.786 52.024 123.786 52.024C123.787 52.024 123.787 52.024 123.787 52.024C123.787 52.024 123.788 52.024 123.788 52.024C123.788 52.024 123.789 52.024 123.789 52.024C123.789 52.024 123.79 52.024 123.79 52.024C123.79 52.024 123.791 52.024 123.791 52.024C123.791 52.024 123.792 52.024 123.792 52.024C123.792 52.024 123.793 52.024 123.793 52.024C123.793 52.024 123.794 52.024 123.794 52.024C123.794 52.024 123.795 52.024 123.795 52.024C123.795 52.024 123.796 52.024 123.796 52.024C123.796 52.024 123.797 52.024 123.797 52.024C123.797 52.024 123.798 52.024 123.798 52.024C123.798 52.024 123.799 52.024 123.799 52.024C123.799 52.024 123.8 52.024 123.8 52.024C123.8 52.024 123.801 52.024 123.801 52.024C123.801 52.024 123.802 52.024 123.802 52.024C123.802 52.024 123.803 52.024 123.803 52.024C123.803 52.024 123.804 52.024 123.804 52.024C123.804 52.024 123.805 52.024 123.805 52.024C123.805 52.024 123.806 52.024 123.806 52.024C123.806 52.024 123.807 52.024 123.807 52.024C123.807 52.024 123.808 52.024 123.808 52.024C123.808 52.024 123.809 52.024 123.809 52.024C123.809 52.024 123.81 52.024 123.81 52.024C123.81 52.024 123.811 52.024 123.811 52.024C123.811 52.024 123.812 52.024 123.812 52.024C123.812 52.024 123.813 52.024 123.813 52.024C123.813 52.024 123.814 52.024 123.814 52.024C123.814 52.024 123.815 52.024 123.815 52.024C123.815 52.024 123.816 52.024 123.816 52.024C123.816 52.024 123.817 52.024 123.817 52.024C123.817 52.024 123.818 52.024 123.818 52.024C123.818 52.024 123.819 52.024 123.819 52.024C123.819 52.024 123.819 52.024 123.82 52.024C123.82 52.024 123.82 52.024 123.821 52.024C123.821 52.024 123.821 52.024 123.822 52.024C123.822 52.024 123.822 52.024 123.823 52.024C123.823 52.024 123.823 52.024 123.824 52.024C123.824 52.024 123.824 52.024 123.825 52.024C123.825 52.024 123.825 52.024 123.826 52.024C123.826 52.024 123.826 52.024 123.827 52.024C123.827 52.024 123.827 52.024 123.828 52.024C123.828 52.024 123.828 52.024 123.829 52.024C123.829 52.024 123.829 52.024 123.83 52.024C123.83 52.024 123.83 52.024 123.831 52.024C123.831 52.024 123.831 52.024 123.832 52.024C123.832 52.024 123.832 52.024 123.833 52.024C123.833 52.024 123.833 52.024 123.834 52.024C123.834 52.024 123.834 52.024 123.835 52.024C123.835 52.024 123.835 52.024 123.836 52.024C123.836 52.024 123.836 52.024 123.837 52.024C123.837 52.024 123.837 52.024 123.838 52.024C123.838 52.024 123.838 52.024 123.839 52.024C123.839 52.024 123.839 52.024 123.839 52.024C123.84 52.024 123.84 52.024 123.84 52.024C123.841 52.024 123.841 52.024 123.841 52.024C123.842 52.024 123.842 52.024 123.842 52.024C123.843 52.024 123.843 52.024 123.843 52.024C123.844 52.024 123.844 52.024 123.844 52.024C123.845 52.024 123.845 52.024 123.845 52.024C123.846 52.024 123.846 52.024 123.846 52.024C123.847 52.024 123.847 52.024 123.847 52.024C123.848 52.024 123.848 52.024 123.848 52.024C123.849 52.024 123.849 52.024 123.849 52.024C123.85 52.024 123.85 52.024 123.85 52.024C123.851 52.024 123.851 52.024 123.851 52.024C123.852 52.024 123.852 52.024 123.852 52.024C123.853 52.024 123.853 52.024 123.853 52.024C123.854 52.024 123.854 52.024 123.854 52.024C123.854 52.024 123.855 52.024 123.855 52.024C123.855 52.024 123.856 52.024 123.856 52.024C123.856 52.024 123.857 52.024 123.857 52.024C123.857 52.024 123.858 52.024 123.858 52.024C123.858 52.024 123.859 52.024 123.859 52.024C123.859 52.024 123.86 52.024 123.86 52.024C123.86 52.024 123.861 52.024 123.861 52.024C123.861 52.024 123.862 52.024 123.862 52.024C123.862 52.024 123.863 52.024 123.863 52.024C123.863 52.024 123.864 52.024 123.864 52.024C123.864 52.024 123.865 52.024 123.865 52.024C123.865 52.024 123.866 52.024 123.866 52.024C123.866 52.024 123.867 52.024 123.867 52.024C123.867 52.024 123.868 52.024 123.868 52.024C123.868 52.024 123.868 52.024 123.869 52.024C123.869 52.024 123.869 52.024 123.87 52.024C123.87 52.024 123.87 52.024 123.871 52.024C123.871 52.024 123.871 52.024 123.872 52.024C123.872 52.024 123.872 52.024 123.873 52.024C123.873 52.024 123.873 52.024 123.874 52.024C123.874 52.024 123.874 52.024 123.875 52.024C123.875 52.024 123.875 52.024 123.876 52.024C123.876 52.024 123.876 52.024 123.877 52.024C123.877 52.024 123.877 52.024 123.878 52.024C123.878 52.024 123.878 52.024 123.879 52.024C123.879 52.024 123.879 52.024 123.879 52.024C123.88 52.024 123.88 52.024 123.88 52.024C123.881 52.024 123.881 52.024 123.881 52.024C123.882 52.024 123.882 52.024 123.882 52.024C123.883 52.024 123.883 52.024 123.883 52.024C123.884 52.024 123.884 52.024 123.884 52.024C123.885 52.024 123.885 52.024 123.885 52.024C123.886 52.024 123.886 52.024 123.886 52.024C123.887 52.024 123.887 52.024 123.887 52.024C123.888 52.024 123.888 52.024 123.888 52.024C123.889 52.024 123.889 52.024 123.889 52.024C123.89 52.024 123.89 52.024 123.89 52.024C123.89 52.024 123.891 52.024 123.891 52.024C123.891 52.024 123.892 52.024 123.892 52.024C123.892 52.024 123.893 52.024 123.893 52.024C123.893 52.024 123.894 52.024 123.894 52.024C123.894 52.024 123.895 52.024 123.895 52.024C123.895 52.024 123.896 52.024 123.896 52.024C123.896 52.024 123.897 52.024 123.897 52.024C123.897 52.024 123.898 52.024 123.898 52.024C123.898 52.024 123.899 52.024 123.899 52.024C123.899 52.024 123.9 52.024 123.9 52.024C123.9 52.024 123.9 52.024 123.901 52.024C123.901 52.024 123.901 52.024 123.902 52.024C123.902 52.024 123.902 52.024 123.903 52.024C123.903 52.024 123.903 52.024 123.904 52.024C123.904 52.024 123.904 52.024 123.905 52.024C123.905 52.024 123.905 52.024 123.906 52.024C123.906 52.024 123.906 52.024 123.907 52.024C123.907 52.024 123.907 52.024 123.908 52.024C123.908 52.024 123.908 52.024 123.909 52.024C123.909 52.024 123.909 52.024 123.909 52.024C123.91 52.024 123.91 52.024 123.91 52.024C123.911 52.024 123.911 52.024 123.911 52.024C123.912 52.024 123.912 52.024 123.912 52.024C123.913 52.024 123.913 52.024 123.913 52.024C123.914 52.024 123.914 52.024 123.914 52.024C123.915 52.024 123.915 52.024 123.915 52.024C123.916 52.024 123.916 52.024 123.916 52.024C123.917 52.024 123.917 52.024 123.917 52.024C123.917 52.024 123.918 52.024 123.918 52.024C123.918 52.024 123.919 52.024 123.919 52.024C123.919 52.024 123.92 52.024 123.92 52.024C123.92 52.024 123.921 52.024 123.921 52.024C123.921 52.024 123.922 52.024 123.922 52.024C123.922 52.024 123.923 52.024 123.923 52.024C123.923 52.024 123.924 52.024 123.924 52.024C123.924 52.024 123.925 52.024 123.925 52.024C123.925 52.024 123.925 52.024 123.926 52.024C123.926 52.024 123.926 52.024 123.927 52.024C123.927 52.024 123.927 52.024 123.928 52.024C123.928 52.024 123.928 52.024 123.929 52.024C123.929 52.024 123.929 52.024 123.93 52.024C123.93 52.024 123.93 52.024 123.931 52.024C123.931 52.024 123.931 52.024 123.932 52.024C123.932 52.024 123.932 52.024 123.933 52.024C123.933 52.024 123.933 52.024 123.933 52.024C123.934 52.024 123.934 52.024 123.934 52.024C123.935 52.024 123.935 52.024 123.935 52.024C123.936 52.024 123.936 52.024 123.936 52.024C123.937 52.024 123.937 52.024 123.937 52.024C123.938 52.024 123.938 52.024 123.938 52.024C123.939 52.024 123.939 52.024 123.939 52.024C123.94 52.024 123.94 52.024 123.94 52.024C123.94 52.024 123.941 52.024 123.941 52.024C123.941 52.024 123.942 52.024 123.942 52.024C123.942 52.024 123.943 52.024 123.943 52.024C123.943 52.024 123.944 52.024 123.944 52.024C123.944 52.024 123.945 52.024 123.945 52.024C123.945 52.024 123.946 52.024 123.946 52.024C123.946 52.024 123.947 52.024 123.947 52.024C123.947 52.024 123.947 52.024 123.948 52.024C123.948 52.024 123.948 52.024 123.949 52.024C123.949 52.024 123.949 52.024 123.95 52.024C123.95 52.024 123.95 52.024 123.951 52.024C123.951 52.024 123.951 52.024 123.952 52.024C123.952 52.024 123.952 52.024 123.953 52.024C123.953 52.024 123.953 52.024 123.954 52.024C123.954 52.024 123.954 52.024 123.954 52.024C123.955 52.024 123.955 52.024 123.955 52.024C123.956 52.024 123.956 52.024 123.956 52.024C123.957 52.024 123.957 52.024 123.957 52.024C123.958 52.024 123.958 52.024 123.958 52.024C123.959 52.024 123.959 52.024 123.959 52.024C123.96 52.024 123.96 52.024 123.96 52.024C123.96 52.024 123.961 52.024 123.961 52.024C123.961 52.024 123.962 52.024 123.962 52.024C123.962 52.024 123.963 52.024 123.963 52.024C123.963 52.024 123.964 52.024 123.964 52.024C123.964 52.024 123.965 52.024 123.965 52.024C123.965 52.024 123.966 52.024 123.966 52.024C123.966 52.024 123.966 52.024 123.967 52.024C123.967 52.024 123.967 52.024 123.968 52.024C123.968 52.024 123.968 52.024 123.969 52.024C123.969 52.024 123.969 52.024 123.97 52.024C123.97 52.024 123.97 52.024 123.971 52.024C123.971 52.024 123.971 52.024 123.972 52.024C123.972 52.024 123.972 52.024 123.973 52.024C123.973 52.024 123.973 52.024 123.973 52.024C123.974 52.024 123.974 52.024 123.974 52.024C123.975 52.024 123.975 52.024 123.975 52.024C123.976 52.024 123.976 52.024 123.976 52.024C123.977 52.024 123.977 52.024 123.977 52.024C123.978 52.024 123.978 52.024 123.978 52.024C123.978 52.024 123.979 52.024 123.979 52.024C123.979 52.024 123.98 52.024 123.98 52.024C123.98 52.024 123.981 52.024 123.981 52.024C123.981 52.024 123.982 52.024 123.982 52.024C123.982 52.024 123.983 52.024 123.983 52.024C123.983 52.024 123.984 52.024 123.984 52.024C123.984 52.024 123.984 52.024 123.985 52.024C123.985 52.024 123.985 52.024 123.986 52.024C123.986 52.024 123.986 52.024 123.987 52.024C123.987 52.024 123.987 52.024 123.988 52.024C123.988 52.024 123.988 52.024 123.989 52.024C123.989 52.024 123.989 52.024 123.99 52.024C123.99 52.024 123.99 52.024 123.99 52.024C123.991 52.024 123.991 52.024 123.991 52.024C123.992 52.024 123.992 52.024 123.992 52.024C123.993 52.024 123.993 52.024 123.993 52.024C123.994 52.024 123.994 52.024 123.994 52.024C123.995 52.024 123.995 52.024 123.995 52.024C123.995 52.024 123.996 52.024 123.996 52.024C123.996 52.024 123.997 52.024 123.997 52.024C123.997 52.024 123.998 52.024 123.998 52.024C123.998 52.024 123.999 52.024 123.999 52.024C123.999 52.024 124 52.024 124 52.024C124 52.024 124 52.024 124.001 52.024C124.001 52.024 124.001 52.024 124.002 52.024C124.002 52.024 124.002 52.024 124.003 52.024C124.003 52.024 124.003 52.024 124.004 52.024C124.004 52.024 124.004 52.024 124.005 52.024C124.005 52.024 124.005 52.024 124.005 52.024C124.006 52.024 124.006 52.024 124.006 52.024C124.007 52.024 124.007 52.024 124.007 52.024C124.008 52.024 124.008 52.024 124.008 52.024C124.009 52.024 124.009 52.024 124.009 52.024C124.01 52.024 124.01 52.024 124.01 52.024C124.01 52.024 124.011 52.024 124.011 52.024C124.011 52.024 124.012 52.024 124.012 52.024C124.012 52.024 124.013 52.024 124.013 52.024C124.013 52.024 124.014 52.024 124.014 52.024C124.014 52.024 124.015 52.024 124.015 52.024C124.015 52.024 124.015 52.024 124.016 52.024C124.016 52.024 124.016 52.024 124.017 52.024C124.017 52.024 124.017 52.024 124.018 52.024C124.018 52.024 124.018 52.024 124.019 52.024C124.019 52.024 124.019 52.024 124.02 52.024C124.02 52.024 124.02 52.024 124.02 52.024C124.021 52.024 124.021 52.024 124.021 52.024C124.022 52.024 124.022 52.024 124.022 52.024C124.023 52.024 124.023 52.024 124.023 52.024C124.024 52.024 124.024 52.024 124.024 52.024C124.025 52.024 124.025 52.024 124.025 52.024C124.025 52.024 124.026 52.024 124.026 52.024C124.026 52.024 124.027 52.024 124.027 52.024C124.027 52.024 124.028 52.024 124.028 52.024C124.028 52.024 124.029 52.024 124.029 52.024C124.029 52.024 124.03 52.024 124.03 52.024C124.03 52.024 124.03 52.024 124.031 52.024C124.031 52.024 124.031 52.024 124.032 52.024C124.032 52.024 124.032 52.024 124.033 52.024C124.033 52.024 124.033 52.024 124.034 52.024C124.034 52.024 124.034 52.024 124.034 52.024C124.035 52.024 124.035 52.024 124.035 52.024C124.036 52.024 124.036 52.024 124.036 52.024C124.037 52.024 124.037 52.024 124.037 52.024C124.038 52.024 124.038 52.024 124.038 52.024C124.039 52.024 124.039 52.024 124.039 52.024C124.039 52.024 124.04 52.024 124.04 52.024C124.04 52.024 124.041 52.024 124.041 52.024C124.041 52.024 124.042 52.024 124.042 52.024C124.042 52.024 124.043 52.024 124.043 52.024C124.043 52.024 124.043 52.024 124.044 52.024C124.044 52.024 124.044 52.024 124.045 52.024C124.045 52.024 124.045 52.024 124.046 52.024C124.046 52.024 124.046 52.024 124.047 52.024C124.047 52.024 124.047 52.024 124.047 52.024C124.048 52.024 124.048 52.024 124.048 52.024C124.049 52.024 124.049 52.024 124.049 52.024C124.05 52.024 124.05 52.024 124.05 52.024C124.051 52.024 124.051 52.024 124.051 52.024C124.051 52.024 124.052 52.024 124.052 52.024C124.052 52.024 124.053 52.024 124.053 52.024C124.053 52.024 124.054 52.024 124.054 52.024C124.054 52.024 124.055 52.024 124.055 52.024C124.055 52.024 124.056 52.024 124.056 52.024C124.056 52.024 124.056 52.024 124.057 52.024C124.057 52.024 124.057 52.024 124.058 52.024C124.058 52.024 124.058 52.024 124.059 52.024C124.059 52.024 124.059 52.024 124.06 52.024C124.06 52.024 124.06 52.024 124.06 52.024C124.061 52.024 124.061 52.024 124.061 52.024C124.062 52.024 124.062 52.024 124.062 52.024C124.063 52.024 124.063 52.024 124.063 52.024C124.064 52.024 124.064 52.024 124.064 52.024C124.064 52.024 124.065 52.024 124.065 52.024C124.065 52.024 124.066 52.024 124.066 52.024C124.066 52.024 124.067 52.024 124.067 52.024C124.067 52.024 124.068 52.024 124.068 52.024C124.068 52.024 124.068 52.024 124.069 52.024C124.069 52.024 124.069 52.024 124.07 52.024C124.07 52.024 124.07 52.024 124.071 52.024C124.071 52.024 124.071 52.024 124.072 52.024C124.072 52.024 124.072 52.024 124.072 52.024C124.073 52.024 124.073 52.024 124.073 52.024C124.074 52.024 124.074 52.024 124.074 52.024C124.075 52.024 124.075 52.024 124.075 52.024C124.076 52.024 124.076 52.024 124.076 52.024C124.076 52.024 124.077 52.024 124.077 52.024C124.077 52.024 124.078 52.024 124.078 52.024C124.078 52.024 124.079 52.024 124.079 52.024C124.079 52.024 124.079 52.024 124.08 52.024C124.08 52.024 124.08 52.024 124.081 52.024C124.081 52.024 124.081 52.024 124.082 52.024C124.082 52.024 124.082 52.024 124.083 52.024C124.083 52.024 124.083 52.024 124.083 52.024C124.084 52.024 124.084 52.024 124.084 52.024C124.085 52.024 124.085 52.024 124.085 52.024C124.086 52.024 124.086 52.024 124.086 52.024C124.087 52.024 124.087 52.024 124.087 52.024C124.087 52.024 124.088 52.024 124.088 52.024C124.088 52.024 124.089 52.024 124.089 52.024C124.089 52.024 124.09 52.024 124.09 52.024C124.09 52.024 124.09 52.024 124.091 52.024C124.091 52.024 124.091 52.024 124.092 52.024C124.092 52.024 124.092 52.024 124.093 52.024C124.093 52.024 124.093 52.024 124.094 52.024C124.094 52.024 124.094 52.024 124.094 52.024C124.095 52.024 124.095 52.024 124.095 52.024C124.096 52.024 124.096 52.024 124.096 52.024C124.097 52.024 124.097 52.024 124.097 52.024C124.098 52.024 124.098 52.024 124.098 52.024C124.098 52.024 124.099 52.024 124.099 52.024C124.099 52.024 124.1 52.024 124.1 52.024C124.1 52.024 124.101 52.024 124.101 52.024C124.101 52.024 124.101 52.024 124.102 52.024C124.102 52.024 124.102 52.024 124.103 52.024C124.103 52.024 124.103 52.024 124.104 52.024C124.104 52.024 124.104 52.024 124.105 52.024C124.105 52.024 124.105 52.024 124.105 52.024C124.106 52.024 124.106 52.024 124.106 52.024C124.107 52.024 124.107 52.024 124.107 52.024C124.108 52.024 124.108 52.024 124.108 52.024C124.108 52.024 124.109 52.024 124.109 52.024C124.109 52.024 124.11 52.024 124.11 52.024C124.11 52.024 124.111 52.024 124.111 52.024C124.111 52.024 124.112 52.024 124.112 52.024C124.112 52.024 124.112 52.024 124.113 52.024C124.113 52.024 124.113 52.024 124.114 52.024C124.114 52.024 124.114 52.024 124.115 52.024C124.115 52.024 124.115 52.024 124.115 52.024C124.116 52.024 124.116 52.024 124.116 52.024C124.117 52.024 124.117 52.024 124.117 52.024C124.118 52.024 124.118 52.024 124.118 52.024C124.118 52.024 124.119 52.024 124.119 52.024C124.119 52.024 124.12 52.024 124.12 52.024C124.12 52.024 124.121 52.024 124.121 52.024C124.121 52.024 124.122 52.024 124.122 52.024C124.122 52.024 124.122 52.024 124.123 52.024C124.123 52.024 124.123 52.024 124.124 52.024C124.124 52.024 124.124 52.024 124.125 52.024C124.125 52.024 124.125 52.024 124.125 52.024C124.126 52.024 124.126 52.024 124.126 52.024C124.127 52.024 124.127 52.024 124.127 52.024C124.128 52.024 124.128 52.024 124.128 52.024C124.128 52.024 124.129 52.024 124.129 52.024C124.129 52.024 124.13 52.024 124.13 52.024C124.13 52.024 124.131 52.024 124.131 52.024C124.131 52.024 124.131 52.024 124.132 52.024C124.132 52.024 124.132 52.024 124.133 52.024C124.133 52.024 124.133 52.024 124.134 52.024C124.134 52.024 124.134 52.024 124.134 52.024C124.135 52.024 124.135 52.024 124.135 52.024C124.136 52.024 124.136 52.024 124.136 52.024C124.137 52.024 124.137 52.024 124.137 52.024C124.138 52.024 124.138 52.024 124.138 52.024C124.138 52.024 124.139 52.024 124.139 52.024C124.139 52.024 124.14 52.024 124.14 52.024C124.14 52.024 124.141 52.024 124.141 52.024C124.141 52.024 124.141 52.024 124.142 52.024C124.142 52.024 124.142 52.024 124.143 52.024C124.143 52.024 124.143 52.024 124.144 52.024C124.144 52.024 124.144 52.024 124.144 52.024C124.145 52.024 124.145 52.024 124.145 52.024C124.146 52.024 124.146 52.024 124.146 52.024C124.147 52.024 124.147 52.024 124.147 52.024C124.147 52.024 124.148 52.024 124.148 52.024C124.148 52.024 124.149 52.024 124.149 52.024C124.149 52.024 124.15 52.024 124.15 52.024C124.15 52.024 124.15 52.024 124.151 52.024C124.151 52.024 124.151 52.024 124.152 52.024C124.152 52.024 124.152 52.024 124.153 52.024C124.153 52.024 124.153 52.024 124.153 52.024C124.154 52.024 124.154 52.024 124.154 52.024C124.155 52.024 124.155 52.024 124.155 52.024C124.156 52.024 124.156 52.024 124.156 52.024C124.156 52.024 124.157 52.024 124.157 52.024C124.157 52.024 124.158 52.024 124.158 52.024C124.158 52.024 124.159 52.024 124.159 52.024C124.159 52.024 124.159 52.024 124.16 52.024C124.16 52.024 124.16 52.024 124.161 52.024C124.161 52.024 124.161 52.024 124.162 52.024C124.162 52.024 124.162 52.024 124.162 52.024C124.163 52.024 124.163 52.024 124.163 52.024C124.164 52.024 124.164 52.024 124.164 52.024C124.164 52.024 124.165 52.024 124.165 52.024C124.165 52.024 124.166 52.024 124.166 52.024C124.166 52.024 124.167 52.024 124.167 52.024C124.167 52.024 124.167 52.024 124.168 52.024C124.168 52.024 124.168 52.024 124.169 52.024C124.169 52.024 124.169 52.024 124.17 52.024C124.17 52.024 124.17 52.024 124.17 52.024C124.171 52.024 124.171 52.024 124.171 52.024C124.172 52.024 124.172 52.024 124.172 52.024C124.173 52.024 124.173 52.024 124.173 52.024C124.173 52.024 124.174 52.024 124.174 52.024C124.174 52.024 124.175 52.024 124.175 52.024C124.175 52.024 124.176 52.024 124.176 52.024C124.176 52.024 124.176 52.024 124.177 52.024C124.177 52.024 124.177 52.024 124.178 52.024C124.178 52.024 124.178 52.024 124.179 52.024C124.179 52.024 124.179 52.024 124.179 52.024C124.18 52.024 124.18 52.024 124.18 52.024C124.181 52.024 124.181 52.024 124.181 52.024C124.181 52.024 124.182 52.024 124.182 52.024C124.182 52.024 124.183 52.024 124.183 52.024C124.183 52.024 124.184 52.024 124.184 52.024C124.184 52.024 124.184 52.024 124.185 52.024C124.185 52.024 124.185 52.024 124.186 52.024C124.186 52.024 124.186 52.024 124.187 52.024C124.187 52.024 124.187 52.024 124.187 52.024C124.188 52.024 124.188 52.024 124.188 52.024C124.189 52.024 124.189 52.024 124.189 52.024C124.189 52.024 124.19 52.024 124.19 52.024C124.19 52.024 124.191 52.024 124.191 52.024C124.191 52.024 124.192 52.024 124.192 52.024C124.192 52.024 124.192 52.024 124.193 52.024C124.193 52.024 124.193 52.024 124.194 52.024C124.194 52.024 124.194 52.024 124.195 52.024C124.195 52.024 124.195 52.024 124.195 52.024C124.196 52.024 124.196 52.024 124.196 52.024C124.197 52.024 124.197 52.024 124.197 52.024C124.197 52.024 124.198 52.024 124.198 52.024C124.198 52.024 124.199 52.024 124.199 52.024C124.199 52.024 124.2 52.024 124.2 52.024C124.2 52.024 124.2 52.024 124.201 52.024C124.201 52.024 124.201 52.024 124.202 52.024C124.202 52.024 124.202 52.024 124.203 52.024C124.203 52.024 124.203 52.024 124.203 52.024C124.204 52.024 124.204 52.024 124.204 52.024C124.205 52.024 124.205 52.024 124.205 52.024C124.205 52.024 124.206 52.024 124.206 52.024C124.206 52.024 124.207 52.024 124.207 52.024C124.207 52.024 124.208 52.024 124.208 52.024C124.208 52.024 124.208 52.024 124.209 52.024C124.209 52.024 124.209 52.024 124.21 52.024C124.21 52.024 124.21 52.024 124.21 52.024C124.211 52.024 124.211 52.024 124.211 52.024C124.212 52.024 124.212 52.024 124.212 52.024C124.213 52.024 124.213 52.024 124.213 52.024C124.213 52.024 124.214 52.024 124.214 52.024C124.214 52.024 124.215 52.024 124.215 52.024C124.215 52.024 124.215 52.024 124.216 52.024C124.216 52.024 124.216 52.024 124.217 52.024C124.217 52.024 124.217 52.024 124.218 52.024C124.218 52.024 124.218 52.024 124.218 52.024C124.219 52.024 124.219 52.024 124.219 52.024C124.22 52.024 124.22 52.024 124.22 52.024C124.22 52.024 124.221 52.024 124.221 52.024C124.221 52.024 124.222 52.024 124.222 52.024C124.222 52.024 124.223 52.024 124.223 52.024C124.223 52.024 124.223 52.024 124.224 52.024C124.224 52.024 124.224 52.024 124.225 52.024C124.225 52.024 124.225 52.024 124.225 52.024C124.226 52.024 124.226 52.024 124.226 52.024C124.227 52.024 124.227 52.024 124.227 52.024C124.228 52.024 124.228 52.024 124.228 52.024C124.228 52.024 124.229 52.024 124.229 52.024C124.229 52.024 124.23 52.024 124.23 52.024C124.23 52.024 124.23 52.024 124.231 52.024C124.231 52.024 124.231 52.024 124.232 52.024C124.232 52.024 124.232 52.024 124.232 52.024C124.233 52.024 124.233 52.024 124.233 52.024C124.234 52.024 124.234 52.024 124.234 52.024C124.235 52.024 124.235 52.024 124.235 52.024C124.235 52.024 124.236 52.024 124.236 52.024C124.236 52.024 124.237 52.024 124.237 52.024C124.237 52.024 124.237 52.024 124.238 52.024C124.238 52.024 124.238 52.024 124.239 52.024C124.239 52.024 124.239 52.024 124.24 52.024C124.24 52.024 124.24 52.024 124.24 52.024C124.241 52.024 124.241 52.024 124.241 52.024V50.024C124.241 50.024 124.241 50.024 124.24 50.024C124.24 50.024 124.24 50.024 124.24 50.024C124.239 50.024 124.239 50.024 124.239 50.024C124.238 50.024 124.238 50.024 124.238 50.024C124.237 50.024 124.237 50.024 124.237 50.024C124.237 50.024 124.236 50.024 124.236 50.024C124.236 50.024 124.235 50.024 124.235 50.024C124.235 50.024 124.235 50.024 124.234 50.024C124.234 50.024 124.234 50.024 124.233 50.024C124.233 50.024 124.233 50.024 124.232 50.024C124.232 50.024 124.232 50.024 124.232 50.024C124.231 50.024 124.231 50.024 124.231 50.024C124.23 50.024 124.23 50.024 124.23 50.024C124.23 50.024 124.229 50.024 124.229 50.024C124.229 50.024 124.228 50.024 124.228 50.024C124.228 50.024 124.228 50.024 124.227 50.024C124.227 50.024 124.227 50.024 124.226 50.024C124.226 50.024 124.226 50.024 124.225 50.024C124.225 50.024 124.225 50.024 124.225 50.024C124.224 50.024 124.224 50.024 124.224 50.024C124.223 50.024 124.223 50.024 124.223 50.024C124.223 50.024 124.222 50.024 124.222 50.024C124.222 50.024 124.221 50.024 124.221 50.024C124.221 50.024 124.22 50.024 124.22 50.024C124.22 50.024 124.22 50.024 124.219 50.024C124.219 50.024 124.219 50.024 124.218 50.024C124.218 50.024 124.218 50.024 124.218 50.024C124.217 50.024 124.217 50.024 124.217 50.024C124.216 50.024 124.216 50.024 124.216 50.024C124.215 50.024 124.215 50.024 124.215 50.024C124.215 50.024 124.214 50.024 124.214 50.024C124.214 50.024 124.213 50.024 124.213 50.024C124.213 50.024 124.213 50.024 124.212 50.024C124.212 50.024 124.212 50.024 124.211 50.024C124.211 50.024 124.211 50.024 124.21 50.024C124.21 50.024 124.21 50.024 124.21 50.024C124.209 50.024 124.209 50.024 124.209 50.024C124.208 50.024 124.208 50.024 124.208 50.024C124.208 50.024 124.207 50.024 124.207 50.024C124.207 50.024 124.206 50.024 124.206 50.024C124.206 50.024 124.205 50.024 124.205 50.024C124.205 50.024 124.205 50.024 124.204 50.024C124.204 50.024 124.204 50.024 124.203 50.024C124.203 50.024 124.203 50.024 124.203 50.024C124.202 50.024 124.202 50.024 124.202 50.024C124.201 50.024 124.201 50.024 124.201 50.024C124.2 50.024 124.2 50.024 124.2 50.024C124.2 50.024 124.199 50.024 124.199 50.024C124.199 50.024 124.198 50.024 124.198 50.024C124.198 50.024 124.197 50.024 124.197 50.024C124.197 50.024 124.197 50.024 124.196 50.024C124.196 50.024 124.196 50.024 124.195 50.024C124.195 50.024 124.195 50.024 124.195 50.024C124.194 50.024 124.194 50.024 124.194 50.024C124.193 50.024 124.193 50.024 124.193 50.024C124.192 50.024 124.192 50.024 124.192 50.024C124.192 50.024 124.191 50.024 124.191 50.024C124.191 50.024 124.19 50.024 124.19 50.024C124.19 50.024 124.189 50.024 124.189 50.024C124.189 50.024 124.189 50.024 124.188 50.024C124.188 50.024 124.188 50.024 124.187 50.024C124.187 50.024 124.187 50.024 124.187 50.024C124.186 50.024 124.186 50.024 124.186 50.024C124.185 50.024 124.185 50.024 124.185 50.024C124.184 50.024 124.184 50.024 124.184 50.024C124.184 50.024 124.183 50.024 124.183 50.024C124.183 50.024 124.182 50.024 124.182 50.024C124.182 50.024 124.181 50.024 124.181 50.024C124.181 50.024 124.181 50.024 124.18 50.024C124.18 50.024 124.18 50.024 124.179 50.024C124.179 50.024 124.179 50.024 124.179 50.024C124.178 50.024 124.178 50.024 124.178 50.024C124.177 50.024 124.177 50.024 124.177 50.024C124.176 50.024 124.176 50.024 124.176 50.024C124.176 50.024 124.175 50.024 124.175 50.024C124.175 50.024 124.174 50.024 124.174 50.024C124.174 50.024 124.173 50.024 124.173 50.024C124.173 50.024 124.173 50.024 124.172 50.024C124.172 50.024 124.172 50.024 124.171 50.024C124.171 50.024 124.171 50.024 124.17 50.024C124.17 50.024 124.17 50.024 124.17 50.024C124.169 50.024 124.169 50.024 124.169 50.024C124.168 50.024 124.168 50.024 124.168 50.024C124.167 50.024 124.167 50.024 124.167 50.024C124.167 50.024 124.166 50.024 124.166 50.024C124.166 50.024 124.165 50.024 124.165 50.024C124.165 50.024 124.164 50.024 124.164 50.024C124.164 50.024 124.164 50.024 124.163 50.024C124.163 50.024 124.163 50.024 124.162 50.024C124.162 50.024 124.162 50.024 124.162 50.024C124.161 50.024 124.161 50.024 124.161 50.024C124.16 50.024 124.16 50.024 124.16 50.024C124.159 50.024 124.159 50.024 124.159 50.024C124.159 50.024 124.158 50.024 124.158 50.024C124.158 50.024 124.157 50.024 124.157 50.024C124.157 50.024 124.156 50.024 124.156 50.024C124.156 50.024 124.156 50.024 124.155 50.024C124.155 50.024 124.155 50.024 124.154 50.024C124.154 50.024 124.154 50.024 124.153 50.024C124.153 50.024 124.153 50.024 124.153 50.024C124.152 50.024 124.152 50.024 124.152 50.024C124.151 50.024 124.151 50.024 124.151 50.024C124.15 50.024 124.15 50.024 124.15 50.024C124.15 50.024 124.149 50.024 124.149 50.024C124.149 50.024 124.148 50.024 124.148 50.024C124.148 50.024 124.147 50.024 124.147 50.024C124.147 50.024 124.147 50.024 124.146 50.024C124.146 50.024 124.146 50.024 124.145 50.024C124.145 50.024 124.145 50.024 124.144 50.024C124.144 50.024 124.144 50.024 124.144 50.024C124.143 50.024 124.143 50.024 124.143 50.024C124.142 50.024 124.142 50.024 124.142 50.024C124.141 50.024 124.141 50.024 124.141 50.024C124.141 50.024 124.14 50.024 124.14 50.024C124.14 50.024 124.139 50.024 124.139 50.024C124.139 50.024 124.138 50.024 124.138 50.024C124.138 50.024 124.138 50.024 124.137 50.024C124.137 50.024 124.137 50.024 124.136 50.024C124.136 50.024 124.136 50.024 124.135 50.024C124.135 50.024 124.135 50.024 124.134 50.024C124.134 50.024 124.134 50.024 124.134 50.024C124.133 50.024 124.133 50.024 124.133 50.024C124.132 50.024 124.132 50.024 124.132 50.024C124.131 50.024 124.131 50.024 124.131 50.024C124.131 50.024 124.13 50.024 124.13 50.024C124.13 50.024 124.129 50.024 124.129 50.024C124.129 50.024 124.128 50.024 124.128 50.024C124.128 50.024 124.128 50.024 124.127 50.024C124.127 50.024 124.127 50.024 124.126 50.024C124.126 50.024 124.126 50.024 124.125 50.024C124.125 50.024 124.125 50.024 124.125 50.024C124.124 50.024 124.124 50.024 124.124 50.024C124.123 50.024 124.123 50.024 124.123 50.024C124.122 50.024 124.122 50.024 124.122 50.024C124.122 50.024 124.121 50.024 124.121 50.024C124.121 50.024 124.12 50.024 124.12 50.024C124.12 50.024 124.119 50.024 124.119 50.024C124.119 50.024 124.118 50.024 124.118 50.024C124.118 50.024 124.118 50.024 124.117 50.024C124.117 50.024 124.117 50.024 124.116 50.024C124.116 50.024 124.116 50.024 124.115 50.024C124.115 50.024 124.115 50.024 124.115 50.024C124.114 50.024 124.114 50.024 124.114 50.024C124.113 50.024 124.113 50.024 124.113 50.024C124.112 50.024 124.112 50.024 124.112 50.024C124.112 50.024 124.111 50.024 124.111 50.024C124.111 50.024 124.11 50.024 124.11 50.024C124.11 50.024 124.109 50.024 124.109 50.024C124.109 50.024 124.108 50.024 124.108 50.024C124.108 50.024 124.108 50.024 124.107 50.024C124.107 50.024 124.107 50.024 124.106 50.024C124.106 50.024 124.106 50.024 124.105 50.024C124.105 50.024 124.105 50.024 124.105 50.024C124.104 50.024 124.104 50.024 124.104 50.024C124.103 50.024 124.103 50.024 124.103 50.024C124.102 50.024 124.102 50.024 124.102 50.024C124.101 50.024 124.101 50.024 124.101 50.024C124.101 50.024 124.1 50.024 124.1 50.024C124.1 50.024 124.099 50.024 124.099 50.024C124.099 50.024 124.098 50.024 124.098 50.024C124.098 50.024 124.098 50.024 124.097 50.024C124.097 50.024 124.097 50.024 124.096 50.024C124.096 50.024 124.096 50.024 124.095 50.024C124.095 50.024 124.095 50.024 124.094 50.024C124.094 50.024 124.094 50.024 124.094 50.024C124.093 50.024 124.093 50.024 124.093 50.024C124.092 50.024 124.092 50.024 124.092 50.024C124.091 50.024 124.091 50.024 124.091 50.024C124.09 50.024 124.09 50.024 124.09 50.024C124.09 50.024 124.089 50.024 124.089 50.024C124.089 50.024 124.088 50.024 124.088 50.024C124.088 50.024 124.087 50.024 124.087 50.024C124.087 50.024 124.087 50.024 124.086 50.024C124.086 50.024 124.086 50.024 124.085 50.024C124.085 50.024 124.085 50.024 124.084 50.024C124.084 50.024 124.084 50.024 124.083 50.024C124.083 50.024 124.083 50.024 124.083 50.024C124.082 50.024 124.082 50.024 124.082 50.024C124.081 50.024 124.081 50.024 124.081 50.024C124.08 50.024 124.08 50.024 124.08 50.024C124.079 50.024 124.079 50.024 124.079 50.024C124.079 50.024 124.078 50.024 124.078 50.024C124.078 50.024 124.077 50.024 124.077 50.024C124.077 50.024 124.076 50.024 124.076 50.024C124.076 50.024 124.076 50.024 124.075 50.024C124.075 50.024 124.075 50.024 124.074 50.024C124.074 50.024 124.074 50.024 124.073 50.024C124.073 50.024 124.073 50.024 124.072 50.024C124.072 50.024 124.072 50.024 124.072 50.024C124.071 50.024 124.071 50.024 124.071 50.024C124.07 50.024 124.07 50.024 124.07 50.024C124.069 50.024 124.069 50.024 124.069 50.024C124.068 50.024 124.068 50.024 124.068 50.024C124.068 50.024 124.067 50.024 124.067 50.024C124.067 50.024 124.066 50.024 124.066 50.024C124.066 50.024 124.065 50.024 124.065 50.024C124.065 50.024 124.064 50.024 124.064 50.024C124.064 50.024 124.064 50.024 124.063 50.024C124.063 50.024 124.063 50.024 124.062 50.024C124.062 50.024 124.062 50.024 124.061 50.024C124.061 50.024 124.061 50.024 124.06 50.024C124.06 50.024 124.06 50.024 124.06 50.024C124.059 50.024 124.059 50.024 124.059 50.024C124.058 50.024 124.058 50.024 124.058 50.024C124.057 50.024 124.057 50.024 124.057 50.024C124.056 50.024 124.056 50.024 124.056 50.024C124.056 50.024 124.055 50.024 124.055 50.024C124.055 50.024 124.054 50.024 124.054 50.024C124.054 50.024 124.053 50.024 124.053 50.024C124.053 50.024 124.052 50.024 124.052 50.024C124.052 50.024 124.051 50.024 124.051 50.024C124.051 50.024 124.051 50.024 124.05 50.024C124.05 50.024 124.05 50.024 124.049 50.024C124.049 50.024 124.049 50.024 124.048 50.024C124.048 50.024 124.048 50.024 124.047 50.024C124.047 50.024 124.047 50.024 124.047 50.024C124.046 50.024 124.046 50.024 124.046 50.024C124.045 50.024 124.045 50.024 124.045 50.024C124.044 50.024 124.044 50.024 124.044 50.024C124.043 50.024 124.043 50.024 124.043 50.024C124.043 50.024 124.042 50.024 124.042 50.024C124.042 50.024 124.041 50.024 124.041 50.024C124.041 50.024 124.04 50.024 124.04 50.024C124.04 50.024 124.039 50.024 124.039 50.024C124.039 50.024 124.039 50.024 124.038 50.024C124.038 50.024 124.038 50.024 124.037 50.024C124.037 50.024 124.037 50.024 124.036 50.024C124.036 50.024 124.036 50.024 124.035 50.024C124.035 50.024 124.035 50.024 124.034 50.024C124.034 50.024 124.034 50.024 124.034 50.024C124.033 50.024 124.033 50.024 124.033 50.024C124.032 50.024 124.032 50.024 124.032 50.024C124.031 50.024 124.031 50.024 124.031 50.024C124.03 50.024 124.03 50.024 124.03 50.024C124.03 50.024 124.029 50.024 124.029 50.024C124.029 50.024 124.028 50.024 124.028 50.024C124.028 50.024 124.027 50.024 124.027 50.024C124.027 50.024 124.026 50.024 124.026 50.024C124.026 50.024 124.025 50.024 124.025 50.024C124.025 50.024 124.025 50.024 124.024 50.024C124.024 50.024 124.024 50.024 124.023 50.024C124.023 50.024 124.023 50.024 124.022 50.024C124.022 50.024 124.022 50.024 124.021 50.024C124.021 50.024 124.021 50.024 124.02 50.024C124.02 50.024 124.02 50.024 124.02 50.024C124.019 50.024 124.019 50.024 124.019 50.024C124.018 50.024 124.018 50.024 124.018 50.024C124.017 50.024 124.017 50.024 124.017 50.024C124.016 50.024 124.016 50.024 124.016 50.024C124.015 50.024 124.015 50.024 124.015 50.024C124.015 50.024 124.014 50.024 124.014 50.024C124.014 50.024 124.013 50.024 124.013 50.024C124.013 50.024 124.012 50.024 124.012 50.024C124.012 50.024 124.011 50.024 124.011 50.024C124.011 50.024 124.01 50.024 124.01 50.024C124.01 50.024 124.01 50.024 124.009 50.024C124.009 50.024 124.009 50.024 124.008 50.024C124.008 50.024 124.008 50.024 124.007 50.024C124.007 50.024 124.007 50.024 124.006 50.024C124.006 50.024 124.006 50.024 124.005 50.024C124.005 50.024 124.005 50.024 124.005 50.024C124.004 50.024 124.004 50.024 124.004 50.024C124.003 50.024 124.003 50.024 124.003 50.024C124.002 50.024 124.002 50.024 124.002 50.024C124.001 50.024 124.001 50.024 124.001 50.024C124 50.024 124 50.024 124 50.024C124 50.024 123.999 50.024 123.999 50.024C123.999 50.024 123.998 50.024 123.998 50.024C123.998 50.024 123.997 50.024 123.997 50.024C123.997 50.024 123.996 50.024 123.996 50.024C123.996 50.024 123.995 50.024 123.995 50.024C123.995 50.024 123.995 50.024 123.994 50.024C123.994 50.024 123.994 50.024 123.993 50.024C123.993 50.024 123.993 50.024 123.992 50.024C123.992 50.024 123.992 50.024 123.991 50.024C123.991 50.024 123.991 50.024 123.99 50.024C123.99 50.024 123.99 50.024 123.99 50.024C123.989 50.024 123.989 50.024 123.989 50.024C123.988 50.024 123.988 50.024 123.988 50.024C123.987 50.024 123.987 50.024 123.987 50.024C123.986 50.024 123.986 50.024 123.986 50.024C123.985 50.024 123.985 50.024 123.985 50.024C123.984 50.024 123.984 50.024 123.984 50.024C123.984 50.024 123.983 50.024 123.983 50.024C123.983 50.024 123.982 50.024 123.982 50.024C123.982 50.024 123.981 50.024 123.981 50.024C123.981 50.024 123.98 50.024 123.98 50.024C123.98 50.024 123.979 50.024 123.979 50.024C123.979 50.024 123.978 50.024 123.978 50.024C123.978 50.024 123.978 50.024 123.977 50.024C123.977 50.024 123.977 50.024 123.976 50.024C123.976 50.024 123.976 50.024 123.975 50.024C123.975 50.024 123.975 50.024 123.974 50.024C123.974 50.024 123.974 50.024 123.973 50.024C123.973 50.024 123.973 50.024 123.973 50.024C123.972 50.024 123.972 50.024 123.972 50.024C123.971 50.024 123.971 50.024 123.971 50.024C123.97 50.024 123.97 50.024 123.97 50.024C123.969 50.024 123.969 50.024 123.969 50.024C123.968 50.024 123.968 50.024 123.968 50.024C123.967 50.024 123.967 50.024 123.967 50.024C123.966 50.024 123.966 50.024 123.966 50.024C123.966 50.024 123.965 50.024 123.965 50.024C123.965 50.024 123.964 50.024 123.964 50.024C123.964 50.024 123.963 50.024 123.963 50.024C123.963 50.024 123.962 50.024 123.962 50.024C123.962 50.024 123.961 50.024 123.961 50.024C123.961 50.024 123.96 50.024 123.96 50.024C123.96 50.024 123.96 50.024 123.959 50.024C123.959 50.024 123.959 50.024 123.958 50.024C123.958 50.024 123.958 50.024 123.957 50.024C123.957 50.024 123.957 50.024 123.956 50.024C123.956 50.024 123.956 50.024 123.955 50.024C123.955 50.024 123.955 50.024 123.954 50.024C123.954 50.024 123.954 50.024 123.954 50.024C123.953 50.024 123.953 50.024 123.953 50.024C123.952 50.024 123.952 50.024 123.952 50.024C123.951 50.024 123.951 50.024 123.951 50.024C123.95 50.024 123.95 50.024 123.95 50.024C123.949 50.024 123.949 50.024 123.949 50.024C123.948 50.024 123.948 50.024 123.948 50.024C123.947 50.024 123.947 50.024 123.947 50.024C123.947 50.024 123.946 50.024 123.946 50.024C123.946 50.024 123.945 50.024 123.945 50.024C123.945 50.024 123.944 50.024 123.944 50.024C123.944 50.024 123.943 50.024 123.943 50.024C123.943 50.024 123.942 50.024 123.942 50.024C123.942 50.024 123.941 50.024 123.941 50.024C123.941 50.024 123.94 50.024 123.94 50.024C123.94 50.024 123.94 50.024 123.939 50.024C123.939 50.024 123.939 50.024 123.938 50.024C123.938 50.024 123.938 50.024 123.937 50.024C123.937 50.024 123.937 50.024 123.936 50.024C123.936 50.024 123.936 50.024 123.935 50.024C123.935 50.024 123.935 50.024 123.934 50.024C123.934 50.024 123.934 50.024 123.933 50.024C123.933 50.024 123.933 50.024 123.933 50.024C123.932 50.024 123.932 50.024 123.932 50.024C123.931 50.024 123.931 50.024 123.931 50.024C123.93 50.024 123.93 50.024 123.93 50.024C123.929 50.024 123.929 50.024 123.929 50.024C123.928 50.024 123.928 50.024 123.928 50.024C123.927 50.024 123.927 50.024 123.927 50.024C123.926 50.024 123.926 50.024 123.926 50.024C123.925 50.024 123.925 50.024 123.925 50.024C123.925 50.024 123.924 50.024 123.924 50.024C123.924 50.024 123.923 50.024 123.923 50.024C123.923 50.024 123.922 50.024 123.922 50.024C123.922 50.024 123.921 50.024 123.921 50.024C123.921 50.024 123.92 50.024 123.92 50.024C123.92 50.024 123.919 50.024 123.919 50.024C123.919 50.024 123.918 50.024 123.918 50.024C123.918 50.024 123.917 50.024 123.917 50.024C123.917 50.024 123.917 50.024 123.916 50.024C123.916 50.024 123.916 50.024 123.915 50.024C123.915 50.024 123.915 50.024 123.914 50.024C123.914 50.024 123.914 50.024 123.913 50.024C123.913 50.024 123.913 50.024 123.912 50.024C123.912 50.024 123.912 50.024 123.911 50.024C123.911 50.024 123.911 50.024 123.91 50.024C123.91 50.024 123.91 50.024 123.909 50.024C123.909 50.024 123.909 50.024 123.909 50.024C123.908 50.024 123.908 50.024 123.908 50.024C123.907 50.024 123.907 50.024 123.907 50.024C123.906 50.024 123.906 50.024 123.906 50.024C123.905 50.024 123.905 50.024 123.905 50.024C123.904 50.024 123.904 50.024 123.904 50.024C123.903 50.024 123.903 50.024 123.903 50.024C123.902 50.024 123.902 50.024 123.902 50.024C123.901 50.024 123.901 50.024 123.901 50.024C123.9 50.024 123.9 50.024 123.9 50.024C123.9 50.024 123.899 50.024 123.899 50.024C123.899 50.024 123.898 50.024 123.898 50.024C123.898 50.024 123.897 50.024 123.897 50.024C123.897 50.024 123.896 50.024 123.896 50.024C123.896 50.024 123.895 50.024 123.895 50.024C123.895 50.024 123.894 50.024 123.894 50.024C123.894 50.024 123.893 50.024 123.893 50.024C123.893 50.024 123.892 50.024 123.892 50.024C123.892 50.024 123.891 50.024 123.891 50.024C123.891 50.024 123.89 50.024 123.89 50.024C123.89 50.024 123.89 50.024 123.889 50.024C123.889 50.024 123.889 50.024 123.888 50.024C123.888 50.024 123.888 50.024 123.887 50.024C123.887 50.024 123.887 50.024 123.886 50.024C123.886 50.024 123.886 50.024 123.885 50.024C123.885 50.024 123.885 50.024 123.884 50.024C123.884 50.024 123.884 50.024 123.883 50.024C123.883 50.024 123.883 50.024 123.882 50.024C123.882 50.024 123.882 50.024 123.881 50.024C123.881 50.024 123.881 50.024 123.88 50.024C123.88 50.024 123.88 50.024 123.879 50.024C123.879 50.024 123.879 50.024 123.879 50.024C123.878 50.024 123.878 50.024 123.878 50.024C123.877 50.024 123.877 50.024 123.877 50.024C123.876 50.024 123.876 50.024 123.876 50.024C123.875 50.024 123.875 50.024 123.875 50.024C123.874 50.024 123.874 50.024 123.874 50.024C123.873 50.024 123.873 50.024 123.873 50.024C123.872 50.024 123.872 50.024 123.872 50.024C123.871 50.024 123.871 50.024 123.871 50.024C123.87 50.024 123.87 50.024 123.87 50.024C123.869 50.024 123.869 50.024 123.869 50.024C123.868 50.024 123.868 50.024 123.868 50.024C123.868 50.024 123.867 50.024 123.867 50.024C123.867 50.024 123.866 50.024 123.866 50.024C123.866 50.024 123.865 50.024 123.865 50.024C123.865 50.024 123.864 50.024 123.864 50.024C123.864 50.024 123.863 50.024 123.863 50.024C123.863 50.024 123.862 50.024 123.862 50.024C123.862 50.024 123.861 50.024 123.861 50.024C123.861 50.024 123.86 50.024 123.86 50.024C123.86 50.024 123.859 50.024 123.859 50.024C123.859 50.024 123.858 50.024 123.858 50.024C123.858 50.024 123.857 50.024 123.857 50.024C123.857 50.024 123.856 50.024 123.856 50.024C123.856 50.024 123.855 50.024 123.855 50.024C123.855 50.024 123.854 50.024 123.854 50.024C123.854 50.024 123.854 50.024 123.853 50.024C123.853 50.024 123.853 50.024 123.852 50.024C123.852 50.024 123.852 50.024 123.851 50.024C123.851 50.024 123.851 50.024 123.85 50.024C123.85 50.024 123.85 50.024 123.849 50.024C123.849 50.024 123.849 50.024 123.848 50.024C123.848 50.024 123.848 50.024 123.847 50.024C123.847 50.024 123.847 50.024 123.846 50.024C123.846 50.024 123.846 50.024 123.845 50.024C123.845 50.024 123.845 50.024 123.844 50.024C123.844 50.024 123.844 50.024 123.843 50.024C123.843 50.024 123.843 50.024 123.842 50.024C123.842 50.024 123.842 50.024 123.841 50.024C123.841 50.024 123.841 50.024 123.84 50.024C123.84 50.024 123.84 50.024 123.839 50.024C123.839 50.024 123.839 50.024 123.839 50.024C123.838 50.024 123.838 50.024 123.838 50.024C123.837 50.024 123.837 50.024 123.837 50.024C123.836 50.024 123.836 50.024 123.836 50.024C123.835 50.024 123.835 50.024 123.835 50.024C123.834 50.024 123.834 50.024 123.834 50.024C123.833 50.024 123.833 50.024 123.833 50.024C123.832 50.024 123.832 50.024 123.832 50.024C123.831 50.024 123.831 50.024 123.831 50.024C123.83 50.024 123.83 50.024 123.83 50.024C123.829 50.024 123.829 50.024 123.829 50.024C123.828 50.024 123.828 50.024 123.828 50.024C123.827 50.024 123.827 50.024 123.827 50.024C123.826 50.024 123.826 50.024 123.826 50.024C123.825 50.024 123.825 50.024 123.825 50.024C123.824 50.024 123.824 50.024 123.824 50.024C123.823 50.024 123.823 50.024 123.823 50.024C123.822 50.024 123.822 50.024 123.822 50.024C123.821 50.024 123.821 50.024 123.821 50.024C123.82 50.024 123.82 50.024 123.82 50.024C123.819 50.024 123.819 50.024 123.819 50.024C123.819 50.024 123.818 50.024 123.818 50.024C123.818 50.024 123.817 50.024 123.817 50.024C123.817 50.024 123.816 50.024 123.816 50.024C123.816 50.024 123.815 50.024 123.815 50.024C123.815 50.024 123.814 50.024 123.814 50.024C123.814 50.024 123.813 50.024 123.813 50.024C123.813 50.024 123.812 50.024 123.812 50.024C123.812 50.024 123.811 50.024 123.811 50.024C123.811 50.024 123.81 50.024 123.81 50.024C123.81 50.024 123.809 50.024 123.809 50.024C123.809 50.024 123.808 50.024 123.808 50.024C123.808 50.024 123.807 50.024 123.807 50.024C123.807 50.024 123.806 50.024 123.806 50.024C123.806 50.024 123.805 50.024 123.805 50.024C123.805 50.024 123.804 50.024 123.804 50.024C123.804 50.024 123.803 50.024 123.803 50.024C123.803 50.024 123.802 50.024 123.802 50.024C123.802 50.024 123.801 50.024 123.801 50.024C123.801 50.024 123.8 50.024 123.8 50.024C123.8 50.024 123.799 50.024 123.799 50.024C123.799 50.024 123.798 50.024 123.798 50.024C123.798 50.024 123.797 50.024 123.797 50.024C123.797 50.024 123.796 50.024 123.796 50.024C123.796 50.024 123.795 50.024 123.795 50.024C123.795 50.024 123.794 50.024 123.794 50.024C123.794 50.024 123.793 50.024 123.793 50.024C123.793 50.024 123.792 50.024 123.792 50.024C123.792 50.024 123.791 50.024 123.791 50.024C123.791 50.024 123.79 50.024 123.79 50.024C123.79 50.024 123.789 50.024 123.789 50.024C123.789 50.024 123.788 50.024 123.788 50.024C123.788 50.024 123.787 50.024 123.787 50.024C123.787 50.024 123.787 50.024 123.786 50.024C123.786 50.024 123.786 50.024 123.785 50.024C123.785 50.024 123.785 50.024 123.784 50.024C123.784 50.024 123.784 50.024 123.783 50.024C123.783 50.024 123.783 50.024 123.782 50.024C123.782 50.024 123.782 50.024 123.781 50.024C123.781 50.024 123.781 50.024 123.78 50.024C123.78 50.024 123.78 50.024 123.779 50.024C123.779 50.024 123.779 50.024 123.778 50.024C123.778 50.024 123.778 50.024 123.777 50.024C123.777 50.024 123.777 50.024 123.776 50.024C123.776 50.024 123.776 50.024 123.775 50.024C123.775 50.024 123.775 50.024 123.774 50.024C123.774 50.024 123.774 50.024 123.773 50.024C123.773 50.024 123.773 50.024 123.772 50.024C123.772 50.024 123.772 50.024 123.771 50.024C123.771 50.024 123.771 50.024 123.77 50.024C123.77 50.024 123.77 50.024 123.769 50.024C123.769 50.024 123.769 50.024 123.768 50.024C123.768 50.024 123.768 50.024 123.767 50.024C123.767 50.024 123.767 50.024 123.766 50.024C123.766 50.024 123.766 50.024 123.765 50.024C123.765 50.024 123.765 50.024 123.764 50.024C123.764 50.024 123.764 50.024 123.763 50.024C123.763 50.024 123.763 50.024 123.762 50.024C123.762 50.024 123.762 50.024 123.761 50.024V52.024ZM124.383 52.0139C124.428 52.0075 124.561 51.9884 124.607 51.9819C124.611 51.9813 124.658 51.9746 124.663 51.9739C124.667 51.9733 124.714 51.9666 124.719 51.966C124.723 51.9653 124.77 51.9586 124.775 51.9579C124.779 51.9573 124.826 51.9506 124.831 51.9499L124.548 49.9701C124.503 49.9765 124.369 49.9956 124.324 50.0021C124.319 50.0027 124.272 50.0094 124.268 50.01C124.263 50.0107 124.216 50.0174 124.212 50.0181C124.207 50.0187 124.16 50.0254 124.156 50.0261C124.151 50.0267 124.104 50.0334 124.1 50.034L124.383 52.0139ZM124.831 51.9499C124.865 51.9451 124.794 51.9628 124.677 51.9136C124.617 51.8882 124.557 51.8498 124.505 51.7994C124.453 51.7499 124.421 51.7003 124.403 51.6632L126.192 50.7688C126.041 50.4681 125.794 50.2138 125.453 50.0704C125.134 49.9359 124.812 49.9322 124.548 49.9701L124.831 51.9499ZM124.423 51.7016C124.398 51.6556 124.395 51.6338 124.401 51.6587C124.407 51.6803 124.416 51.7235 124.426 51.7945C124.445 51.938 124.457 52.1466 124.457 52.432H126.457C126.457 52.0987 126.443 51.7954 126.409 51.5335C126.377 51.2947 126.318 50.994 126.171 50.7304L124.423 51.7016ZM124.457 52.432C124.457 52.8473 124.372 53.0308 124.324 53.0988L125.951 54.2612C126.329 53.7319 126.457 53.0834 126.457 52.432H124.457ZM124.324 53.0988C124.322 53.1011 124.267 53.1913 123.952 53.2324L124.211 55.2156C124.877 55.1287 125.526 54.8563 125.951 54.2612L124.324 53.0988ZM123.982 53.229C123.772 53.25 123.551 53.271 123.319 53.2921L123.5 55.2839C123.737 55.2623 123.964 55.2407 124.181 55.219L123.982 53.229ZM123.319 53.2921C123.114 53.3107 122.91 53.32 122.705 53.32V55.32C122.97 55.32 123.235 55.308 123.5 55.2839L123.319 53.2921ZM130.336 53.328L129.851 54.2029L130.336 53.328ZM127.552 50.512L126.67 50.9834L126.673 50.9898L127.552 50.512ZM127.104 42.8L126.17 42.4423L126.166 42.4533L127.104 42.8ZM128.736 40.24L129.443 40.9471L129.448 40.9418L129.453 40.9365L128.736 40.24ZM131.264 38.608L131.61 39.546L131.619 39.5427L131.628 39.5392L131.264 38.608ZM138.784 39.024L139.268 38.1491V38.1491L138.784 39.024ZM141.568 41.84L142.446 41.3622L141.568 41.84ZM141.984 49.552L141.05 49.1944L141.047 49.2031L141.043 49.2119L141.984 49.552ZM140.384 52.144L141.091 52.8511L141.096 52.8458L141.101 52.8405L140.384 52.144ZM137.856 53.776L138.202 54.714L138.211 54.7107L138.22 54.7072L137.856 53.776ZM136.64 50.704L136.099 49.8628L136.64 50.704ZM138.016 49.008L137.102 48.6018L137.097 48.6141L138.016 49.008ZM137.44 42.352L136.678 42.9997L136.686 43.0091L137.44 42.352ZM132.48 41.648L132.999 42.5028L133.01 42.4961L133.021 42.4892L132.48 41.648ZM131.072 43.344L130.158 42.9378L130.153 42.9501L131.072 43.344ZM131.68 50L130.91 50.6384L130.918 50.6476L131.68 50ZM134.56 53.32C133.076 53.32 131.841 53.0183 130.82 52.4531L129.851 54.2029C131.22 54.9604 132.801 55.32 134.56 55.32V53.32ZM130.82 52.4531C129.794 51.8853 129.002 51.0855 128.43 50.0342L126.673 50.9898C127.424 52.3705 128.488 53.4481 129.851 54.2029L130.82 52.4531ZM128.434 50.0406C127.863 48.9731 127.56 47.6901 127.56 46.16H125.56C125.56 47.9579 125.918 49.5763 126.67 50.9834L128.434 50.0406ZM127.56 46.16C127.56 44.9963 127.727 43.997 128.042 43.1467L126.166 42.4533C125.755 43.5656 125.56 44.8064 125.56 46.16H127.56ZM128.038 43.1576C128.375 42.2757 128.846 41.5442 129.443 40.9471L128.029 39.5329C127.218 40.3438 126.6 41.319 126.17 42.4424L128.038 43.1576ZM129.453 40.9365C130.05 40.3221 130.764 39.8587 131.61 39.546L130.917 37.67C129.801 38.0826 128.83 38.7072 128.018 39.5435L129.453 40.9365ZM131.628 39.5392C132.477 39.2071 133.449 39.032 134.56 39.032V37.032C133.238 37.032 132.013 37.2409 130.899 37.6768L131.628 39.5392ZM134.56 39.032C136.043 39.032 137.279 39.3337 138.299 39.8989L139.268 38.1491C137.9 37.3916 136.319 37.032 134.56 37.032V39.032ZM138.299 39.8989C139.325 40.4667 140.118 41.2665 140.689 42.3178L142.446 41.3622C141.695 39.9815 140.632 38.9039 139.268 38.1491L138.299 39.8989ZM140.689 42.3178C141.256 43.3602 141.56 44.6293 141.56 46.16H143.56C143.56 44.3627 143.202 42.7518 142.446 41.3622L140.689 42.3178ZM141.56 46.16C141.56 47.3171 141.383 48.3237 141.05 49.1944L142.918 49.9096C143.352 48.775 143.56 47.5202 143.56 46.16H141.56ZM141.043 49.2119C140.726 50.0888 140.266 50.8294 139.666 51.4475L141.101 52.8405C141.909 52.0079 142.516 51.0206 142.924 49.8921L141.043 49.2119ZM139.677 51.4369C139.076 52.0377 138.352 52.508 137.491 52.8448L138.22 54.7072C139.322 54.276 140.284 53.6583 141.091 52.8511L139.677 51.4369ZM137.509 52.838C136.655 53.1536 135.676 53.32 134.56 53.32V55.32C135.875 55.32 137.094 55.1237 138.202 54.714L137.509 52.838ZM134.56 52.28C135.519 52.28 136.404 52.0442 137.181 51.5452L136.099 49.8628C135.681 50.1318 135.179 50.28 134.56 50.28V52.28ZM137.181 51.5452C137.969 51.0382 138.548 50.3049 138.935 49.4019L137.097 48.6141C136.844 49.2045 136.505 49.6018 136.099 49.8628L137.181 51.5452ZM138.93 49.4141C139.344 48.4822 139.528 47.3849 139.528 46.16H137.528C137.528 47.1965 137.37 47.9978 137.102 48.6019L138.93 49.4141ZM139.528 46.16C139.528 44.338 139.145 42.7858 138.194 41.6949L136.686 43.0091C137.186 43.5822 137.528 44.5686 137.528 46.16H139.528ZM138.202 41.7044C137.272 40.6111 136.026 40.072 134.56 40.072V42.072C135.483 42.072 136.156 42.3863 136.678 42.9996L138.202 41.7044ZM134.56 40.072C133.601 40.072 132.715 40.3078 131.939 40.8068L133.021 42.4892C133.439 42.2202 133.94 42.072 134.56 42.072V40.072ZM131.961 40.7932C131.156 41.2816 130.565 42.022 130.158 42.9379L131.986 43.7501C132.261 43.13 132.608 42.7397 132.999 42.5028L131.961 40.7932ZM130.153 42.9501C129.763 43.8598 129.592 44.9434 129.592 46.16H131.592C131.592 45.1153 131.741 44.3215 131.991 43.7379L130.153 42.9501ZM129.592 46.16C129.592 47.9696 129.979 49.5153 130.91 50.6383L132.45 49.3617C131.93 48.7354 131.592 47.7211 131.592 46.16H129.592ZM130.918 50.6476C131.847 51.7409 133.094 52.28 134.56 52.28V50.28C133.636 50.28 132.963 49.9657 132.442 49.3524L130.918 50.6476ZM149.385 53.616L148.93 54.5063L148.938 54.5104L149.385 53.616ZM147.337 51.568L146.438 52.0069L146.443 52.0152L147.337 51.568ZM146.665 41.36H147.665V40.36H146.665V41.36ZM143.817 40.976L143.11 41.6831L143.124 41.6972L143.139 41.7108L143.817 40.976ZM143.817 38.736L143.139 38.0012L143.817 38.736ZM146.665 38.352V39.352H147.665V38.352H146.665ZM147.177 33.936L146.492 33.2078L146.481 33.2182L146.47 33.2289L147.177 33.936ZM150.153 33.936L150.86 33.2289V33.2289L150.153 33.936ZM150.665 38.352H149.665V39.352H150.665V38.352ZM155.241 38.736L154.563 39.4708L155.241 38.736ZM155.241 40.976L155.919 41.7108L155.934 41.6972L155.948 41.6831L155.241 40.976ZM150.665 41.36V40.36H149.665V41.36H150.665ZM151.337 50.256L150.584 50.9145L151.337 50.256ZM154.473 50.928L154.698 51.9024L154.473 50.928ZM155.209 50.8L155.126 49.8035L155.118 49.8041L155.109 49.805L155.209 50.8ZM155.849 51.056L155.102 51.7204L155.121 51.7423L155.142 51.7631L155.849 51.056ZM155.881 53.296L154.965 52.8952L154.958 52.9098L154.953 52.9246L155.881 53.296ZM155.145 53.968L155.439 54.9238L155.459 54.9178L155.478 54.911L155.145 53.968ZM154.057 54.192L153.916 53.202L153.893 53.2053L153.87 53.2097L154.057 54.192ZM152.873 53.32C151.594 53.32 150.595 53.1029 149.832 52.7216L148.938 54.5104C150.053 55.0678 151.379 55.32 152.873 55.32V53.32ZM149.84 52.7258C149.107 52.3505 148.581 51.8203 148.231 51.1208L146.443 52.0152C146.989 53.1077 147.828 53.9428 148.93 54.5062L149.84 52.7258ZM148.236 51.1292C147.872 50.3847 147.665 49.4141 147.665 48.176H145.665C145.665 49.6259 145.906 50.9167 146.438 52.0068L148.236 51.1292ZM147.665 48.176V41.36H145.665V48.176H147.665ZM146.665 40.36H145.001V42.36H146.665V40.36ZM145.001 40.36C144.649 40.36 144.53 40.2737 144.495 40.2412L143.139 41.7108C143.658 42.1903 144.329 42.36 145.001 42.36V40.36ZM144.524 40.2689C144.47 40.2152 144.401 40.116 144.401 39.856H142.401C142.401 40.5347 142.609 41.1821 143.11 41.6831L144.524 40.2689ZM144.401 39.856C144.401 39.556 144.48 39.4849 144.495 39.4708L143.139 38.0012C142.599 38.4991 142.401 39.1746 142.401 39.856H144.401ZM144.495 39.4708C144.53 39.4383 144.649 39.352 145.001 39.352V37.352C144.329 37.352 143.658 37.5217 143.139 38.0012L144.495 39.4708ZM145.001 39.352H146.665V37.352H145.001V39.352ZM147.665 38.352V35.44H145.665V38.352H147.665ZM147.665 35.44C147.665 34.9435 147.791 34.7362 147.884 34.6431L146.47 33.2289C145.88 33.8185 145.665 34.6138 145.665 35.44H147.665ZM147.862 34.6642C147.991 34.543 148.22 34.424 148.681 34.424V32.424C147.862 32.424 147.088 32.6463 146.492 33.2078L147.862 34.6642ZM148.681 34.424C149.145 34.424 149.347 34.5443 149.446 34.6431L150.86 33.2289C150.276 32.645 149.497 32.424 148.681 32.424V34.424ZM149.446 34.6431C149.539 34.7362 149.665 34.9435 149.665 35.44H151.665C151.665 34.6138 151.45 33.8185 150.86 33.2289L149.446 34.6431ZM149.665 35.44V38.352H151.665V35.44H149.665ZM150.665 39.352H154.057V37.352H150.665V39.352ZM154.057 39.352C154.409 39.352 154.528 39.4383 154.563 39.4708L155.919 38.0012C155.4 37.5217 154.729 37.352 154.057 37.352V39.352ZM154.563 39.4708C154.578 39.4849 154.657 39.556 154.657 39.856H156.657C156.657 39.1746 156.459 38.4991 155.919 38.0012L154.563 39.4708ZM154.657 39.856C154.657 40.116 154.588 40.2152 154.534 40.2689L155.948 41.6831C156.449 41.1821 156.657 40.5347 156.657 39.856H154.657ZM154.563 40.2412C154.528 40.2737 154.409 40.36 154.057 40.36V42.36C154.729 42.36 155.4 42.1903 155.919 41.7108L154.563 40.2412ZM154.057 40.36H150.665V42.36H154.057V40.36ZM149.665 41.36V47.952H151.665V41.36H149.665ZM149.665 47.952C149.665 49.0998 149.913 50.1474 150.584 50.9145L152.09 49.5975C151.865 49.3406 151.665 48.8522 151.665 47.952H149.665ZM150.584 50.9145C151.298 51.7298 152.361 52.024 153.513 52.024V50.024C152.66 50.024 152.272 49.8062 152.09 49.5975L150.584 50.9145ZM153.513 52.024C153.932 52.024 154.33 51.9873 154.698 51.9024L154.248 49.9536C154.061 49.9967 153.82 50.024 153.513 50.024V52.024ZM154.698 51.9024C154.946 51.845 155.148 51.811 155.309 51.795L155.109 49.805C154.843 49.8316 154.554 49.883 154.248 49.9536L154.698 51.9024ZM155.292 51.7965C155.284 51.7972 155.243 51.798 155.19 51.7765C155.136 51.755 155.107 51.7266 155.102 51.7204L156.596 50.3916C156.217 49.9644 155.696 49.756 155.126 49.8035L155.292 51.7965ZM155.142 51.7631C155.089 51.7103 155.066 51.6657 155.059 51.6527C155.053 51.6401 155.059 51.6474 155.068 51.685C155.086 51.7645 155.105 51.9102 155.105 52.144H157.105C157.105 51.8231 157.081 51.5102 157.014 51.227C156.95 50.9552 156.826 50.6189 156.556 50.3489L155.142 51.7631ZM155.105 52.144C155.105 52.4526 155.051 52.6973 154.965 52.8952L156.797 53.6968C157.009 53.212 157.105 52.6887 157.105 52.144H155.105ZM154.953 52.9246C154.942 52.95 154.934 52.959 154.927 52.9655C154.917 52.974 154.887 52.9986 154.812 53.025L155.478 54.911C156.077 54.6996 156.561 54.2876 156.809 53.6674L154.953 52.9246ZM154.851 53.0122C154.643 53.0762 154.337 53.1418 153.916 53.202L154.198 55.1819C154.673 55.1142 155.092 55.0305 155.439 54.9238L154.851 53.0122ZM153.87 53.2097C153.464 53.2869 153.135 53.32 152.873 53.32V55.32C153.294 55.32 153.754 55.2678 154.244 55.1743L153.87 53.2097Z" fill="#429B9C" mask="url(#path-19-outside-1_77_361)"/>
<defs>
<filter id="filter0_f_77_361" x="13" y="0" width="12" height="12" filterUnits="userSpaceOnUse" color-interpolation-filters="sRGB">
<feFlood flood-opacity="0" result="BackgroundImageFix"/>
<feBlend mode="normal" in="SourceGraphic" in2="BackgroundImageFix" result="shape"/>
<feGaussianBlur stdDeviation="2" result="effect1_foregroundBlur_77_361"/>
</filter>
<filter id="filter1_f_77_361" x="13" y="0" width="12" height="12" filterUnits="userSpaceOnUse" color-interpolation-filters="sRGB">
<feFlood flood-opacity="0" result="BackgroundImageFix"/>
<feBlend mode="normal" in="SourceGraphic" in2="BackgroundImageFix" result="shape"/>
<feGaussianBlur stdDeviation="2" result="effect1_foregroundBlur_77_361"/>
</filter>
<filter id="filter2_f_77_361" x="0" y="89" width="12" height="12" filterUnits="userSpaceOnUse" color-interpolation-filters="sRGB">
<feFlood flood-opacity="0" result="BackgroundImageFix"/>
<feBlend mode="normal" in="SourceGraphic" in2="BackgroundImageFix" result="shape"/>
<feGaussianBlur stdDeviation="2" result="effect1_foregroundBlur_77_361"/>
</filter>
<filter id="filter3_f_77_361" x="0" y="89" width="12" height="12" filterUnits="userSpaceOnUse" color-interpolation-filters="sRGB">
<feFlood flood-opacity="0" result="BackgroundImageFix"/>
<feBlend mode="normal" in="SourceGraphic" in2="BackgroundImageFix" result="shape"/>
<feGaussianBlur stdDeviation="2" result="effect1_foregroundBlur_77_361"/>
</filter>
<filter id="filter4_f_77_361" x="23" y="60" width="12" height="12" filterUnits="userSpaceOnUse" color-interpolation-filters="sRGB">
<feFlood flood-opacity="0" result="BackgroundImageFix"/>
<feBlend mode="normal" in="SourceGraphic" in2="BackgroundImageFix" result="shape"/>
<feGaussianBlur stdDeviation="2" result="effect1_foregroundBlur_77_361"/>
</filter>
<filter id="filter5_f_77_361" x="23" y="60" width="12" height="12" filterUnits="userSpaceOnUse" color-interpolation-filters="sRGB">
<feFlood flood-opacity="0" result="BackgroundImageFix"/>
<feBlend mode="normal" in="SourceGraphic" in2="BackgroundImageFix" result="shape"/>
<feGaussianBlur stdDeviation="2" result="effect1_foregroundBlur_77_361"/>
</filter>
<filter id="filter6_f_77_361" x="33" y="31" width="12" height="12" filterUnits="userSpaceOnUse" color-interpolation-filters="sRGB">
<feFlood flood-opacity="0" result="BackgroundImageFix"/>
<feBlend mode="normal" in="SourceGraphic" in2="BackgroundImageFix" result="shape"/>
<feGaussianBlur stdDeviation="2" result="effect1_foregroundBlur_77_361"/>
</filter>
<filter id="filter7_f_77_361" x="33" y="31" width="12" height="12" filterUnits="userSpaceOnUse" color-interpolation-filters="sRGB">
<feFlood flood-opacity="0" result="BackgroundImageFix"/>
<feBlend mode="normal" in="SourceGraphic" in2="BackgroundImageFix" result="shape"/>
<feGaussianBlur stdDeviation="2" result="effect1_foregroundBlur_77_361"/>
</filter>
<filter id="filter8_f_77_361" x="41" y="51" width="12" height="12" filterUnits="userSpaceOnUse" color-interpolation-filters="sRGB">
<feFlood flood-opacity="0" result="BackgroundImageFix"/>
<feBlend mode="normal" in="SourceGraphic" in2="BackgroundImageFix" result="shape"/>
<feGaussianBlur stdDeviation="2" result="effect1_foregroundBlur_77_361"/>
</filter>
<filter id="filter9_f_77_361" x="41" y="51" width="12" height="12" filterUnits="userSpaceOnUse" color-interpolation-filters="sRGB">
<feFlood flood-opacity="0" result="BackgroundImageFix"/>
<feBlend mode="normal" in="SourceGraphic" in2="BackgroundImageFix" result="shape"/>
<feGaussianBlur stdDeviation="2" result="effect1_foregroundBlur_77_361"/>
</filter>
<filter id="filter10_f_77_361" x="189" y="52" width="12" height="12" filterUnits="userSpaceOnUse" color-interpolation-filters="sRGB">
<feFlood flood-opacity="0" result="BackgroundImageFix"/>
<feBlend mode="normal" in="SourceGraphic" in2="BackgroundImageFix" result="shape"/>
<feGaussianBlur stdDeviation="2" result="effect1_foregroundBlur_77_361"/>
</filter>
<filter id="filter11_f_77_361" x="189" y="52" width="12" height="12" filterUnits="userSpaceOnUse" color-interpolation-filters="sRGB">
<feFlood flood-opacity="0" result="BackgroundImageFix"/>
<feBlend mode="normal" in="SourceGraphic" in2="BackgroundImageFix" result="shape"/>
<feGaussianBlur stdDeviation="2" result="effect1_foregroundBlur_77_361"/>
</filter>
</defs>
</svg>
