<svg width="375" height="272" viewBox="0 0 375 272" fill="none" xmlns="http://www.w3.org/2000/svg">
<g clip-path="url(#clip0_44_364)">
<path opacity="0.1" d="M250.328 271.847C232.066 271.847 217.261 269.412 217.261 266.409C217.261 263.405 232.066 260.97 250.328 260.97C268.59 260.97 283.395 263.405 283.395 266.409C283.395 269.412 268.59 271.847 250.328 271.847Z" fill="#429B9C"/>
<path opacity="0.1" d="M70.5823 272C47.7939 272 29.3202 269.565 29.3202 266.562C29.3202 263.558 47.7939 261.123 70.5823 261.123C93.3707 261.123 111.844 263.558 111.844 266.562C111.844 269.565 93.3707 272 70.5823 272Z" fill="#429B9C"/>
<path opacity="0.1" d="M370.303 117.524H335.862V165.593H367.782C367.867 166.086 367.948 166.583 368.036 167.08H335.862V205.847C335.92 205.83 335.971 205.809 336.025 205.788C336.935 205.42 337.837 205.03 338.74 204.613L339.317 204.346C340.222 203.908 341.127 203.445 342.032 202.956C342.347 202.785 342.663 202.608 342.975 202.428C347.999 199.546 352.563 195.894 356.509 191.6C356.624 191.485 356.733 191.363 356.848 191.252C357.398 190.64 357.937 190.022 358.46 189.389L359.037 188.694C359.654 187.92 360.252 187.124 360.832 186.318C360.917 186.199 360.998 186.081 361.086 185.97C363.447 182.619 365.406 178.991 366.923 175.163C366.971 175.048 367.012 174.923 367.056 174.815C367.522 173.588 367.935 172.348 368.294 171.097C368.45 170.572 368.6 170.055 368.729 169.509C368.776 169.349 368.817 169.193 368.854 169.037C370.782 161.333 371.009 153.33 371.009 145.382C371.009 144.455 371.009 143.523 371.009 142.602C371.009 139.388 370.972 136.153 370.918 132.921C370.918 132.084 370.884 131.25 370.867 130.409C370.819 128.275 370.751 126.141 370.663 124.008C370.643 123.414 370.616 122.823 370.585 122.232C370.585 121.892 370.568 121.551 370.534 121.211C370.453 119.973 370.385 118.747 370.303 117.524Z" fill="#429B9C"/>
<path opacity="0.1" d="M335.862 64.002H354.754C351.683 59.08 348.328 54.3502 344.706 49.838C341.899 46.3075 338.937 42.8672 335.862 39.5521V64.002Z" fill="#429B9C"/>
<path opacity="0.1" d="M335.862 65.4894V116.036H370.195C370.195 115.89 370.171 115.741 370.161 115.595C370.13 115.195 370.1 114.796 370.066 114.4C370.028 113.934 369.988 113.465 369.944 113.01C369.9 112.554 369.852 111.998 369.801 111.495C369.75 110.991 369.703 110.48 369.645 109.976C369.587 109.472 369.536 108.968 369.475 108.468C369.414 107.967 369.36 107.46 369.295 106.96C369.245 106.543 369.19 106.129 369.136 105.712C369.058 105.125 368.976 104.534 368.888 103.95C368.888 103.864 368.864 103.773 368.851 103.69C368.232 99.4161 367.388 95.1798 366.323 90.9992C365.208 86.6137 363.785 82.3167 362.064 78.1418C360.235 73.7743 358.093 69.5512 355.657 65.5068L335.862 65.4894Z" fill="#429B9C"/>
<path opacity="0.1" d="M327.64 117.52V165.593H254.078V117.52H327.64ZM327.64 167.077V208.359C327.219 208.45 326.802 208.536 326.387 208.609C325.824 208.721 325.264 208.821 324.691 208.908C324.582 208.926 324.47 208.943 324.351 208.953C324.127 208.992 323.897 209.023 323.673 209.054C323.106 209.134 322.543 209.2 321.976 209.252C321.708 209.28 321.436 209.304 321.165 209.325L320.51 209.377C320.154 209.405 319.801 209.426 319.451 209.436C319.234 209.436 319.017 209.457 318.793 209.464C318.623 209.464 318.453 209.464 318.277 209.464C318.1 209.464 317.849 209.464 317.636 209.464C317.344 209.464 317.052 209.464 316.763 209.464H316.373C316.081 209.464 315.789 209.464 315.501 209.436H315.481C315.28 209.436 315.077 209.436 314.873 209.409C314.817 209.412 314.76 209.412 314.704 209.409C314.534 209.409 314.364 209.409 314.201 209.384H314.083L312.946 209.294C312.572 209.259 312.196 209.214 311.816 209.172L311.042 209.079C307.894 208.627 304.781 207.949 301.727 207.049C294.865 205.089 288.152 202.348 281.294 200.339C272.427 197.75 262.63 196.478 254.061 199.644V167.077H327.64ZM254.078 64.0019V0.00336358C262.132 -0.0859862 270.164 0.878598 277.979 2.87369C296.606 7.66568 313.319 18.0593 327.64 31.3337V63.9985H323.948V65.4823H327.64V116.036H254.078V65.4857H308.789V64.0019H254.078ZM159.592 42.3841C164.2 42.2173 168.781 40.7231 172.925 38.4157C180.849 34.0025 187.178 27.1881 194.25 21.437C208.944 9.45876 227.167 2.23082 245.862 0.437735V64.0019H140.849L140.588 63.7205L159.592 42.3841ZM150.025 40.6466L139.882 52.0445V37.6582C143.279 38.0891 146.255 39.1142 150.012 40.6327L150.025 40.6466ZM139.882 218.61V167.077H161.495C161.553 166.858 161.611 166.635 161.679 166.413C161.614 166.635 161.56 166.858 161.499 167.077H245.849V204.346C245.048 204.954 244.257 205.593 243.473 206.243C242.628 206.938 241.793 207.671 240.955 208.391L240.11 209.106C239.706 209.454 239.299 209.801 238.888 210.128C238.074 210.804 237.252 211.472 236.421 212.13C236.011 212.477 235.59 212.79 235.172 213.116C228.546 218.304 221.556 222.986 214.258 227.124C212.622 228.051 210.972 228.955 209.307 229.838C208.197 230.418 207.081 230.995 205.961 231.555C204.278 232.396 202.581 233.206 200.871 233.987C185.102 241.235 168.428 246.209 151.325 248.766C147.526 249.341 143.713 249.792 139.885 250.121V218.607H139.546L139.882 218.61ZM245.849 65.4857V116.036H139.868V65.4857H245.849ZM245.849 117.52V165.593H139.868V117.52H245.849ZM131.642 37.5956V53.643L118.696 39.0968C122.985 38.3879 127.301 37.8817 131.642 37.5782V37.5956ZM131.642 117.537V165.593H28.5635V117.52L131.642 117.537ZM28.9402 222.426L28.5771 167.077H131.642V250.674C125.003 250.96 118.353 250.878 111.722 250.431H111.607C108.44 250.227 105.287 249.93 102.149 249.541H102.078C85.3372 247.546 68.9681 243.073 53.4822 236.263M8.68747 125.436C9.07434 124.501 9.47818 123.573 9.88879 122.656C10.6557 120.918 11.4668 119.23 12.3016 117.541H20.3443V165.593H0.0101929C0.0203857 151.985 3.38339 138.085 8.67734 125.419L8.68747 125.436ZM20.3443 167.094V214.701C14.616 209.079 9.77682 202.646 6.29166 195.293C2.10062 186.439 0.183289 176.852 0.0271912 167.087L20.3443 167.094ZM20.3443 103.53V116.04H13.055C15.2601 111.733 17.69 107.551 20.3341 103.512L20.3443 103.53ZM90.2513 47.0267C90.7874 46.8182 91.3236 46.6062 91.8632 46.4012C97.5539 44.2492 103.369 42.4597 109.275 41.0428L129.087 63.3069L129.467 63.7205L129.213 64.0054H58.7015C68.5217 57.0834 79.1088 51.3782 90.2411 47.0093L90.2513 47.0267ZM56.6348 65.5031H130.197L131.642 66.8584V116.036H118.971H118.95H28.5499V92.2152C36.7276 82.0877 46.1662 73.1013 56.6247 65.4857L56.6348 65.5031Z" fill="#429B9C"/>
<path opacity="0.1" d="M335.862 90.9852V116.036H370.195C370.195 115.89 370.171 115.741 370.161 115.595C370.13 115.195 370.1 114.796 370.066 114.4C370.028 113.934 369.988 113.465 369.944 113.01C369.9 112.554 369.852 111.998 369.801 111.495C369.75 110.991 369.703 110.48 369.645 109.976C369.587 109.472 369.536 108.968 369.475 108.468C369.414 107.967 369.36 107.46 369.295 106.96C369.245 106.543 369.19 106.129 369.136 105.712C369.058 105.125 368.976 104.534 368.888 103.95C368.888 103.863 368.864 103.773 368.851 103.69C368.232 99.4161 367.388 95.1797 366.323 90.9991L335.862 90.9852Z" fill="#429B9C"/>
<path opacity="0.1" d="M370.303 117.524H335.862V165.593H367.782C367.867 166.086 367.948 166.583 368.036 167.08H335.862V205.847C335.92 205.83 335.971 205.809 336.025 205.788C336.935 205.42 337.837 205.03 338.74 204.613L339.317 204.346C340.222 203.908 341.127 203.445 342.032 202.956C342.347 202.785 342.663 202.608 342.975 202.428C347.999 199.546 352.563 195.894 356.509 191.6C356.624 191.485 356.733 191.363 356.848 191.252C357.398 190.64 357.937 190.022 358.46 189.389L359.037 188.694C359.654 187.92 360.252 187.124 360.832 186.318C360.917 186.199 360.998 186.081 361.086 185.97C363.447 182.619 365.406 178.991 366.923 175.163C366.971 175.048 367.012 174.923 367.056 174.815C367.522 173.588 367.935 172.348 368.294 171.097C368.45 170.572 368.6 170.055 368.729 169.509C368.776 169.349 368.817 169.193 368.854 169.037C370.782 161.333 371.009 153.33 371.009 145.382C371.009 144.455 371.009 143.523 371.009 142.602C371.009 139.388 370.972 136.153 370.918 132.921C370.918 132.084 370.884 131.25 370.867 130.409C370.819 128.275 370.751 126.141 370.663 124.008C370.643 123.414 370.616 122.823 370.585 122.232C370.585 121.892 370.568 121.551 370.534 121.211C370.453 119.973 370.385 118.747 370.303 117.524Z" fill="#429B9C"/>
<path opacity="0.1" d="M301.744 72.7242V116.036H327.64V72.7242H323.948V58.0598H308.792V72.7242H301.744Z" fill="#429B9C"/>
<path opacity="0.1" d="M301.744 117.52H327.636V165.589H301.744V117.52Z" fill="#429B9C"/>
<path opacity="0.1" d="M327.64 167.08H301.744V207.042C304.798 207.941 307.911 208.618 311.059 209.068L311.833 209.165C312.213 209.211 312.589 209.249 312.963 209.287C313.336 209.325 313.723 209.353 314.099 209.377H314.218C314.381 209.377 314.558 209.398 314.717 209.402H314.89C315.094 209.402 315.297 209.423 315.501 209.43C315.789 209.447 316.078 209.45 316.373 209.454C316.499 209.454 316.617 209.454 316.743 209.454C317.035 209.454 317.323 209.454 317.615 209.454H318.257C318.43 209.454 318.596 209.454 318.776 209.454L319.431 209.43C319.77 209.43 320.137 209.391 320.49 209.367L321.141 209.318L321.952 209.242C322.522 209.19 323.089 209.124 323.649 209.044L324.328 208.947L324.667 208.898C325.234 208.808 325.794 208.71 326.364 208.599C326.781 208.526 327.195 208.436 327.616 208.349L327.64 167.08Z" fill="#429B9C"/>
<path opacity="0.1" d="M139.868 67.6091H161.22V116.033H139.868V67.6091Z" fill="#429B9C"/>
<path opacity="0.1" d="M139.865 117.52V165.593H245.849V144.858H189.397V157.09H161.22V117.52H139.865Z" fill="#429B9C"/>
<path opacity="0.1" d="M139.529 218.621H139.868V250.156C143.692 249.825 147.504 249.375 151.304 248.805C168.416 246.239 185.097 241.255 200.871 233.994C205.425 231.895 209.886 229.604 214.255 227.121C221.552 222.981 228.543 218.299 235.172 213.113C236.838 211.807 238.481 210.47 240.103 209.103C241.227 208.154 242.343 207.181 243.473 206.236C244.257 205.586 245.048 204.947 245.849 204.335V167.08H161.502C161.56 166.858 161.617 166.635 161.679 166.417C161.614 166.635 161.553 166.858 161.495 167.08H139.868V218.6C139.753 218.604 139.641 218.614 139.529 218.621Z" fill="#429B9C"/>
<path opacity="0.1" d="M84.1802 64.0021H98.0938V59.575H91.8564V46.3875C91.3157 46.589 90.7773 46.7963 90.2411 47.0095V59.575H84.1802V64.0021Z" fill="#429B9C"/>
<path opacity="0.1" d="M50.6588 116.036H118.964C118.964 116.036 118.964 116.036 118.94 116.054L118.971 116.036H131.642V67.6126H128.052V103.405H111.644V82.2075H98.0904V65.4894H84.1769V82.2214H70.6231V103.419H50.6588V116.036Z" fill="#429B9C"/>
<path opacity="0.1" d="M131.642 117.52V165.593H50.6588V117.52H131.642ZM28.6755 222.179L28.5635 184.128H50.6588V167.101H131.642V250.674C125.003 250.96 118.353 250.879 111.722 250.431H111.607C108.44 250.227 105.287 249.93 102.149 249.541H102.078C85.3372 247.546 68.9681 243.074 53.4823 236.263" fill="#429B9C"/>
<path opacity="0.1" d="M18.9055 167.08H0.0136719C0.179955 176.841 2.0939 186.429 6.28154 195.283C9.7667 202.639 14.6093 209.072 20.3308 214.691V184.111H18.9055V167.08Z" fill="#429B9C"/>
<path opacity="0.1" d="M0.00340271 165.593H18.9055V125.419H8.67732C3.38339 138.085 0.0203705 151.985 0.00340271 165.593Z" fill="#429B9C"/>
<path opacity="0.1" d="M139.865 81.0712H151.305V96.2533H139.865V81.0712Z" fill="#429B9C"/>
<path opacity="0.1" d="M139.865 112.54H151.305V116.036H139.865V112.54Z" fill="#429B9C"/>
<path opacity="0.1" d="M139.865 117.52H151.305V127.719H139.865V117.52Z" fill="#429B9C"/>
<path opacity="0.1" d="M139.865 144.01H151.305V159.192H139.865V144.01Z" fill="#429B9C"/>
<path opacity="0.1" d="M139.865 175.479H151.305V190.661H139.865V175.479Z" fill="#429B9C"/>
<path opacity="0.1" d="M139.868 218.6C139.753 218.6 139.641 218.6 139.529 218.621H139.868V222.148H151.305V206.948H139.868V218.6Z" fill="#429B9C"/>
<path opacity="0.1" d="M139.868 238.411V250.139C143.692 249.808 147.504 249.357 151.305 248.787V238.411H139.868Z" fill="#429B9C"/>
<path opacity="0.1" d="M196.822 164.477H245.849V165.593H196.822V164.477Z" fill="#429B9C"/>
<path opacity="0.1" d="M196.822 167.077H245.849V171.351H196.822V167.077Z" fill="#429B9C"/>
<path opacity="0.1" d="M196.822 185.362H245.849V192.236H196.822V185.362Z" fill="#429B9C"/>
<path opacity="0.1" d="M196.825 206.247V213.12H235.172C236.838 211.818 238.482 210.481 240.107 209.11C241.23 208.161 242.343 207.188 243.476 206.247H196.825Z" fill="#429B9C"/>
<path opacity="0.1" d="M196.825 227.128V233.994H200.874C205.424 231.893 209.884 229.601 214.255 227.117L196.825 227.128Z" fill="#429B9C"/>
<path opacity="0.1" d="M102.068 122.18H111.719V132.063H102.068V122.18Z" fill="#429B9C"/>
<path opacity="0.1" d="M311.035 76.1332H320.686V86.016H311.035V76.1332Z" fill="#429B9C"/>
<path opacity="0.1" d="M311.035 99.0889H320.686V108.972H311.035V99.0889Z" fill="#429B9C"/>
<path opacity="0.1" d="M311.035 122.045H320.686V131.927H311.035V122.045Z" fill="#429B9C"/>
<path opacity="0.1" d="M311.035 144.997H320.686V154.88H311.035V144.997Z" fill="#429B9C"/>
<path opacity="0.1" d="M311.035 167.952H320.686V177.835H311.035V167.952Z" fill="#429B9C"/>
<path opacity="0.1" d="M311.035 190.908H320.686V200.791H311.035V190.908Z" fill="#429B9C"/>
<path opacity="0.1" d="M65.2239 122.18H74.8751V132.063H65.2239V122.18Z" fill="#429B9C"/>
<path opacity="0.1" d="M102.068 146.557H111.719V156.44H102.068V146.557Z" fill="#429B9C"/>
<path opacity="0.1" d="M65.2239 146.557H74.8751V156.44H65.2239V146.557Z" fill="#429B9C"/>
<path opacity="0.1" d="M102.068 170.93H111.719V180.813H102.068V170.93Z" fill="#429B9C"/>
<path opacity="0.1" d="M65.2239 170.93H74.8751V180.813H65.2239V170.93Z" fill="#429B9C"/>
<path opacity="0.1" d="M102.068 195.307H111.719V205.19H102.068V195.307Z" fill="#429B9C"/>
<path opacity="0.1" d="M65.2239 195.307H74.8751V205.19H65.2239V195.307Z" fill="#429B9C"/>
<path opacity="0.1" d="M102.068 219.684H111.719V229.567H102.068V219.684Z" fill="#429B9C"/>
<path opacity="0.1" d="M65.2239 219.684H74.8751V229.567H65.2239V219.684Z" fill="#429B9C"/>
<path opacity="0.1" d="M111.719 250.431V244.058H102.071V249.524L111.719 250.431Z" fill="#429B9C"/>
<path opacity="0.1" d="M368.892 103.683V109.337H335.862V103.683H368.892ZM365.6 108.982H368.294V104.03H365.58L365.6 108.982ZM362.312 108.982H365.026V104.03H362.312V108.982ZM359.03 108.982H361.745V104.03H359.03V108.982ZM355.742 108.982H358.453V104.03H355.738L355.742 108.982ZM352.457 108.982H355.172V104.03H352.457V108.982ZM349.168 108.982H351.883V104.03H349.168V108.982ZM345.88 108.982H348.595V104.03H345.88V108.982ZM342.595 108.982H345.31V104.03H342.595V108.982ZM339.31 108.982H342.025V104.03H339.31V108.982ZM336.025 108.982H338.74V104.03H336.025V108.982Z" fill="#429B9C"/>
<path opacity="0.1" d="M368.892 120.133V125.787H335.862V120.133H368.892ZM365.6 125.429H368.294V120.491H365.58L365.6 125.429ZM362.312 125.429H365.026V120.491H362.312V125.429ZM359.03 125.429H361.745V120.491H359.03V125.429ZM355.742 125.429H358.453V120.491H355.738L355.742 125.429ZM352.457 125.429H355.172V120.491H352.457V125.429ZM349.168 125.429H351.883V120.491H349.168V125.429ZM345.88 125.429H348.595V120.491H345.88V125.429ZM342.595 125.429H345.31V120.491H342.595V125.429ZM339.31 125.429H342.025V120.491H339.31V125.429ZM336.025 125.429H338.74V120.491H336.025V125.429Z" fill="#429B9C"/>
<path opacity="0.1" d="M368.892 136.591V142.255H335.862V136.591H368.892ZM365.6 141.887H368.294V136.945H365.58L365.6 141.887ZM362.312 141.887H365.026V136.945H362.312V141.887ZM359.03 141.887H361.745V136.945H359.03V141.887ZM355.742 141.887H358.453V136.945H355.738L355.742 141.887ZM352.457 141.887H355.172V136.945H352.457V141.887ZM349.168 141.887H351.883V136.945H349.168V141.887ZM345.88 141.887H348.595V136.945H345.88V141.887ZM342.595 141.887H345.31V136.945H342.595V141.887ZM339.31 141.887H342.025V136.945H339.31V141.887ZM336.025 141.887H338.74V136.945H336.025V141.887Z" fill="#429B9C"/>
<path opacity="0.1" d="M368.892 153.048V158.695H335.862V153.048H368.892ZM365.6 158.344H368.294V153.399H365.58L365.6 158.344ZM362.312 158.344H365.026V153.399H362.312V158.344ZM359.03 158.344H361.745V153.399H359.03V158.344ZM355.742 158.344H358.453V153.399H355.738L355.742 158.344ZM352.457 158.344H355.172V153.399H352.457V158.344ZM349.168 158.344H351.883V153.399H349.168V158.344ZM345.88 158.344H348.595V153.399H345.88V158.344ZM342.595 158.344H345.31V153.399H342.595V158.344ZM339.31 158.344H342.025V153.399H339.31V158.344ZM336.025 158.344H338.74V153.399H336.025V158.344Z" fill="#429B9C"/>
<path opacity="0.1" d="M368.749 169.502C368.617 170.034 368.467 170.566 368.311 171.09V169.857H365.596V174.798H367.049C367.005 174.913 366.961 175.038 366.917 175.146H335.862V169.502H368.749ZM362.301 174.798H365.016V169.857H362.301V174.798ZM359.02 174.798H361.735V169.857H359.02V174.798ZM355.731 174.798H358.453V169.857H355.738L355.731 174.798ZM352.447 174.798H355.161V169.857H352.447V174.798ZM349.158 174.798H351.873V169.857H349.158V174.798ZM345.87 174.798H348.585V169.857H345.87V174.798ZM342.585 174.798H345.3V169.857H342.585V174.798ZM339.3 174.798H342.015V169.857H339.3V174.798ZM336.015 174.798H338.73V169.857H336.015V174.798Z" fill="#429B9C"/>
<path opacity="0.1" d="M361.08 185.96C360.995 186.071 360.913 186.196 360.825 186.307H359.03V188.681C358.837 188.917 358.647 189.153 358.45 189.376V186.293H355.735V191.252H356.834C356.726 191.367 356.621 191.488 356.495 191.6H335.852V185.96H361.08ZM352.457 191.252H355.172V186.314H352.457V191.252ZM349.168 191.252H351.883V186.314H349.168V191.252ZM345.88 191.252H348.595V186.314H345.88V191.252ZM342.595 191.252H345.31V186.314H342.595V191.252ZM339.31 191.252H342.025V186.314H339.31V191.252ZM336.025 191.252H338.74V186.314H336.025V191.252Z" fill="#429B9C"/>
<path opacity="0.1" d="M342.962 202.414C342.653 202.594 342.337 202.761 342.018 202.942V202.768H339.303V204.332L338.726 204.606V202.768H336.012V205.774C335.96 205.8 335.905 205.821 335.849 205.837V202.414H342.962Z" fill="#429B9C"/>
<path opacity="0.1" d="M161.679 166.413C161.614 166.635 161.56 166.858 161.499 167.077C161.553 166.858 161.611 166.635 161.679 166.413ZM323.934 63.9916V65.4754H308.775V63.9916H323.934ZM161.679 166.413C161.614 166.635 161.56 166.858 161.499 167.077C161.553 166.858 161.611 166.635 161.679 166.413ZM161.679 166.413C161.614 166.635 161.56 166.858 161.499 167.077C161.553 166.858 161.611 166.635 161.679 166.413Z" fill="#429B9C"/>
<path d="M218.354 131.934C218.354 131.934 219.691 131.743 219.691 129.749C219.691 127.754 220.648 124.029 220.648 124.029C220.648 124.011 221.476 117.541 222.62 116.512C223.763 115.484 225.233 109.444 225.233 109.444C225.233 109.444 225.484 106.167 225.996 105.462C226.509 104.757 227.201 103.03 228.222 100.566C229.244 98.102 233.503 96.3958 233.503 96.3958C233.503 96.3958 241.203 91.8227 243.385 90.332C243.583 90.2095 243.769 90.0662 243.938 89.9046C244.318 89.3937 245.974 89.3833 245.974 89.3833C246.147 88.2644 246.313 86.9786 246.368 85.8145C246.368 85.6894 246.368 85.5643 246.385 85.4392C243.952 83.9664 242.119 81.6444 241.223 78.8993C241.182 78.7673 241.148 78.6283 241.111 78.4962C240.965 78.447 240.831 78.3672 240.717 78.2619C240.603 78.1566 240.512 78.0281 240.449 77.8846C240.253 77.4364 240.249 76.9116 240.005 76.4946C239.72 76.0012 239.177 75.7371 238.749 75.3653C237.67 74.427 237.392 72.8459 237.443 71.4073C237.477 70.2432 237.66 69.0686 237.589 67.9114L237.568 67.6196C237.548 67.4458 237.524 67.2721 237.494 67.1053C237.327 66.2435 236.964 65.4303 236.761 64.5755C236.557 63.7206 236.537 62.7581 237.012 62.0214C237.707 60.9407 239.156 60.7252 240.429 60.614C241.871 60.4889 243.161 60.6522 244.084 59.4256C244.516 58.7844 245.002 58.1833 245.536 57.629C245.726 57.4483 247.572 56.2946 247.572 56.2182C249.374 55.3636 251.417 55.2032 253.325 55.7664C254.281 56.0514 255.184 56.517 256.155 56.7498C258.249 57.2572 260.658 56.7081 262.436 57.9348C263.427 58.6298 264.021 59.7348 264.578 60.8121C265.03 61.6994 265.489 62.5855 265.955 63.4704C266.705 64.9264 267.469 66.4068 267.784 68.0192C267.851 68.37 267.892 68.7255 267.907 69.0825V69.0999C267.907 69.2285 267.907 69.357 267.907 69.4856V69.6489C267.907 69.7706 267.907 69.8887 267.886 69.9964C267.866 70.1042 267.869 70.1389 267.859 70.2119C267.849 70.2849 267.832 70.4482 267.812 70.5594C267.791 70.6706 267.75 70.8652 267.71 71.0181C267.693 71.0841 267.669 71.1466 267.649 71.2092C267.615 71.3273 267.574 71.442 267.53 71.5567C267.506 71.6158 267.482 71.6783 267.455 71.7374C267.404 71.859 267.343 71.9772 267.282 72.0849C267.255 72.1335 267.235 72.1787 267.208 72.2239C267.113 72.3855 267.009 72.541 266.895 72.6895C266.169 73.6174 265.1 74.2081 264.309 75.0768C264.309 75.1116 264.309 75.1463 264.309 75.1776C264.309 75.2749 264.309 75.3687 264.309 75.466C264.267 77.4035 263.764 79.3012 262.842 80.9939C261.921 82.6866 260.61 84.1232 259.022 85.1786C259.022 85.3106 259.005 85.4462 258.999 85.5782C258.932 86.6097 258.945 87.6449 259.036 88.6744C259.174 88.5077 259.347 88.375 259.542 88.286C259.737 88.197 259.949 88.1539 260.163 88.1601C260.308 88.1528 260.454 88.1657 260.597 88.1983L260.627 88.174V88.2053C261.374 88.3929 262.294 89.1887 263.173 91.4509C263.173 91.4509 265.847 94.5367 267.883 94.4081C269.919 94.2795 275.074 97.619 275.074 97.619C275.074 97.619 280.103 100.962 281.182 104.367C281.785 106.298 282.508 108.188 283.347 110.025L289.564 123.143L290.711 133.55C290.711 133.55 290.077 138.179 290.202 138.884C290.328 139.59 287.593 145.952 287.593 145.952C287.593 145.952 278.556 162.212 274.863 163.046L274.599 162.855C274.441 162.939 274.273 163.003 274.1 163.046L273.34 162.497C273.294 163.109 273.313 163.724 273.397 164.332C273.906 165.937 273.207 176.414 272.318 178.468C271.429 180.521 271.745 207.449 271.745 207.449L271.87 209.826C271.87 209.826 271.87 209.902 271.84 210.034L271.87 210.597L271.779 210.646C271.683 211.4 271.714 212.165 271.87 212.908C272.189 213.951 272.318 216.897 272.318 216.897C272.318 216.897 274.86 233.536 273.655 236.878C272.451 240.221 271.426 243.884 271.426 243.884C271.426 243.884 270.153 248.054 271.365 248.766C272.576 249.479 276.021 250.674 275.311 252.412C274.667 254.017 272.22 258.319 271.857 258.948L271.887 259.278L272.386 264.814C272.305 265.545 272.112 266.258 271.813 266.927C271.266 268.132 270.204 269.383 268.185 269.248C267.845 269.224 267.452 269.182 267.072 269.13C263.376 268.622 258.825 266.934 258.825 266.934C259.062 266.78 259.278 266.597 259.47 266.388C259.652 266.208 259.796 265.992 259.893 265.753C259.991 265.514 260.04 265.257 260.037 264.998C259.983 263.99 261.825 259.188 262.283 258.006C262.355 257.836 262.392 257.739 262.392 257.739C262.392 257.739 258.191 253.242 258.89 249.256C258.89 249.256 263.539 246.476 262.009 244.951C260.478 243.425 257.743 239.043 257.743 239.043C257.743 239.043 257.617 222.659 257.743 220.213C257.874 218.515 257.795 216.806 257.509 215.129C257.458 214.875 257.397 214.628 257.332 214.385C255.216 214.709 253.079 214.875 250.939 214.882C250.158 214.882 249.364 214.882 248.563 214.833C248.563 215.065 248.553 215.315 248.533 215.584C248.356 219.643 248.027 226.759 247.759 229.404C247.379 233.195 245.278 243.411 245.278 243.411C245.278 243.411 249.286 246.045 244.579 252.537C244.579 252.537 244.579 254.889 244.892 255.23C245.225 256.343 245.493 257.476 245.696 258.621C245.893 259.845 245.974 261.082 245.655 261.725C244.892 263.26 240.31 263.135 240.31 263.135L240.198 263.115C239.333 263.023 238.459 263.108 237.627 263.365C236.794 263.622 236.02 264.046 235.349 264.612C233.608 266.044 227.001 265.415 223.424 264.96C222.022 264.779 221.086 264.612 221.086 264.612C221.04 264.45 221.024 264.28 221.038 264.112C221.076 263.212 221.765 261.238 226.434 259.476C226.434 259.476 230.825 256.453 230.764 253.819H230.856H231.365C230.995 253.798 230.757 253.819 230.757 253.819C230.757 253.819 232.478 247.39 231.776 246.869C231.073 246.348 233.177 239.224 233.177 239.224C233.177 239.224 234.382 227.27 234.446 226.433C234.444 225.714 234.337 225 234.131 224.313L234.446 217.759C234.446 217.759 234.507 215.58 234.446 214.871C234.457 214.256 234.505 213.642 234.592 213.033C234.623 212.79 234.653 212.536 234.687 212.286C233.041 211.859 231.972 211.463 231.972 211.463L232.162 188.649C230.764 185.869 230.506 179.771 230.513 175.444C230.513 172.664 230.635 170.607 230.635 170.607L228.725 167.414C228.725 167.414 228.284 163.591 228.983 162.754C229.291 162.375 229.152 161.982 228.898 161.659C228.766 161.552 228.626 161.454 228.48 161.367C228.48 161.367 228.501 161.336 228.525 161.291C228.391 161.177 228.249 161.073 228.1 160.982C228.1 160.982 228.779 159.904 228.172 159.449C227.601 159.845 227.092 160.144 226.706 160.387C226.733 160.641 226.76 160.787 226.76 160.787L226.597 160.44C226.224 160.655 225.996 160.787 225.996 160.787C225.996 160.787 223.003 154.682 223.068 153.781C223.132 152.881 221.032 149.09 221.032 149.09C221.032 149.09 220.777 147.099 219.63 146.265C218.483 145.431 218.741 139.388 218.741 139.388C218.741 139.388 218.422 136.24 217.658 134.954C216.895 133.668 218.354 131.934 218.354 131.934ZM275.623 129.255L275.566 130.711C275.905 130.152 276.149 129.749 276.149 129.749L275.623 129.255Z" fill="url(#paint0_linear_44_364)"/>
<path d="M225.833 158.149L226.566 161.346C226.566 161.346 232.437 158.278 233.496 154.379C234.555 150.48 231.725 149 231.725 149L226.254 151.373L225.833 158.149Z" fill="white"/>
<path opacity="0.1" d="M225.833 158.149L226.566 161.346C226.566 161.346 232.437 158.278 233.496 154.379C234.555 150.48 231.725 149 231.725 149L226.254 151.373L225.833 158.149Z" fill="black"/>
<path d="M258.781 266.954C258.781 266.954 264.211 268.998 267.944 269.255C269.926 269.39 270.968 268.146 271.504 266.947C271.797 266.281 271.986 265.572 272.064 264.845L271.578 259.337L271.32 256.404L263.39 254.295L262.267 257.812L262.161 258.079C261.71 259.254 259.901 264.032 259.956 265.029C259.958 265.285 259.91 265.538 259.814 265.774C259.718 266.01 259.577 266.223 259.399 266.402C259.217 266.612 259.009 266.798 258.781 266.954Z" fill="white"/>
<path d="M221.693 264.154C221.68 264.321 221.696 264.489 221.741 264.65C221.741 264.65 233.354 266.635 235.729 264.65C236.399 264.071 237.179 263.641 238.021 263.388C238.863 263.136 239.746 263.066 240.616 263.184C240.616 263.184 245.109 263.309 245.859 261.794C246.171 261.158 246.09 259.925 245.896 258.708C245.699 257.569 245.436 256.442 245.109 255.334L244.929 255.188L243.86 254.309L231.345 253.93H231.25C231.311 256.55 227.001 259.556 227.001 259.556C222.423 261.294 221.748 263.257 221.693 264.154Z" fill="white"/>
<path opacity="0.1" d="M221.693 264.154C221.681 264.321 221.699 264.489 221.744 264.65C221.744 264.65 233.354 266.635 235.729 264.65C236.398 264.071 237.179 263.642 238.019 263.389C238.86 263.137 239.744 263.067 240.612 263.184C240.612 263.184 245.109 263.309 245.855 261.794C246.168 261.155 246.09 259.924 245.896 258.708C244.165 258.885 241.434 259.327 240.361 260.38C238.739 261.982 235.99 263.58 234.304 263.705C232.984 263.792 225.087 264.049 221.693 264.154Z" fill="black"/>
<path opacity="0.1" d="M258.781 266.954C258.781 266.954 264.211 268.998 267.944 269.255C269.926 269.39 270.968 268.146 271.5 266.944C270.119 267.42 268.202 267.92 267.194 267.462C265.999 266.92 261.764 266.569 259.389 266.419C259.208 266.622 259.004 266.802 258.781 266.954Z" fill="black"/>
<path d="M250.725 102.293C255.205 100.51 260.967 94.62 259.528 91.8678C259.208 91.1733 259.018 90.4237 258.968 89.6577C258.875 88.6179 258.862 87.5722 258.927 86.5302C259.028 84.8237 259.229 83.1249 259.528 81.4429C259.528 81.4429 245.543 81.766 246.358 83.8754C246.595 84.4939 246.632 85.5677 246.568 86.77C246.504 87.9723 246.334 89.3311 246.157 90.4813C245.913 92.0589 245.669 93.2613 245.669 93.2613C245.669 93.2613 246.524 94.4879 247.026 94.5539C247.528 94.62 244.298 104.833 250.725 102.293Z" fill="#CF6F80"/>
<path opacity="0.1" d="M262.172 258.079L262.277 258.197C266.458 253.02 271.514 259.473 271.514 259.473L271.589 259.337L271.331 256.404L263.4 254.295L262.277 257.812L262.172 258.079Z" fill="black"/>
<path opacity="0.1" d="M231.246 254.295C231.246 254.295 234.3 254.229 235.929 255.702C237.558 257.176 245.431 256.022 245.092 255.702C244.991 255.544 244.931 255.362 244.915 255.174L243.846 254.295L231.331 253.916C231.284 254.149 231.246 254.295 231.246 254.295Z" fill="black"/>
<path d="M256.969 213.634C257.197 214.21 257.369 214.807 257.485 215.417C257.768 217.087 257.847 218.787 257.719 220.477C257.594 222.909 257.719 239.21 257.719 239.21C257.719 239.21 260.403 243.557 261.9 245.09C263.397 246.622 258.846 249.374 258.846 249.374C258.167 253.336 262.28 257.812 262.28 257.812C266.461 252.634 271.517 259.09 271.517 259.09C271.517 259.09 274.266 254.225 274.952 252.488C275.637 250.75 272.267 249.548 271.083 248.843C269.899 248.137 271.141 243.978 271.141 243.978C271.141 243.978 272.142 240.333 273.329 237.007C274.517 233.681 272.02 217.127 272.02 217.127C272.02 217.127 271.891 214.187 271.582 213.162C271.426 212.422 271.395 211.66 271.49 210.91C271.511 210.656 271.534 210.444 271.551 210.302C271.568 210.159 271.582 210.093 271.582 210.093L271.534 210.01L269.837 206.771C269.837 206.771 256.155 211.595 256.969 213.634Z" fill="#429B9C"/>
<path d="M231.246 253.913C231.246 253.913 234.3 253.847 235.929 255.303C237.558 256.759 245.431 255.622 245.092 255.303C244.752 254.983 244.78 252.617 244.78 252.617C249.398 246.16 245.458 243.54 245.458 243.54C245.458 243.54 247.522 233.376 247.895 229.605C248.156 226.971 248.479 219.893 248.652 215.851C248.726 214.114 248.77 212.918 248.77 212.918L244.997 212.14L244.512 212.039L235.41 210.17C235.41 210.17 235.159 211.907 234.989 213.329C234.905 213.935 234.857 214.547 234.847 215.16C234.908 215.855 234.847 218.03 234.847 218.03L234.538 224.553C234.74 225.237 234.844 225.947 234.847 226.662C234.786 227.493 233.601 239.384 233.601 239.384C233.601 239.384 231.541 246.48 232.244 246.991C232.946 247.501 231.246 253.913 231.246 253.913Z" fill="#429B9C"/>
<path opacity="0.1" d="M246.358 83.8754C246.595 84.4939 246.632 85.5677 246.568 86.77C248.441 87.9251 250.595 88.5156 252.781 88.4738C254.967 88.432 257.097 87.7596 258.927 86.5337C259.028 84.826 259.229 83.126 259.528 81.4429C259.528 81.4429 245.543 81.7591 246.358 83.8754Z" fill="black"/>
<path d="M240.952 76.1957C240.949 77.4479 241.141 78.6925 241.522 79.8826C242.372 82.5492 244.115 84.8222 246.444 86.2998C248.772 87.7774 251.536 88.3645 254.246 87.9574C256.957 87.5503 259.439 86.1751 261.255 84.075C263.071 81.9748 264.104 79.2849 264.17 76.4806C264.17 76.3833 264.17 76.293 264.17 76.1957C264.197 74.6172 263.916 73.0492 263.344 71.583C262.772 70.1169 261.921 68.782 260.841 67.6561C259.76 66.5303 258.471 65.6362 257.049 65.0258C255.627 64.4154 254.101 64.1011 252.559 64.1011C251.018 64.1011 249.491 64.4154 248.069 65.0258C246.648 65.6362 245.359 66.5303 244.278 67.6561C243.197 68.782 242.346 70.1169 241.774 71.583C241.203 73.0492 240.922 74.6172 240.948 76.1957H240.952Z" fill="#CF6F80"/>
<path opacity="0.1" d="M250.725 102.293C255.205 100.51 260.967 94.62 259.528 91.8678C259.208 91.1733 259.018 90.4237 258.968 89.6577L252.836 94.818L249.042 98.0046L246.157 90.4847C245.913 92.0624 245.669 93.2647 245.669 93.2647C245.669 93.2647 246.524 94.4914 247.026 94.5574C247.528 94.6234 244.298 104.833 250.725 102.293Z" fill="black"/>
<path d="M234.867 125.099L239.988 213.19L246.666 213.638L263.96 162.559L261.123 101.917L260.526 89.1052L252.836 95.5721L249.038 98.7587L246.069 91.0199L240.548 95.9474L234.867 125.099Z" fill="#429B9C"/>
<path opacity="0.1" d="M256.969 213.634C257.197 214.21 257.369 214.807 257.485 215.417C262.345 214.649 267.064 213.139 271.487 210.938L271.578 210.889L271.548 210.33L271.531 210.038L269.834 206.799C269.834 206.799 256.155 211.595 256.969 213.634Z" fill="black"/>
<path opacity="0.1" d="M244.919 215.431C246.161 215.647 247.414 215.793 248.672 215.869C248.747 214.131 248.791 212.936 248.791 212.936L245.017 212.157L244.919 215.431Z" fill="black"/>
<path opacity="0.1" d="M235.01 213.346C237.422 213.989 241.149 214.712 244.484 214.26L244.532 212.057L235.43 210.187C235.43 210.187 235.179 211.907 235.01 213.346Z" fill="black"/>
<path opacity="0.1" d="M244.545 214.663C258.459 217.096 271.202 210.121 271.202 210.121L271.08 207.758C271.08 207.758 270.764 180.97 271.64 178.916C272.515 176.862 273.197 166.448 272.702 164.849C272.206 163.251 274.51 139.28 274.51 139.28L274.884 129.551L288.546 123.883L282.438 110.845C281.613 109.017 280.903 107.136 280.313 105.215C279.251 101.831 274.32 98.5051 274.32 98.5051C274.32 98.5051 269.264 95.183 267.265 95.3081C265.266 95.4332 262.647 92.3683 262.647 92.3683C260.712 87.3192 258.961 89.6057 258.961 89.6057C258.961 89.8455 258.961 89.6057 259.056 90.3528C259.735 95.8954 248.082 113.409 247.915 113.719L246.806 141.4L245.682 176.431L244.545 214.663Z" fill="black"/>
<path d="M244.919 214.663C258.832 217.095 271.578 210.121 271.578 210.121L271.453 207.758C271.453 207.758 271.137 180.97 272.016 178.916C272.895 176.862 273.574 166.448 273.075 164.849C272.576 163.251 274.884 139.28 274.884 139.28L275.26 129.55L288.93 123.862L282.821 110.824C281.998 108.995 281.288 107.115 280.697 105.194C279.638 101.81 274.704 98.4842 274.704 98.4842C274.704 98.4842 269.647 95.1622 267.652 95.2873C265.657 95.4124 263.033 92.3474 263.033 92.3474C261.096 87.2983 258.961 89.5848 258.961 89.5848C258.961 89.8246 259.165 89.9323 259.056 90.3319C257.563 95.7077 248.455 113.388 248.288 113.698L247.165 141.379L246.042 176.41L244.919 214.663Z" fill="white"/>
<path opacity="0.1" d="M248.669 114.486C250.165 113.847 258.092 104.579 258.092 104.579V102.47C258.381 101.775 260.095 102.199 261.486 102.685L260.889 89.8732L260.21 90.45C258.724 95.8223 248.842 114.177 248.669 114.486Z" fill="black"/>
<path d="M248.292 113.718C249.792 113.079 257.719 103.811 257.719 103.811V101.702C258.008 101.007 259.721 101.431 261.113 101.917L260.512 89.1052L259.833 89.6821C258.344 95.0544 248.458 113.413 248.292 113.718Z" fill="white"/>
<path opacity="0.1" d="M271.202 159.939C271.015 159.939 261.527 158.917 261.527 158.917C261.527 158.917 255.781 170.486 256.158 173.3C256.535 176.115 257.217 178.607 259.528 178.165C261.839 177.724 271.965 178.513 271.965 178.513L271.202 159.939Z" fill="black"/>
<path d="M271.578 159.171C271.392 159.171 261.903 158.149 261.903 158.149C261.903 158.149 256.162 169.721 256.535 172.532C256.908 175.344 257.597 177.839 259.905 177.397C262.212 176.956 272.342 177.745 272.342 177.745L271.578 159.171Z" fill="white"/>
<path d="M264.428 153.74C264.428 153.74 255.72 158.532 255.534 159.995C255.347 161.458 259.966 159.355 260.963 159.102C261.62 158.94 262.289 158.833 262.962 158.782L269.617 158.966L264.428 153.74Z" fill="#CF6F80"/>
<path opacity="0.1" d="M251.098 115.084C250.592 115.084 250.182 114.664 250.182 114.146C250.182 113.628 250.592 113.208 251.098 113.208C251.604 113.208 252.015 113.628 252.015 114.146C252.015 114.664 251.604 115.084 251.098 115.084Z" fill="black"/>
<path d="M251.098 114.702C250.592 114.702 250.182 114.282 250.182 113.764C250.182 113.246 250.592 112.825 251.098 112.825C251.604 112.825 252.015 113.246 252.015 113.764C252.015 114.282 251.604 114.702 251.098 114.702Z" fill="#3F3D56"/>
<path opacity="0.1" d="M249.412 155.7C248.906 155.7 248.496 155.28 248.496 154.761C248.496 154.243 248.906 153.823 249.412 153.823C249.918 153.823 250.328 154.243 250.328 154.761C250.328 155.28 249.918 155.7 249.412 155.7Z" fill="black"/>
<path d="M249.412 155.314C248.906 155.314 248.496 154.894 248.496 154.376C248.496 153.857 248.906 153.437 249.412 153.437C249.918 153.437 250.328 153.857 250.328 154.376C250.328 154.894 249.918 155.314 249.412 155.314Z" fill="#3F3D56"/>
<path opacity="0.1" d="M250.185 135.392C249.679 135.392 249.269 134.972 249.269 134.454C249.269 133.935 249.679 133.515 250.185 133.515C250.692 133.515 251.102 133.935 251.102 134.454C251.102 134.972 250.692 135.392 250.185 135.392Z" fill="black"/>
<path d="M250.185 135.01C249.679 135.01 249.269 134.59 249.269 134.071C249.269 133.553 249.679 133.133 250.185 133.133C250.692 133.133 251.102 133.553 251.102 134.071C251.102 134.59 250.692 135.01 250.185 135.01Z" fill="#3F3D56"/>
<path d="M229.064 158.587C229.064 158.587 228.44 159.546 229.064 159.995C229.689 160.443 229.003 161.527 229.003 161.527C229.003 161.527 230.561 162.462 229.875 163.303C229.19 164.144 229.624 167.942 229.624 167.942L231.497 171.118C231.497 171.118 231.385 173.165 231.378 175.931C231.378 180.247 231.626 186.314 232.997 189.08L232.807 211.775C232.807 211.775 239.367 214.229 244.858 213.481L245.672 177.064C245.672 177.064 244.484 156.412 244.047 152.451C243.79 150.394 243.686 148.32 243.734 146.248C243.734 146.248 243.921 140.048 244.549 137.171C244.549 137.171 245.228 124.706 245.295 121.256C245.326 119.605 245.241 114.789 245.146 110.209C245.041 105.201 244.922 100.479 244.922 100.479L246.161 90.4431C246.161 90.4431 244.922 90.3146 244.549 90.8254C244.382 90.9853 244.2 91.1285 244.006 91.2528C241.868 92.7331 234.314 97.2853 234.314 97.2853C234.314 97.2853 230.133 98.9881 229.132 101.428C228.131 103.867 227.435 105.597 226.95 106.292C226.465 106.987 226.2 110.254 226.2 110.254C226.2 110.254 224.761 116.266 223.638 117.284C222.515 118.302 221.693 124.779 221.693 124.779L231.619 132.772C231.619 132.772 232.492 146.067 232.678 146.581C232.865 147.096 229.064 158.587 229.064 158.587Z" fill="white"/>
<path d="M228.687 158.587C228.687 158.587 228.066 159.546 228.687 159.995C229.308 160.443 228.63 161.527 228.63 161.527C228.63 161.527 230.177 162.472 229.498 163.313C228.82 164.154 229.247 167.952 229.247 167.952L231.121 171.128C231.121 171.128 231.009 173.175 230.998 175.941C230.998 180.257 231.246 186.325 232.617 189.091L232.43 211.786C232.43 211.786 239 214.239 244.484 213.492L245.295 177.074C245.295 177.074 244.108 156.422 243.67 152.461C243.413 150.404 243.31 148.331 243.361 146.258C243.361 146.258 243.548 140.059 244.172 137.181C244.172 137.181 244.851 124.717 244.922 121.266C244.953 119.615 244.864 114.799 244.773 110.219C244.668 105.212 244.549 100.489 244.549 100.489L246.185 90.318C246.185 90.318 244.549 90.318 244.172 90.8358C244.006 90.9976 243.824 91.1409 243.629 91.2632C241.491 92.7435 233.934 97.2957 233.934 97.2957C233.934 97.2957 229.756 98.9985 228.755 101.438C227.754 103.877 227.059 105.608 226.57 106.303C226.081 106.998 225.823 110.264 225.823 110.264C225.823 110.264 224.384 116.276 223.261 117.294C222.138 118.312 221.327 124.776 221.327 124.776L231.253 132.768C231.253 132.768 232.125 146.063 232.315 146.578C232.505 147.092 228.687 158.587 228.687 158.587Z" fill="white"/>
<path opacity="0.1" d="M240.575 103.439L239.679 106.115L244.396 110.98C244.291 105.976 244.172 101.25 244.172 101.25L245.808 91.079C245.808 91.079 244.172 91.079 243.795 91.5967C243.63 91.7581 243.448 91.9003 243.253 92.0207L239.241 103.87L240.575 103.439Z" fill="black"/>
<path d="M240.952 102.672L240.052 105.347L244.769 110.212C244.664 105.205 244.545 100.482 244.545 100.482L246.185 90.311C246.185 90.311 244.545 90.311 244.172 90.8288C244.006 90.9897 243.824 91.1329 243.629 91.2562L239.615 103.102L240.952 102.672Z" fill="white"/>
<path opacity="0.1" d="M240.952 76.1957C240.949 77.4479 241.141 78.6925 241.522 79.8827C241.586 79.8929 241.651 79.8899 241.714 79.8738C241.777 79.8576 241.836 79.8288 241.888 79.7888C241.977 76.6613 243.48 73.725 245.329 71.2265C245.849 70.4721 246.478 69.8041 247.196 69.2458C247.921 68.6877 248.824 68.4263 249.727 68.5125C250.745 68.655 251.645 69.3639 252.673 69.4543C254.03 69.5689 255.245 68.6064 256.593 68.5577C257.14 68.563 257.68 68.6879 258.177 68.924C258.674 69.1601 259.116 69.502 259.474 69.9268C260.181 70.7842 260.707 71.783 261.018 72.8597C261.551 74.4924 261.842 76.198 261.88 77.9193C261.897 78.8923 261.988 80.112 262.871 80.4664C262.804 79.7509 262.884 79.029 263.104 78.3465C263.324 77.6639 263.68 77.0357 264.15 76.5015L264.17 76.4806C264.17 76.3833 264.17 76.293 264.17 76.1957C264.197 74.6172 263.916 73.0492 263.344 71.583C262.772 70.1169 261.921 68.782 260.841 67.6561C259.76 66.5303 258.471 65.6362 257.049 65.0258C255.627 64.4154 254.101 64.1011 252.559 64.1011C251.018 64.1011 249.491 64.4154 248.069 65.0258C246.648 65.6362 245.359 66.5303 244.278 67.6561C243.197 68.782 242.346 70.1169 241.774 71.583C241.203 73.0492 240.922 74.6172 240.948 76.1957H240.952Z" fill="black"/>
<path d="M247.752 57.3162C249.516 56.4668 251.521 56.3061 253.392 56.8644C254.332 57.1494 255.218 57.6116 256.172 57.8444C258.208 58.3482 260.583 57.8027 262.331 59.0224C263.302 59.7174 263.885 60.8155 264.428 61.8823L265.786 64.5302C266.525 65.9793 267.272 67.4527 267.581 69.0477C267.89 70.6427 267.703 72.4288 266.715 73.7111C265.996 74.6459 264.934 75.2331 264.153 76.1123C263.686 76.6471 263.331 77.275 263.111 77.9566C262.892 78.6383 262.812 79.3591 262.877 80.0738C261.992 79.7263 261.907 78.5031 261.886 77.5301C261.849 75.8088 261.558 74.1032 261.024 72.4705C260.715 71.3935 260.189 70.3946 259.48 69.5377C259.123 69.1131 258.681 68.7715 258.184 68.5354C257.687 68.2994 257.147 68.1743 256.599 68.1685C255.242 68.2172 254.024 69.1763 252.68 69.0616C251.662 68.9747 250.759 68.2623 249.734 68.1233C248.831 68.0358 247.928 68.2973 247.203 68.8566C246.485 69.414 245.857 70.0822 245.34 70.8373C243.487 73.3358 241.983 76.2652 241.895 79.3996C241.512 79.6881 240.958 79.3128 240.768 78.868C240.578 78.4232 240.572 77.9019 240.331 77.478C240.052 76.988 239.52 76.7274 239.102 76.359C238.043 75.4243 237.779 73.8501 237.819 72.4219C237.86 70.9937 238.132 69.5446 237.867 68.1407C237.707 67.2789 237.348 66.4727 237.151 65.6214C236.954 64.77 236.93 63.8144 237.395 63.0812C238.074 62.0039 239.503 61.7919 240.748 61.6912C242.163 61.5661 243.429 61.7259 244.332 60.5062C244.755 59.8697 245.232 59.2721 245.757 58.7201C245.937 58.5394 247.752 57.3926 247.752 57.3162Z" fill="#512E4E"/>
<path opacity="0.1" d="M284.637 130.596L288.183 123.883L289.306 134.242C289.306 134.242 288.682 138.843 288.807 139.548C288.933 140.253 286.249 146.578 286.249 146.578C286.249 146.578 277.381 162.75 273.76 163.584L261.527 154.633L264.771 150.414C264.771 150.414 265.894 149.966 266.176 150.414C266.176 150.414 272.199 139.802 272.824 139.034C273.448 138.266 273.326 136.733 273.326 136.733C273.326 136.733 274.263 135.712 273.95 134.753C273.638 133.793 275.759 130.468 275.759 130.468L273.825 128.616L284.637 130.596Z" fill="black"/>
<path d="M287.996 123.118L288.933 123.883L290.056 134.242C290.056 134.242 289.432 138.843 289.557 139.548C289.683 140.253 286.995 146.578 286.995 146.578C286.995 146.578 278.131 162.75 274.51 163.584L262.273 154.633L265.521 150.414C265.521 150.414 266.644 149.966 266.926 150.414C266.926 150.414 272.949 139.802 273.574 139.034C274.198 138.266 274.073 136.733 274.073 136.733C274.073 136.733 275.009 135.712 274.697 134.752C274.385 133.793 276.509 130.468 276.509 130.468L274.575 128.616L287.996 123.118Z" fill="white"/>
<path opacity="0.1" d="M229.875 163.699C229.196 164.543 229.624 168.335 229.624 168.335L231.497 171.511C231.497 171.511 231.385 173.561 231.379 176.324L234.528 177.331C234.812 177.422 235.114 177.442 235.408 177.39C235.701 177.337 235.979 177.213 236.216 177.028C236.454 176.844 236.644 176.604 236.773 176.328C236.901 176.053 236.963 175.75 236.954 175.444L236.411 157.51L229.064 160.387C229.689 160.832 229.003 161.923 229.003 161.923C229.003 161.923 230.561 162.855 229.875 163.699Z" fill="black"/>
<path d="M229.499 163.313C228.82 164.158 229.247 167.952 229.247 167.952L231.121 171.128C231.121 171.128 231.009 173.175 230.998 175.941L234.205 176.966C234.484 177.055 234.779 177.074 235.067 177.023C235.354 176.971 235.626 176.849 235.858 176.668C236.09 176.488 236.277 176.253 236.403 175.983C236.529 175.713 236.59 175.416 236.581 175.118L236.034 157.128L228.684 160.005C229.312 160.45 228.626 161.538 228.626 161.538C228.626 161.538 230.177 162.472 229.499 163.313Z" fill="white"/>
<path d="M227.065 154.765C227.065 154.765 227.564 158.028 228.813 158.219C230.062 158.41 230.622 163.497 231.867 163.317C233.113 163.136 232.288 158.587 232.244 157.705C232.2 156.822 233.601 153.166 232.553 152.336C231.504 151.505 228.185 152.336 228.185 152.336L227.065 154.765Z" fill="#CF6F80"/>
<path opacity="0.1" d="M224.408 129.637L222.053 124.772C222.053 124.772 221.116 128.48 221.116 130.461C221.116 132.442 219.807 132.636 219.807 132.636C219.807 132.636 218.371 134.374 219.128 135.639C219.885 136.903 220.19 140.052 220.19 140.052C220.19 140.052 219.942 146.06 221.066 146.891C222.189 147.721 222.423 149.705 222.423 149.705C222.423 149.705 224.486 153.476 224.422 154.372C224.357 155.269 227.293 161.339 227.293 161.339C227.293 161.339 225.857 153.795 234.222 150.536C234.222 150.536 234.287 147.975 233.662 147.273C233.038 146.571 232.064 146.251 232.675 142.703C233.286 139.155 232.851 134.916 232.851 134.064C232.851 133.213 230.978 127.903 230.978 127.903L224.408 129.637Z" fill="black"/>
<path d="M223.39 124.077L221.334 124.772C221.334 124.772 220.394 128.48 220.394 130.461C220.394 132.442 219.084 132.636 219.084 132.636C219.084 132.636 217.648 134.374 218.405 135.639C219.162 136.904 219.464 140.052 219.464 140.052C219.464 140.052 219.216 146.06 220.339 146.891C221.463 147.721 221.714 149.705 221.714 149.705C221.714 149.705 223.774 153.476 223.709 154.372C223.645 155.269 226.583 161.34 226.583 161.34C226.583 161.34 225.145 153.795 233.513 150.536C233.513 150.536 233.574 147.975 232.95 147.273C232.325 146.571 231.351 146.251 231.962 142.703C232.573 139.155 232.139 134.916 232.139 134.064C232.139 133.213 230.265 127.903 230.265 127.903L223.39 124.077Z" fill="white"/>
<path opacity="0.1" d="M268.813 250.174C268.813 250.174 265.535 248.064 263.383 249.597C261.232 251.129 268.813 250.174 268.813 250.174Z" fill="black"/>
<path opacity="0.1" d="M243.341 243.651C243.341 243.651 240.439 243.269 238.003 245.955C235.566 248.641 243.341 243.651 243.341 243.651Z" fill="black"/>
<g opacity="0.1">
<path d="M239.095 75.5981C239.513 75.9664 240.049 76.2305 240.327 76.7205C240.565 77.141 240.572 77.6588 240.762 78.1105C240.952 78.5623 241.505 78.9306 241.888 78.6457C241.977 75.5182 243.483 72.5818 245.333 70.0798C245.85 69.3248 246.478 68.6566 247.196 68.0991C247.922 67.5399 248.826 67.2785 249.731 67.3659C250.749 67.5084 251.645 68.2173 252.673 68.3041C254.03 68.4223 255.249 67.4597 256.596 67.4111C257.143 67.4166 257.683 67.542 258.18 67.7787C258.676 68.0155 259.117 68.3581 259.474 68.7837C260.182 69.6393 260.708 70.6371 261.018 71.7131C261.551 73.3459 261.842 75.0514 261.88 76.7726C261.9 77.7422 261.988 78.9514 262.864 79.3128C262.843 79.5696 262.843 79.8276 262.864 80.0843C261.981 79.7368 261.893 78.5136 261.873 77.5406C261.835 75.8194 261.544 74.1137 261.011 72.4811C260.701 71.404 260.175 70.4051 259.467 69.5482C259.11 69.1238 258.668 68.7821 258.172 68.546C257.676 68.31 257.136 68.1849 256.589 68.179C255.232 68.2277 254.01 69.1868 252.666 69.0721C251.648 68.9852 250.745 68.2729 249.724 68.1339C248.819 68.0464 247.915 68.3079 247.189 68.8671C246.472 69.4245 245.843 70.0928 245.326 70.8478C243.476 73.3463 241.97 76.2757 241.881 79.4101C241.498 79.6986 240.945 79.3233 240.755 78.8785C240.565 78.4337 240.558 77.9124 240.32 77.4885C240.042 76.9985 239.506 76.7379 239.089 76.3695C238.03 75.4348 237.765 73.8606 237.806 72.4324C237.806 72.3872 237.806 72.3421 237.806 72.3004C237.87 73.5374 238.193 74.7989 239.095 75.5981Z" fill="black"/>
<path d="M264.147 75.3514C264.927 74.4722 265.993 73.885 266.709 72.9537C267.312 72.1292 267.656 71.1368 267.696 70.1077C267.803 71.3937 267.452 72.676 266.709 73.7182C265.993 74.6529 264.927 75.2402 264.147 76.1194C263.397 76.9793 262.947 78.0694 262.867 79.219C262.815 78.5194 262.902 77.8162 263.122 77.1516C263.341 76.487 263.69 75.8747 264.147 75.3514Z" fill="black"/>
<path d="M237.144 64.8604C237.344 65.7118 237.701 66.5214 237.864 67.3798C237.96 67.9533 237.995 68.5359 237.969 69.1172C237.957 68.7861 237.922 68.4562 237.864 68.1304C237.701 67.2686 237.344 66.4624 237.144 65.611C237.027 65.1414 236.99 64.6549 237.032 64.1724C237.053 64.4042 237.091 64.6341 237.144 64.8604Z" fill="black"/>
</g>
<path opacity="0.1" d="M329.957 264.303C311.695 264.303 296.891 261.868 296.891 258.865C296.891 255.861 311.695 253.426 329.957 253.426C348.22 253.426 363.024 255.861 363.024 258.865C363.024 261.868 348.22 264.303 329.957 264.303Z" fill="#429B9C"/>
<path d="M328.892 154.685H331.02V203.741H328.892V154.685Z" fill="#535461"/>
<path d="M315.521 203.592L315.654 205.802L315.844 208.929L315.922 210.229L316.108 213.356L316.19 214.656L316.38 217.784L318.525 253.253C318.618 254.779 319.275 256.211 320.364 257.258C321.452 258.305 322.889 258.888 324.382 258.889H335.533C337.026 258.888 338.463 258.305 339.55 257.258C340.638 256.211 341.295 254.778 341.387 253.253L343.522 217.759L343.712 214.632L343.79 213.332L343.98 210.205L344.058 208.905L344.248 205.777L344.383 203.567C344.407 203.142 344.345 202.716 344.203 202.316C344.06 201.916 343.838 201.55 343.552 201.24C343.266 200.931 342.922 200.685 342.539 200.517C342.157 200.348 341.745 200.262 341.329 200.263H318.521C318.107 200.266 317.697 200.357 317.318 200.529C316.939 200.701 316.599 200.951 316.318 201.262C316.037 201.574 315.821 201.942 315.684 202.343C315.547 202.743 315.492 203.168 315.521 203.592Z" fill="#3F3D56"/>
<path d="M315.654 205.802L315.844 208.919H344.071L344.261 205.802H315.654Z" fill="#9D9CB5"/>
<path d="M315.922 210.219L316.108 213.339H343.803L343.993 210.219H315.922Z" fill="#9D9CB5"/>
<path d="M316.19 214.642L316.377 217.759H343.535L343.725 214.642H316.19Z" fill="#9D9CB5"/>
<path d="M347.509 173.071C335.119 182.252 329.947 196.61 329.947 196.61C329.947 196.61 344.879 196.086 357.272 186.905C369.665 177.724 374.827 163.369 374.827 163.369C374.827 163.369 359.902 163.89 347.509 173.071Z" fill="#429B9C"/>
<path d="M374.837 163.369C374.837 163.369 359.335 172.178 354.364 179.472C349.392 186.766 329.947 196.61 329.947 196.61" stroke="#535461" stroke-width="2" stroke-miterlimit="10"/>
<path d="M339.51 154.577C332.767 159.571 329.947 167.386 329.947 167.386C329.947 167.386 338.075 167.101 344.821 162.108C351.568 157.114 354.381 149.295 354.381 149.295C354.381 149.295 346.257 149.58 339.51 154.577Z" fill="#429B9C"/>
<path d="M354.381 149.295C354.381 149.295 345.945 154.091 343.24 158.059C340.535 162.028 329.947 167.386 329.947 167.386" stroke="#535461" stroke-width="2" stroke-miterlimit="10"/>
<path d="M320.157 166.99C327.904 175.709 329.544 187.103 329.544 187.103C329.544 187.103 318.62 184.358 310.879 175.636C303.138 166.913 301.492 155.522 301.492 155.522C301.492 155.522 312.41 158.271 320.157 166.99Z" fill="#429B9C"/>
<path d="M301.486 155.526C301.486 155.526 311.578 164.464 314.144 170.621C316.709 176.779 329.544 187.103 329.544 187.103" stroke="#535461" stroke-width="2" stroke-miterlimit="10"/>
<path d="M35.7578 163.921C35.7578 163.921 41.3605 135.378 39.2158 131.827C39.2158 131.827 39.1377 128.525 39.2667 124.317C39.2667 124.157 39.2667 123.997 39.2667 123.834C38.8893 124.092 38.496 124.324 38.0891 124.529C36.1131 125.569 33.8444 125.869 31.6753 125.377L33.3721 123.441C33.7793 122.979 34.2035 122.479 34.2918 121.867C34.38 121.256 34.1356 120.71 33.9252 120.165C32.3133 115.995 32.2285 110.751 35.3336 107.568C37.9568 104.892 38.5947 101.438 41.4419 98.995C43.5222 97.2054 44.6658 94.5818 45.745 92.0451C46.6578 89.901 47.5775 87.7396 48.1001 85.4669C48.5073 83.6912 48.6702 81.853 49.2301 80.119C49.7901 78.385 50.8387 76.6996 52.4777 75.9247C53.0614 75.6502 53.7096 75.4938 54.2424 75.1289C54.9415 74.6459 55.3622 73.8605 55.8679 73.1725C58.4368 69.6975 67.0394 71.7443 71.1117 73.1551C72.2188 73.5104 73.2439 74.092 74.1252 74.8648L74.0878 74.8023C74.0573 74.7501 74.0199 74.698 73.986 74.6459C74.4317 75.015 74.8167 75.4549 75.1262 75.949C75.7201 76.9116 75.9678 78.034 76.4633 79.0765C77.0606 80.3101 80.3828 83.7538 78.9542 85.1403C78.854 85.2334 78.7393 85.3086 78.6148 85.3627C78.0785 85.5913 77.488 85.6517 76.918 85.5365L76.9791 85.6859C77.467 86.9092 77.7172 88.2182 77.7155 89.5396C77.7155 95.249 73.1173 99.8777 67.4399 99.8777C66.3725 99.8787 65.3114 99.7111 64.2941 99.3807C64.2703 99.5128 64.2499 99.6448 64.2262 99.7769C64.2262 99.829 64.2092 99.8811 64.2024 99.9333L64.3823 100.19C64.3913 100.175 64.4015 100.159 64.4128 100.145L69.7407 107.769C70.5551 108.357 75.245 111.832 75.5097 114.438C75.788 117.291 76.0662 120.63 76.0662 120.63L76.1036 121.346C76.3364 121.545 76.6087 121.69 76.9017 121.771C77.1946 121.852 77.5012 121.867 77.8003 121.815C79.4632 121.537 79.4632 128.07 79.4632 128.07C79.4632 128.07 80.5695 129.113 81.3296 128.209C82.0898 127.306 84.0988 130.367 84.0988 130.367L96.6888 130.923L96.9773 130.94L97.656 128.789C97.729 128.563 97.8865 128.374 98.0943 128.266C98.3021 128.157 98.5433 128.137 98.7657 128.209C98.8182 128.227 98.8693 128.249 98.9184 128.275L98.9659 128.303L99.0541 128.365L99.0982 128.407C99.1225 128.43 99.1452 128.454 99.1661 128.48L99.2068 128.529L99.2272 128.55C99.3055 128.661 99.3574 128.789 99.3786 128.924C99.3999 129.059 99.3898 129.198 99.3493 129.328L98.7657 131.173C101.195 131.674 103.68 133.085 101.654 136.97L111.922 135.027L108.6 137.883L91.4492 141.508C91.6765 141.925 91.5272 142.529 90.818 143.381C87.7638 147.054 82.1984 148.051 79.9587 148.308C79.3672 149.663 78.6283 150.946 77.7562 152.131L77.9497 155.79C77.9497 155.79 83.6203 183.68 84.6587 185.094C84.1345 184.486 83.6547 183.839 83.2232 183.159C84.8691 188.889 87.1699 196.732 87.774 197.907C88.7445 199.783 89.6438 207.376 88.5375 207.862C88.1982 208.012 87.2276 207.939 85.843 207.831V208.46L85.9041 232.295C85.9041 232.295 85.6259 246.914 86.3894 248.308C87.1529 249.701 87.3566 252.624 87.3566 252.624C87.3566 252.624 90.4108 258.389 92.8304 260.706C92.8468 260.724 92.865 260.741 92.8846 260.755L92.9593 260.213C92.9593 260.213 95.8676 263.973 102.302 263.761C102.302 263.761 106.174 266.339 100.432 266.478C94.69 266.617 87.3566 266.27 87.3566 266.27C87.3566 266.27 82.2357 258.277 77.9463 259.32V265.377H76.633V259.223C76.0239 258.812 75.5026 258.279 75.1007 257.656C74.6988 257.033 74.4246 256.333 74.2948 255.598C74.1824 254.841 74.2648 254.067 74.5337 253.352C74.8027 252.637 75.2491 252.006 75.8287 251.522C76.0891 251.281 76.298 250.987 76.4423 250.66C76.5865 250.332 76.663 249.977 76.6669 249.618L76.7144 249.659C76.7144 249.538 76.7449 249.413 76.7585 249.284C77.1352 246.157 77.6069 239.704 75.9407 234.929C73.6568 228.382 72.9646 219.264 74.6274 213.836C75.1639 212.101 75.6047 210.336 75.9475 208.551C75.9882 208.325 76.0255 208.109 76.0595 207.908C74.9228 208.065 73.7972 208.297 72.6897 208.603C68.838 209.69 60.4118 209.892 53.2175 209.833C53.2006 210.034 53.1802 210.246 53.1564 210.458C53.0282 211.932 52.76 213.389 52.3556 214.809C51.4529 217.589 51.0389 229.845 51.0389 229.845C51.0389 229.845 49.8749 239.923 50.5095 244.023C50.8488 246.303 51.1882 248.593 51.3816 250.893V250.938C51.3816 250.938 53.2888 256.498 54.6835 259.518C54.7175 259.594 54.7548 259.671 54.7887 259.744C55.1606 259.779 55.5266 259.861 55.8781 259.991C55.8781 259.991 57.7479 263.813 59.611 264.445C61.474 265.078 60.8564 267.159 56.6382 266.395C52.42 265.63 46.0504 265.005 46.0504 265.005L45.7755 261.106L44.4792 259.445L44.8185 263.333L43.4373 263.055L43.6206 258.326L41.4996 255.609C41.4996 255.609 38.9375 253.273 42.7451 248.679V248.78C42.7858 248.714 42.8231 248.645 42.8672 248.579V248.558C43.4984 247.557 44.0007 245.691 43.081 242.379C41.4182 236.395 40.451 230.964 40.451 230.964C40.451 230.964 36.7385 216.414 41.201 209.53H41.0042C41.4615 208.562 41.7847 207.533 41.9646 206.472C41.9872 206.347 42.0076 206.219 42.0257 206.087C38.7237 205.892 35.4829 205.281 32.8393 203.96C32.8495 203.946 34.4411 169.419 35.7578 163.921ZM77.6782 139.84V139.909L78.3569 139.944L77.6782 139.84ZM80.0061 140.17C80.1177 140.195 80.2222 140.246 80.3116 140.319C80.6034 140.742 80.7866 141.233 80.8444 141.748L81.9031 141.504C81.9031 141.504 82.6463 141.341 83.7153 141.157L84.2209 140.636C82.8296 140.517 81.3839 140.344 80.0061 140.17Z" fill="url(#paint1_linear_44_364)"/>
<path d="M44.9746 258.375L45.3784 263.299L44.0244 263.021L44.228 257.68L44.9746 258.375Z" fill="#1D2366"/>
<path d="M75.866 234.995C77.4983 239.756 77.0368 246.181 76.6703 249.301C76.5346 250.455 76.409 251.157 76.409 251.157C76.409 251.157 78.8489 256.849 79.0525 257.065C79.2562 257.28 86.2333 261.641 86.2333 261.641L91.1098 264.557C91.1098 264.557 96.0576 262.336 93.6855 261.572C93.2008 261.372 92.7643 261.068 92.4062 260.679C90.0307 258.368 87.0477 252.624 87.0477 252.624C87.0477 252.624 86.8441 249.708 86.0975 248.322C85.351 246.935 85.6225 232.364 85.6225 232.364L85.5648 208.613V205.517L76.2834 205.586C76.2249 206.637 76.091 207.683 75.883 208.714C75.5498 210.494 75.1182 212.252 74.5901 213.982C72.9544 219.399 73.6331 228.473 75.866 234.995Z" fill="#FFB0B1"/>
<path opacity="0.1" d="M76.409 251.157C76.409 251.157 78.8489 256.849 79.0526 257.064C79.2562 257.28 86.2333 261.641 86.2333 261.641L91.1098 264.557C91.1098 264.557 96.0576 262.336 93.6855 261.572C93.2008 261.372 92.7643 261.068 92.4062 260.678L92.1958 262.197L90.5702 262.128L76.6567 249.308C76.5345 250.455 76.409 251.157 76.409 251.157Z" fill="black"/>
<path d="M76.5787 249.632L90.5703 262.538L92.1958 262.607L92.5352 260.175C92.5352 260.175 95.379 263.921 101.698 263.712C101.698 263.712 105.492 266.28 99.8686 266.419C94.2455 266.558 87.0648 266.211 87.0648 266.211C87.0648 266.211 82.0491 258.218 77.8513 259.261V265.297H76.5618V259.205C75.9622 258.792 75.4505 258.259 75.0574 257.638C74.6643 257.016 74.398 256.32 74.2745 255.591C74.1629 254.84 74.2419 254.072 74.504 253.361C74.7661 252.65 75.2024 252.021 75.7711 251.532C76.025 251.289 76.2277 250.994 76.3665 250.667C76.5054 250.341 76.5776 249.988 76.5787 249.632Z" fill="#1D2366"/>
<path d="M43.685 242.418C44.5877 245.719 44.0956 247.578 43.478 248.575V248.596C42.6858 249.828 42.1349 251.205 41.8559 252.651L41.8016 252.964L48.1679 262.468L51.6225 263.858C51.6225 263.858 57.1777 261.916 56.1631 261.36C55.9085 261.224 55.5115 260.501 55.0568 259.504C53.6994 256.498 51.8261 250.952 51.8261 250.952V250.907C51.6293 248.617 51.3171 246.334 50.9709 244.061C50.3499 239.971 51.4902 229.932 51.4902 229.932C51.4902 229.932 51.8974 217.724 52.7797 214.948C53.178 213.536 53.4428 212.089 53.5704 210.625C53.7537 208.888 53.7944 207.456 53.7944 207.456C53.7944 207.456 50.1361 202.243 43.4305 207.873C42.8942 208.322 42.4224 208.846 42.0289 209.43C37.3968 216.178 41.1263 231.044 41.1263 231.044C41.1263 231.044 42.0595 236.451 43.685 242.418Z" fill="#FFB0B1"/>
<path opacity="0.1" d="M41.7914 252.964L48.1577 262.468L51.6124 263.858C51.6124 263.858 57.1676 261.916 56.1529 261.36C55.8984 261.224 55.5014 260.501 55.0466 259.504C52.6949 259.483 51.4766 261.777 51.4766 261.777L48.4971 261.29C48.4971 261.29 44.5674 253.381 43.685 252.898C42.8027 252.415 43.5493 249.288 43.5493 249.288V248.492C43.5255 248.52 43.5052 248.551 43.478 248.579V248.6C42.6859 249.831 42.135 251.208 41.8559 252.655L41.7914 252.964Z" fill="black"/>
<path d="M51.273 261.982C51.273 261.982 52.9698 258.792 56.2208 259.97C56.2208 259.97 58.0499 263.792 59.8791 264.411C61.7082 265.029 61.0973 267.114 56.964 266.353C52.8307 265.592 46.6001 264.963 46.6001 264.963L46.3286 261.075L42.1274 255.595C42.1274 255.595 39.623 253.27 43.3491 248.693V249.489C43.3491 249.489 42.6025 252.617 43.4848 253.1C44.3672 253.583 48.2833 261.495 48.2833 261.495L51.273 261.982Z" fill="#1D2366"/>
<path opacity="0.1" d="M76.2733 205.579C76.2148 206.63 76.0809 207.676 75.8729 208.707C79.694 208.133 83.2402 208.418 85.5648 208.606V205.51L76.2733 205.579Z" fill="black"/>
<path opacity="0.1" d="M41.6523 210.295C41.6523 210.295 47.082 210.566 53.5569 210.622C53.7401 208.884 53.7809 207.452 53.7809 207.452C53.7809 207.452 50.1227 202.24 43.417 207.869C42.8808 208.318 42.409 208.842 42.0155 209.426C41.9103 209.722 41.7891 210.012 41.6523 210.295Z" fill="black"/>
<path d="M41.6523 209.669C41.6523 209.669 65.4343 210.847 72.6829 208.766C79.9315 206.684 87.1156 208.488 88.1982 208.005C89.2807 207.522 88.4018 199.957 87.4516 198.084C86.5014 196.211 81.2889 177.269 81.2889 177.269L76.2733 150.491L70.9895 149L70.6162 148.892L61.4095 146.293L54.6632 144.385C54.6632 144.385 41.2485 198.014 42.3989 201.969C42.8167 203.483 42.8841 205.076 42.5957 206.622C42.42 207.677 42.1025 208.703 41.6523 209.669Z" fill="#1D2366"/>
<path d="M93.7568 132.177C93.7568 132.177 98.5078 137.39 94.9106 140.295C91.3135 143.2 88.9482 140.573 88.9482 140.573L93.7568 132.177Z" fill="#C7DAF5"/>
<path opacity="0.1" d="M93.7568 132.177C93.7568 132.177 98.5078 137.39 94.9106 140.295C91.3135 143.2 88.9482 140.573 88.9482 140.573L93.7568 132.177Z" fill="black"/>
<path d="M55.3725 97.9074C55.3725 97.9074 55.929 98.4494 56.7672 99.2487C57.9617 100.392 59.7298 102.063 61.2976 103.464C63.4694 105.399 65.2613 106.821 64.6199 105.608C63.9785 104.395 64.1007 102.282 64.4196 100.305C64.4434 100.173 64.4638 100.041 64.4875 99.9124C64.7517 98.4603 65.1019 97.0259 65.5361 95.6173C65.5361 95.6173 62.0272 90.9748 60.0861 89.1435C59.3633 88.4485 58.8576 88.1635 58.8271 88.6466C58.7932 89.2964 58.3181 90.7315 57.7276 92.2536C57.7106 92.3022 57.6936 92.3474 57.6733 92.396C57.2796 93.4385 56.8351 94.5088 56.4448 95.4332C55.8476 96.851 55.3725 97.9074 55.3725 97.9074Z" fill="#FFB0B1"/>
<path opacity="0.1" d="M57.6733 92.396C58.003 94.2121 58.8031 95.9043 59.9899 97.2956C61.1766 98.6868 62.7065 99.7262 64.4196 100.305C64.6895 98.7187 65.0625 97.1527 65.5361 95.6173C65.5361 95.6173 58.9289 86.8777 58.8271 88.6465C58.8033 89.3172 58.2875 90.8044 57.6733 92.396Z" fill="black"/>
<path opacity="0.1" d="M65.078 102.64L64.2228 101.407C64.2228 101.407 63.6561 104.944 61.5725 103.384C59.4889 101.824 59.387 115.126 59.387 115.126L61.6234 149.365L77.7834 148.374L77.3253 131.83L75.4962 123.49L70.9726 111.366L68.2815 107.359L65.078 102.64Z" fill="black"/>
<path d="M59.387 115.338L61.4231 146.296L61.6369 149.577L70.6468 149.024L70.9861 149.003L77.7732 148.586L77.3151 132.039L75.4859 123.699L70.9624 111.574L68.2713 107.568L65.0678 102.831L64.2126 101.601C64.2126 101.601 63.6459 105.139 61.5622 103.579L61.5181 103.547C59.482 102.227 59.387 115.338 59.387 115.338Z" fill="#1D2366"/>
<path d="M75.2586 120.8C75.2586 120.8 76.0696 122.538 77.6985 122.256C79.3274 121.975 79.324 128.511 79.324 128.511C79.324 128.511 80.4066 129.554 81.1532 128.65C81.8997 127.747 83.868 130.801 83.868 130.801L96.2001 131.357C96.2001 131.357 90.7128 133.925 91.7885 141.695C91.7885 141.695 73.158 140.514 72.5471 138.71C71.9363 136.907 75.2586 120.8 75.2586 120.8Z" fill="white"/>
<path opacity="0.03" d="M75.2586 120.8C75.2586 120.8 76.0696 122.538 77.6985 122.256C79.3274 121.975 79.324 128.511 79.324 128.511C79.324 128.511 80.4066 129.554 81.1532 128.65C81.8997 127.747 83.868 130.801 83.868 130.801L96.2001 131.357C96.2001 131.357 90.7128 133.925 91.7885 141.695C91.7885 141.695 73.158 140.514 72.5471 138.71C71.9363 136.907 75.2586 120.8 75.2586 120.8Z" fill="black"/>
<path d="M111.098 135.441L107.847 138.283L81.0853 144.041L84.4042 140.573L111.098 135.441Z" fill="white"/>
<path d="M65.0271 103.735C65.4717 104.43 66.7442 107.988 67.8064 111.095C68.6921 113.684 69.4319 115.96 69.4319 115.96C69.4319 115.96 71.1592 127.476 72.0415 129.557C72.9239 131.639 72.4454 139.756 72.4454 139.756L75.7337 159.804C75.7337 159.804 77.2235 170.142 79.5243 176.317C81.7946 182.394 84.3228 185.244 84.4008 185.334C83.3828 183.923 77.8343 156.144 77.8343 156.144L76.0018 121.11C76.0018 121.11 75.7337 117.781 75.4622 114.935C75.1908 112.089 69.6932 108.204 69.6932 108.204L64.3925 100.486C63.8597 101.215 64.216 102.487 65.0271 103.735Z" fill="white"/>
<path d="M78.849 148.76C78.849 148.76 86.6541 148.413 90.4345 143.763C94.2149 139.114 81.6961 141.907 81.6961 141.907L78.4417 142.672L78.849 148.76Z" fill="#FFB0B1"/>
<path opacity="0.1" d="M42.3989 201.972C42.8167 203.487 42.8841 205.08 42.5957 206.625C51.1101 207.244 60.2184 204.888 60.2184 204.888C61.9152 206.486 66.3845 208.842 66.3845 208.842L68.821 177.915C70.3787 173.745 70.9895 151.898 70.9895 151.898C70.9895 151.898 70.8504 150.755 70.6501 149.042C70.6501 149 70.6502 148.955 70.6332 148.913C70.0257 144.128 68.821 135.145 68.2306 133.932C67.4161 132.264 70.735 127.827 70.735 127.827L69.2249 114.639L69.0416 113.048C65.8585 111.592 63.4185 106.942 63.4185 106.942L61.5453 103.582C59.5092 102.244 59.404 115.355 59.404 115.355L61.4401 146.314L54.6937 144.406C54.6937 144.406 41.2485 198.018 42.3989 201.972Z" fill="black"/>
<path d="M33.6605 204.109C42.9419 208.829 59.8112 204.457 59.8112 204.457C61.5079 206.055 65.9772 208.412 65.9772 208.412L68.4172 177.484C69.9714 173.314 70.5823 151.467 70.5823 151.467C70.5823 151.467 68.6208 135.166 67.8064 133.502C67.5688 133.015 67.6842 132.292 67.9658 131.514C69.3506 127.809 69.86 123.821 69.4522 119.876L68.8007 114.208L68.6208 112.62C65.4343 111.161 62.9943 106.511 62.9943 106.511L61.2975 103.467L58.1755 97.8587L56.6959 95.2039L56.4448 95.4367L54.5274 97.2159C54.5274 97.2159 53.713 97.9109 52.4913 98.9534C49.8342 101.247 45.2427 105.285 42.874 107.755C40.7904 109.931 40.132 118.392 39.942 124.762C39.8164 128.956 39.8911 132.244 39.8911 132.244C41.9917 135.785 36.4975 164.213 36.4975 164.213C35.2182 169.707 33.6605 204.109 33.6605 204.109Z" fill="white"/>
<path opacity="0.03" d="M51.4766 106.442C51.4766 106.442 57.8463 118.858 57.1065 123.577C56.3667 128.296 54.2627 133.637 55.2774 134.885C55.626 135.357 56.0767 135.741 56.5942 136.005C57.1117 136.27 57.6819 136.409 58.2603 136.41C59.2784 136.48 61.9932 138.422 61.9932 138.631C61.9932 138.839 64.5011 138.839 66.7442 139.812C68.9873 140.785 72.2994 141.338 72.2994 141.338C72.2994 141.338 78.7471 141.129 79.3478 141.755C79.9484 142.38 80.5661 146.123 79.2799 149.108C77.9938 152.093 76.5651 154.32 75.4859 154.727C74.4068 155.133 67.5586 152.784 62.0034 152.228C56.4482 151.672 50.4179 147.165 50.4179 147.165C50.4179 147.165 43.7767 144.733 42.6127 140.643C41.4487 136.553 44.0346 114.073 44.0346 114.073C44.0346 114.073 45.9893 103.596 51.4766 106.442Z" fill="black"/>
<path opacity="0.03" d="M52.2911 105.399C52.2911 105.399 58.6608 117.819 57.9142 122.535C57.1676 127.25 55.0704 132.595 56.0885 133.846C56.4359 134.319 56.8858 134.703 57.4029 134.968C57.9199 135.232 58.4899 135.37 59.068 135.371C60.0861 135.441 62.8009 137.383 62.8009 137.592C62.8009 137.8 65.3087 137.8 67.5519 138.77C69.795 139.739 73.1071 140.295 73.1071 140.295C73.1071 140.295 79.5548 140.087 80.1521 140.712C80.7493 141.338 81.3738 145.084 80.0842 148.065C78.7947 151.047 77.3694 153.278 76.2902 153.684C75.2111 154.091 68.3629 151.742 62.8077 151.189C57.2525 150.637 51.2221 146.123 51.2221 146.123C51.2221 146.123 44.5844 143.69 43.4339 139.604C42.2835 135.517 44.8559 113.03 44.8559 113.03C44.8559 113.03 46.8037 102.557 52.2911 105.399Z" fill="black"/>
<path d="M51.6769 105.816C51.6769 105.816 58.0466 118.236 57.3 122.951C56.5534 127.667 54.4562 133.011 55.4709 134.259C55.8183 134.733 56.2686 135.118 56.7863 135.384C57.304 135.649 57.8749 135.787 58.4538 135.788C59.4719 135.858 62.1867 137.8 62.1867 138.005C62.1867 138.21 64.6911 138.214 66.9377 139.187C69.1842 140.16 72.4929 140.712 72.4929 140.712C72.4929 140.712 78.9406 140.504 79.5413 141.129C80.1419 141.755 80.7596 145.501 79.4734 148.482C78.1873 151.464 76.7586 153.695 75.6794 154.101C74.6003 154.508 67.7521 152.159 62.1969 151.603C56.6417 151.047 50.6113 146.54 50.6113 146.54C50.6113 146.54 43.9702 144.107 42.8062 140.017C41.6422 135.927 44.2111 113.447 44.2111 113.447C44.2111 113.447 46.193 102.988 51.6769 105.816Z" fill="white"/>
<path opacity="0.1" d="M51.816 139.127C51.816 139.127 56.9063 138.085 55.1349 139.822C53.3634 141.56 53.3736 143.082 51.2051 143.012C49.0367 142.943 51.816 139.127 51.816 139.127Z" fill="black"/>
<path opacity="0.1" d="M43.2134 176.511C43.2134 176.511 45.5142 178.106 41.1128 181.783C36.7113 185.459 43.2134 176.511 43.2134 176.511Z" fill="black"/>
<path opacity="0.1" d="M47.6045 189.622C47.6045 189.831 48.419 197.267 45.3716 199.126C42.3242 200.985 47.6045 189.622 47.6045 189.622Z" fill="black"/>
<path d="M95.9897 131.34C98.4467 131.427 103.754 132.195 101.002 137.453C98.5688 142.106 94.4796 138.995 92.1788 136.636C92.74 134.436 94.1041 132.541 95.9897 131.34Z" fill="#FFB0B1"/>
<path opacity="0.1" d="M52.4914 99.1653C55.0976 100.99 57.283 102.529 57.7106 102.849C58.878 103.735 61.1042 108.937 62.5396 111.592C63.6833 113.729 67.3992 114.278 68.8007 114.413L68.6209 112.825C65.4343 111.366 62.9944 106.716 62.9944 106.716L56.6959 95.4088L54.5275 97.4278C54.5275 97.4278 53.713 98.1228 52.4914 99.1653Z" fill="black"/>
<path d="M52.4914 98.9568C55.0976 100.781 57.283 102.321 57.7106 102.644C58.878 103.526 61.1042 108.728 62.5396 111.383C63.6833 113.52 67.3992 114.069 68.8007 114.205L68.6209 112.617C65.4343 111.157 62.9944 106.508 62.9944 106.508L56.6959 95.2003L54.5275 97.2123C54.5275 97.2123 53.713 97.9004 52.4914 98.9568Z" fill="#DCE7FF"/>
<path d="M57.507 90.1026C57.5055 92.1886 58.1233 94.2258 59.2784 95.944C60.6426 97.9756 62.6727 99.4392 65.0006 100.069C67.3284 100.699 69.7996 100.454 71.9658 99.3774C74.132 98.3011 75.8498 96.4654 76.8073 94.2033C77.7648 91.9411 77.8987 89.4024 77.1847 87.0478C76.4706 84.6932 74.956 82.6788 72.9155 81.3699C70.8751 80.061 68.4441 79.5445 66.0635 79.9141C63.683 80.2836 61.5107 81.5148 59.9408 83.3841C58.3709 85.2534 57.5074 87.6371 57.507 90.1026Z" fill="#FFB0B1"/>
<path opacity="0.1" d="M39.942 124.765C41.3201 123.897 42.4425 122.663 43.1896 121.193C43.7563 120.046 44.133 118.722 45.1002 117.909C45.9723 117.18 47.1363 117.002 48.2222 116.676C51.7922 115.595 54.7853 112.259 54.8973 108.45C54.9516 106.657 54.4053 104.868 54.653 103.092C54.7938 102.087 55.1841 101.136 55.7864 100.329C56.0855 99.9437 56.4134 99.5823 56.7672 99.2486C57.2423 98.7899 57.7411 98.3452 58.1755 97.8587C58.4491 97.5574 58.6882 97.2252 58.8881 96.8683C59.0495 96.5763 59.1803 96.2676 59.2784 95.9474C59.9571 93.8207 59.3395 91.2979 60.0861 89.1469L60.1268 89.0287C60.4084 88.2643 60.982 87.4998 61.7794 87.4407C62.5769 87.3816 63.259 88.0592 64.0192 88.3616C65.6107 88.994 67.3279 87.9168 68.6548 86.8187C69.9816 85.7206 71.4782 84.4661 73.1648 84.7094C74.2812 84.8727 75.1636 85.6511 76.1918 86.0542C76.4239 86.1462 76.6635 86.2171 76.9078 86.2662C76.0377 84.0439 74.4389 82.2014 72.3862 81.0551C70.3335 79.9089 67.955 79.5304 65.6594 79.9847C63.3638 80.4391 61.2943 81.6979 59.8066 83.5449C58.3189 85.3919 57.5058 87.7118 57.507 90.106C57.5058 90.829 57.5798 91.55 57.7275 92.257C57.7106 92.3057 57.6936 92.3508 57.6732 92.3995C57.2796 93.442 56.835 94.5123 56.4448 95.4366L54.5274 97.2158C54.5274 97.2158 53.713 97.9108 52.4913 98.9533C49.8342 101.247 45.2427 105.285 42.874 107.755C40.7904 109.938 40.1388 118.396 39.942 124.765Z" fill="black"/>
<path d="M76.3106 79.7055C75.8253 78.6943 75.5844 77.5614 75.0041 76.6024C74.1523 75.2124 72.6659 74.3228 71.1388 73.7841C67.1514 72.3768 58.7253 70.3335 56.2072 73.7841C55.7118 74.4791 55.3012 75.2506 54.6157 75.7301C54.0931 76.095 53.4619 76.2514 52.8884 76.5259C51.2832 77.2973 50.2584 78.9792 49.712 80.6959C49.1657 82.4125 49.0028 84.2542 48.6023 86.023C48.0899 88.2922 47.1906 90.4432 46.2947 92.5803C45.2393 95.1031 44.1195 97.7198 42.0833 99.5024C39.304 101.935 38.6898 105.379 36.1107 108.047C33.0565 111.217 33.1549 116.446 34.7295 120.599C34.9366 121.145 35.1707 121.714 35.0892 122.295C35.0078 122.875 34.587 123.403 34.1899 123.865L32.5203 125.794C36.4704 126.771 40.9397 124.658 42.779 120.95C43.3457 119.803 43.7224 118.483 44.693 117.666C45.5617 116.936 46.7291 116.763 47.8116 116.436C51.3816 115.352 54.3748 112.012 54.4867 108.204C54.541 106.414 53.9947 104.625 54.2424 102.852C54.3802 101.841 54.7719 100.883 55.3792 100.072C56.3124 98.8248 57.7208 97.9873 58.4809 96.5973C59.7671 94.2726 58.7897 91.2528 59.7162 88.7578C60.0012 87.9933 60.5714 87.2288 61.3688 87.1697C62.1663 87.1107 62.8484 87.7883 63.612 88.0906C65.2001 88.7231 66.9173 87.6493 68.2442 86.5477C69.571 85.4462 71.0676 84.1952 72.7576 84.4419C73.874 84.6017 74.753 85.3801 75.7812 85.7867C76.5414 86.0855 78.082 86.3531 78.7472 85.6963C80.1521 84.3724 76.8977 80.9426 76.3106 79.7055Z" fill="#591D4B"/>
<path opacity="0.1" d="M41.8356 119.803C42.4057 118.656 42.779 117.336 43.7495 116.523C44.6183 115.793 45.7857 115.616 46.8716 115.289C50.4382 114.208 53.4313 110.869 53.5467 107.06C53.601 105.271 53.0546 103.478 53.299 101.706C53.4411 100.7 53.8325 99.7492 54.4358 98.9429C55.3724 97.6954 56.7807 96.8579 57.5375 95.468C58.8236 93.1467 57.8463 90.1269 58.7761 87.6284C59.0578 86.8674 59.6313 86.1029 60.4254 86.0404C61.2195 85.9778 61.9084 86.6624 62.6685 86.9647C64.2567 87.5971 65.9772 86.5199 67.3007 85.4218C68.6242 84.3237 70.1275 83.0693 71.8141 83.3125C72.9306 83.4758 73.8129 84.2542 74.8378 84.6573C75.5979 84.9562 77.142 85.2272 77.8071 84.5704C79.2052 83.1805 75.9508 79.7576 75.3672 78.5275C74.8819 77.5128 74.6409 76.3834 74.0573 75.4243C74.0267 75.3722 73.9928 75.3201 73.9588 75.2679C74.3954 75.6383 74.7722 76.0769 75.0753 76.5676C75.6556 77.5267 75.8965 78.6526 76.3818 79.6707C76.9689 80.9009 80.2233 84.3341 78.8218 85.7137C78.1431 86.374 76.616 86.1029 75.8558 85.8041C74.8378 85.3975 73.9487 84.6191 72.8322 84.4592C71.1354 84.2125 69.6422 85.467 68.3188 86.5651C66.9953 87.6632 65.2646 88.7404 63.6832 88.108C62.923 87.8056 62.2579 87.1245 61.4435 87.1871C60.629 87.2496 60.086 88.0107 59.7908 88.7752C58.8644 91.2702 59.8417 94.2899 58.5556 96.6147C57.7954 97.9804 56.3871 98.8352 55.4539 100.09C54.8466 100.9 54.4549 101.858 54.317 102.87C54.0693 104.642 54.6156 106.431 54.5613 108.221C54.4494 112.044 51.4563 115.369 47.8863 116.453C46.8105 116.78 45.6363 116.954 44.7676 117.683C43.7936 118.5 43.4102 119.821 42.8536 120.967C41.0143 124.675 36.545 126.788 32.595 125.811L33.3822 124.901C36.8063 124.953 40.2711 122.958 41.8356 119.803Z" fill="black"/>
<path opacity="0.1" d="M65.2307 103.943C65.6752 104.638 66.9478 108.197 68.01 111.303C69.0043 110.907 69.907 108.381 69.907 108.381L64.6063 100.66C64.0633 101.424 64.4196 102.692 65.2307 103.943Z" fill="black"/>
<path d="M65.0271 103.735C65.4717 104.43 66.7443 107.988 67.8065 111.095C68.8008 110.702 69.7034 108.172 69.7034 108.172L64.4027 100.454C63.8598 101.215 64.2161 102.487 65.0271 103.735Z" fill="#DCE7FF"/>
<path d="M95.8472 139.235L98.786 129.745C98.8208 129.634 98.8338 129.517 98.8243 129.401C98.8148 129.284 98.783 129.171 98.7306 129.067C98.6783 128.964 98.6065 128.872 98.5193 128.797C98.4321 128.721 98.3313 128.665 98.2227 128.63C98.004 128.56 97.7671 128.581 97.5638 128.689C97.3604 128.797 97.2069 128.983 97.1368 129.206L94.1979 138.686L94.4898 140.67L95.8472 139.235Z" fill="#BE8B87"/>
<path opacity="0.1" d="M98.5078 128.911C98.2886 128.84 98.0509 128.861 97.8467 128.969C97.6425 129.077 97.4885 129.264 97.4184 129.488L94.4796 138.968L94.7002 140.455L94.4864 140.684L94.1946 138.7L97.1503 129.22C97.2205 128.997 97.374 128.811 97.5773 128.703C97.7807 128.595 98.0176 128.574 98.2363 128.643C98.4203 128.705 98.5792 128.827 98.6876 128.991C98.6299 128.959 98.5698 128.933 98.5078 128.911Z" fill="white"/>
<path d="M95.8472 139.235L94.198 138.7L94.4389 140.326L94.4898 140.684L94.9717 140.17L95.8472 139.235Z" fill="#EFC8C4"/>
<path d="M94.9717 140.17C94.943 140.133 94.9072 140.102 94.8665 140.08C94.8426 140.064 94.8149 140.056 94.7867 140.056C94.7585 140.056 94.7308 140.064 94.707 140.08C94.6839 140.108 94.6645 140.14 94.6493 140.173C94.6269 140.212 94.5963 140.244 94.5599 140.269C94.5235 140.294 94.4821 140.31 94.4389 140.316L94.4898 140.663L94.9717 140.17Z" fill="#727A9C"/>
<path d="M98.803 133.116C98.803 133.116 92.9084 133.081 94.2964 135.649C95.6843 138.217 97.8528 138.526 97.8528 138.526L98.803 133.116Z" fill="#FFB0B1"/>
<path d="M135.463 17.8683H135.718C145.844 17.8683 154.8 23.3553 159.951 31.452C165.103 23.3553 174.058 17.8683 184.185 17.8683H184.439C192.039 17.9424 199.302 21.0847 204.652 26.6123C210.002 32.1398 213.005 39.6059 213.009 47.3882C213.009 57.0521 208.876 70.7643 200.816 82.0475C185.46 103.547 159.951 122.357 159.951 122.357C159.951 122.357 134.442 103.551 119.09 82.0475C111.027 70.7643 106.897 57.0521 106.897 47.3882C106.901 39.6065 109.903 32.1409 115.252 26.6135C120.601 21.086 127.865 17.9434 135.463 17.8683ZM139.105 83.7016C140.258 83.6971 141.383 83.3357 142.332 82.6646C143.281 81.9936 144.01 81.0445 144.422 79.9417H150.476C150.875 79.9392 151.263 79.8092 151.586 79.57C151.909 79.3308 152.151 78.9942 152.278 78.6073L154.138 72.8701L160.023 93.925C160.137 94.3303 160.377 94.6866 160.706 94.9404C161.035 95.1942 161.436 95.3317 161.848 95.3324H161.967C162.397 95.3111 162.807 95.1394 163.128 94.8459C163.449 94.5524 163.662 94.155 163.732 93.72L169.796 56.371L174.228 78.4718C174.33 78.8916 174.566 79.2645 174.898 79.531C175.231 79.7974 175.641 79.942 176.064 79.9417H184.592C184.847 79.9528 185.103 79.9108 185.342 79.8183C185.581 79.7257 185.8 79.5846 185.985 79.4032C186.169 79.2219 186.316 79.0042 186.417 78.7632C186.517 78.5223 186.569 78.263 186.569 78.0009C186.569 77.7389 186.517 77.4796 186.417 77.2386C186.316 76.9977 186.169 76.7799 185.985 76.5986C185.8 76.4173 185.581 76.2762 185.342 76.1836C185.103 76.0911 184.847 76.0491 184.592 76.0602H177.557L171.279 46.3457C171.176 45.9064 170.927 45.5173 170.575 45.2451C170.223 44.9729 169.789 44.8344 169.348 44.8533C168.907 44.8721 168.487 45.0472 168.158 45.3486C167.829 45.65 167.613 46.0589 167.546 46.5055L161.353 84.6051L156.079 65.7673C155.969 65.3706 155.737 65.0208 155.417 64.7703C155.097 64.5198 154.707 64.3819 154.304 64.3773H154.267C153.868 64.3774 153.48 64.5065 153.157 64.7461C152.834 64.9857 152.593 65.3237 152.468 65.7117L149.105 76.0706H144.497C144.169 75.0513 143.573 74.1444 142.774 73.4502C141.975 72.756 141.004 72.3014 139.968 72.1365C138.933 71.9717 137.873 72.1031 136.906 72.5161C135.938 72.9291 135.101 73.6078 134.487 74.4772C133.873 75.3466 133.505 76.3729 133.424 77.4428C133.343 78.5128 133.553 79.5847 134.029 80.5405C134.506 81.4962 135.231 82.2984 136.125 82.8587C137.019 83.419 138.047 83.7155 139.095 83.7155L139.105 83.7016Z" fill="#429B9C"/>
</g>
<defs>
<linearGradient id="paint0_linear_44_364" x1="254.078" y1="269.265" x2="254.078" y2="55.4363" gradientUnits="userSpaceOnUse">
<stop stop-color="#808080" stop-opacity="0.25"/>
<stop offset="0.54" stop-color="#808080" stop-opacity="0.12"/>
<stop offset="1" stop-color="#808080" stop-opacity="0.1"/>
</linearGradient>
<linearGradient id="paint1_linear_44_364" x1="71.8108" y1="266.562" x2="71.8108" y2="71.2682" gradientUnits="userSpaceOnUse">
<stop stop-color="#808080" stop-opacity="0.25"/>
<stop offset="0.54" stop-color="#808080" stop-opacity="0.12"/>
<stop offset="1" stop-color="#808080" stop-opacity="0.1"/>
</linearGradient>
<clipPath id="clip0_44_364">
<rect width="375" height="272" fill="white" transform="matrix(-1 0 0 1 375 0)"/>
</clipPath>
</defs>
</svg>
